<?xml version="1.0" standalone="no"?>
<!DOCTYPE svg PUBLIC "-//W3C//DTD SVG 1.1//EN" "http://www.w3.org/Graphics/SVG/1.1/DTD/svg11.dtd" >
<svg xmlns="http://www.w3.org/2000/svg">
<metadata>
Created by FontPrep 20130207 at Fri Sep 19 18:38:06 2014
 By Mikhail
Copyright 2006 Monotype Imaging Ltd. All rights reserved
</metadata>
<defs>
<font id="ff9fa2e2a24e988bf3a921c4400dc040" horiz-adv-x='1024' >
  <font-face 
    font-family="OpelSansCondensedCarline"
    font-weight="800"
    font-stretch="condensed"
    units-per-em="2048"
    panose-1="2 11 9 3 0 0 0 0 0 4"
    ascent="1638"
    descent="-410"
    x-height="942"
    cap-height="1358"
    bbox="-430 -569 2310 1950"
    underline-thickness="54"
    underline-position="-75"
    unicode-range="U+0020-FB02"
  />
<missing-glyph horiz-adv-x="2048" 
d="M366 100h1339v1340h-1339v-1340zM266 0v1540h1540v-1540h-1540z" />
    <glyph glyph-name="fi" unicode="fi" horiz-adv-x="1205" 
d="M974 1388q68 0 117 -49t49 -120t-50 -121t-116 -49q-68 -1 -118 49t-49 120q-1 70 49 120t118 50zM1112 0h-278v719h-392v-719h-278v719h-123v223h123q6 248 120 381t344 155l78 -164q-134 -31 -198 -115t-66 -257h631l39 14v-956z" />
    <glyph glyph-name="fl" unicode="fl" horiz-adv-x="1196" 
d="M645 942v-223h-203v-719h-278v719h-123v223h123q14 493 463 536l84 -164q-137 -33 -201 -114q-66 -89 -68 -258h203zM1110 0h-277v1420l277 83v-1503z" />
    <glyph glyph-name=".notdef" horiz-adv-x="2048" 
d="M366 100h1339v1340h-1339v-1340zM266 0v1540h1540v-1540h-1540z" />
    <glyph glyph-name=".null" horiz-adv-x="0" 
 />
    <glyph glyph-name="nonmarkingreturn" horiz-adv-x="414" 
 />
    <glyph glyph-name="space" unicode=" " horiz-adv-x="414" 
 />
    <glyph glyph-name="exclam" unicode="!" horiz-adv-x="453" 
d="M68 135q0 63 46 109t110 46q65 0 111 -46t46 -108q-1 -64 -47 -110t-94 -47q-80 0 -127 46h1q-46 46 -46 110zM120 419q-31 702 -42 984l302 88l-51 -1072h-209z" />
    <glyph glyph-name="quotedbl" unicode="&#x22;" horiz-adv-x="902" 
d="M386 1372l-38 -579h-213l-29 579h280zM796 1372l-38 -579h-211l-30 579h279z" />
    <glyph glyph-name="numbersign" unicode="#" horiz-adv-x="1042" 
d="M624 812h-183l-30 -229h182zM991 993v-181h-174l-29 -229h158v-183h-182l-51 -400h-195l51 400h-181l-52 -400h-194l50 400h-141v183h165l32 229h-153v181h174l51 379h194l-50 -379h184l49 379h194l-50 -379h150z" />
    <glyph glyph-name="dollar" unicode="$" horiz-adv-x="1022" 
d="M536 1176q-85 0 -133 -37t-48 -95t42 -104q43 -46 181 -112t212 -114t129 -128q54 -81 54 -200q0 -330 -345 -396v-204h-250v204q-185 31 -323 133q70 109 138 222q153 -103 311 -103t157 126q1 48 -37 90t-168 106q-130 63 -210 116v-1q-73 48 -127 137q-54 88 -54 220
q1 132 81 224t232 129v169h250v-157q186 -24 314 -107l-137 -199q-124 81 -269 81z" />
    <glyph glyph-name="percent" unicode="%" horiz-adv-x="1697" 
d="M1353 688q-102 0 -102 -240q0 -182 18 -232q17 -50 37 -64t46 -14q53 0 77 65t24 211t-24 210t-76 64zM1074 414q0 202 73 316t205 113q132 0 203 -112q75 -114 75 -311t-73 -318t-202 -121t-205 116q-76 115 -76 317zM346 690q77 0 94 147q6 52 6 127q0 146 -23 210
q-23 63 -77 63q-102 0 -102 -273q0 -146 25 -210t77 -64zM343 1394q134 0 207 -114t73 -312t-73 -316t-202 -119q-128 1 -204 117t-76 312t71 317q70 115 204 115zM360 -28l757 1426h212l-755 -1426h-214z" />
    <glyph glyph-name="ampersand" unicode="&#x26;" horiz-adv-x="1110" 
d="M554 1151q-165 0 -165 -135q0 -76 46 -104t140 -29h130l-133 -240h-20q-90 -1 -144 -61t-55 -152t57 -152q58 -61 150 -61q190 0 215 209h-155l125 224h295q6 -71 6 -109q0 -257 -132 -409t-353 -153t-360 121q-138 122 -138 334t228 350q-172 94 -172 254t114 259
q120 95 304 95q185 0 329 -110l-108 -199q-100 68 -204 68z" />
    <glyph glyph-name="quotesingle" unicode="'" horiz-adv-x="393" 
d="M87 793l-32 579h282l-37 -579h-213z" />
    <glyph glyph-name="parenleft" unicode="(" horiz-adv-x="641" 
d="M74 630q0 492 250 898h274q-246 -414 -246 -898t246 -899h-274q-250 407 -250 899z" />
    <glyph glyph-name="parenright" unicode=")" horiz-adv-x="641" 
d="M567 630q0 -492 -250 -899h-274q246 415 246 899t-246 898h274q250 -406 250 -898z" />
    <glyph glyph-name="asterisk" unicode="*" horiz-adv-x="865" 
d="M561 1069q44 -51 171 -197l-185 -143l-112 211l-112 -215l-187 147l166 193l-245 53q19 60 33 111t31 110l219 -109q-3 26 -6 58q-2 32 -6 65t-8 65t-7 61h238l-28 -245l221 104l61 -218z" />
    <glyph glyph-name="plus" unicode="+" horiz-adv-x="1020" 
d="M920 573h-302v-304h-215v304h-305v215h305v307h215v-307h302v-215z" />
    <glyph glyph-name="comma" unicode="," horiz-adv-x="434" 
d="M41 149q0 63 51 114q52 51 118 51t116 -50t50 -120q0 -195 -185 -459h-131q79 133 120 279l-12 19q-55 13 -91 58t-36 108z" />
    <glyph glyph-name="hyphen" unicode="-" horiz-adv-x="634" 
d="M585 391h-536v234h536v-234z" />
    <glyph glyph-name="period" unicode="." horiz-adv-x="419" 
d="M41 146q1 68 51 118t117 50t117 -50t50 -119q0 -68 -49 -117t-117 -49t-120 49h1q-50 50 -50 118z" />
    <glyph glyph-name="slash" unicode="/" horiz-adv-x="532" 
d="M581 1511l-422 -1668h-241l421 1668h242z" />
    <glyph glyph-name="zero" unicode="0" horiz-adv-x="1013" 
d="M506 229q94 0 132 106t39 353q0 247 -38 347q-39 109 -131 109t-132 -106t-39 -352q0 -244 37 -346q38 -111 132 -111zM957 690q1 -330 -121 -520q-122 -191 -330 -191q-208 -1 -331 193q-122 194 -122 512t116 516q119 192 334 192q216 0 335 -186t119 -516z" />
    <glyph glyph-name="one" unicode="1" horiz-adv-x="765" 
d="M583 0h-301v883q-19 -16 -41 -35q-22 -18 -45 -38l-46 -40t-44 -37v311l332 348h145v-1392z" />
    <glyph glyph-name="two" unicode="2" horiz-adv-x="1009" 
d="M934 0h-889v112q115 138 229 272t228 272h-1q117 138 141 240q10 40 10 83q0 159 -159 159q-152 0 -284 -160q-41 50 -77 95l-76 95q215 224 468 224q207 0 316 -98t109 -284q0 -121 -50 -231t-171 -253l-244 -280h450v-246z" />
    <glyph glyph-name="three" unicode="3" horiz-adv-x="985" 
d="M504 1392q190 0 294 -93t104 -259q0 -199 -175 -291v-28q97 -35 151 -119t54 -184q0 -212 -136 -326t-333 -113q-265 0 -434 224q42 47 81 91t81 90q56 -74 119 -111q63 -38 149 -38q181 0 181 183q0 80 -40 116t-102 45q-63 9 -180 9v229q114 0 170 8q130 19 130 162
q0 149 -149 149t-263 -131l-155 164q186 223 453 223z" />
    <glyph glyph-name="four" unicode="4" horiz-adv-x="1022" 
d="M556 466v386l-235 -386h235zM977 237h-121v-237h-300v237h-519v174l624 981h195v-926h121v-229z" />
    <glyph glyph-name="five" unicode="5" horiz-adv-x="994" 
d="M490 885q201 1 325 -113t124 -313t-132 -343q-135 -137 -349 -137q-134 0 -226 39t-177 125l168 186q54 -52 107 -73q54 -21 138 -21q84 -1 140 65t56 167t-64 154t-157 53t-157 -31l-65 -29h-142l53 758h758l-122 -246h-401l-22 -258q83 17 145 17z" />
    <glyph glyph-name="six" unicode="6" horiz-adv-x="1009" 
d="M664 441q0 97 -41 155t-111 58q-116 0 -154 -128q-12 -40 -12 -110q0 -69 46 -129t118 -60t113 58t41 156zM566 870q180 0 284 -116t103 -318q0 -204 -126 -332q-127 -125 -323 -125t-323 127q-126 126 -126 342q0 327 287 692q92 117 210 232h327q-259 -256 -389 -486
l16 -23q28 7 60 7z" />
    <glyph glyph-name="seven" unicode="7" horiz-adv-x="983" 
d="M45 1126l121 246h791q-510 -1212 -577 -1372h-314l496 1126h-517z" />
    <glyph glyph-name="eight" unicode="8" horiz-adv-x="1019" 
d="M510 231q76 0 118 47q43 47 43 136q1 127 -97 170q-30 13 -66 13q-72 0 -116 -51t-44 -136t43 -132t119 -47zM612 866q40 47 40 121q0 75 -38 117t-105 42q-66 0 -103 -42t-37 -98q1 -57 11 -88t28 -53q39 -46 102 -46q62 0 102 47zM95 1018q0 178 112 276q113 98 303 98
t303 -98t113 -281q0 -182 -159 -299q141 -76 183 -234q14 -50 14 -100q0 -191 -124 -296t-332 -105q-209 -1 -332 105t-123 296q1 102 57 189t160 144q-175 126 -175 305z" />
    <glyph glyph-name="nine" unicode="9" horiz-adv-x="1009" 
d="M497 718q115 0 153 128q12 40 12 108q0 67 -46 129q-47 61 -118 61q-70 0 -112 -57t-42 -156t40 -156t113 -57zM441 501q-181 0 -283 115t-103 323q1 209 127 331t323 122t322 -128q126 -128 126 -341q0 -321 -286 -689q-92 -118 -210 -234h-329q272 273 391 485l-18 23
q-27 -7 -60 -7z" />
    <glyph glyph-name="colon" unicode=":" horiz-adv-x="449" 
d="M57 146q0 68 50 118q49 50 117 50t118 -50t50 -119t-50 -117t-118 -49q-68 0 -119 49h1q-49 50 -49 118zM224 632q-68 0 -118 50t-49 118q0 68 50 118q49 50 117 50t118 -50t50 -118t-50 -118t-118 -50z" />
    <glyph glyph-name="semicolon" unicode=";" horiz-adv-x="449" 
d="M392 144q0 -196 -188 -459h-131q86 147 121 279l-11 19q-57 15 -91 61t-35 108q0 62 50 112q49 50 117 50t118 -50t50 -120zM224 632q-68 0 -118 50t-49 118q0 68 50 118q49 50 117 50t118 -50t50 -118t-50 -118t-118 -50z" />
    <glyph glyph-name="less" unicode="&#x3c;" horiz-adv-x="1017" 
d="M882 254l-745 326v198l745 327v-216l-478 -208l478 -210v-217z" />
    <glyph glyph-name="equal" unicode="=" horiz-adv-x="1037" 
d="M886 423h-736v182h736v-182zM886 767h-736v181h736v-181z" />
    <glyph glyph-name="greater" unicode="&#x3e;" horiz-adv-x="1017" 
d="M137 1105l745 -327v-195q-188 -83 -373 -165t-372 -165v218l514 210l-514 210v214z" />
    <glyph glyph-name="question" unicode="?" horiz-adv-x="923" 
d="M143 135q-1 63 45 109t110 46t112 -46q47 -46 47 -109q0 -62 -48 -110h1q-48 -46 -112 -46t-111 45q-44 47 -44 111zM441 1443q203 0 321 -112q118 -113 118 -289t-114 -292t-334 -155v-127q-68 -22 -132 -44t-132 -45v376q432 24 432 269q0 91 -51 136t-136 45
q-133 0 -258 -93l-112 203q195 128 398 128z" />
    <glyph glyph-name="at" unicode="@" horiz-adv-x="1795" 
d="M826 210q102 0 170 96t68 225q0 128 -97 172q-31 14 -70 14q-103 -1 -167 -95t-65 -212q0 -200 161 -200zM909 -421q-367 0 -613 240q-243 240 -243 635q0 269 123 476q123 214 337 334t451 120q342 0 560 -196t217 -533q-1 -287 -135 -471t-350 -184q-158 0 -185 143
q-144 -133 -294 -133q-149 0 -245 105t-96 271q0 218 133 376t336 157q148 0 245 -115l197 79q-102 -614 -102 -632q0 -62 66 -62q105 -1 167 127t62 353t-158 379q-166 149 -418 149q-292 1 -500 -213t-209 -530q0 -316 192 -503q193 -185 489 -185t552 182l86 -129
q-298 -240 -665 -240z" />
    <glyph glyph-name="A" unicode="A" horiz-adv-x="1276" 
d="M780 455l-149 412l-149 -412h298zM12 0q511 1298 541 1374h168l541 -1374h-315l-86 228h-462l-83 -228h-304z" />
    <glyph glyph-name="B" unicode="B" horiz-adv-x="1041" 
d="M401 267h74q177 0 211 94q12 33 12 80q0 166 -225 166h-72v-340zM401 828h74q189 0 189 150q0 74 -47 106t-144 31h-72v-287zM996 410q0 -410 -521 -410h-373v1358h371q249 0 368 -83t119 -258q0 -203 -154 -273l-1 -27q191 -94 191 -307z" />
    <glyph glyph-name="C" unicode="C" horiz-adv-x="1158" 
d="M55 681q0 309 189 503t481 194q241 0 407 -123l-156 -238q-108 93 -262 93t-254 -118t-100 -313q0 -196 99 -314t251 -118t266 95l156 -239q-166 -123 -407 -123q-291 0 -481 196t-189 505z" />
    <glyph glyph-name="D" unicode="D" horiz-adv-x="1223" 
d="M401 269h49q411 0 411 425q0 194 -105 296t-304 101h-51v-822zM100 1358h333q350 0 541 -170t191 -494t-197 -510q-197 -184 -535 -184h-333v1358z" />
    <glyph glyph-name="E" unicode="E" horiz-adv-x="972" 
d="M400 1115v-276h378v-269h-378v-303h410l138 -267h-848v1358h823l-125 -243h-398z" />
    <glyph glyph-name="F" unicode="F" horiz-adv-x="969" 
d="M400 1115v-304h426v-269h-426v-542h-300v1358h865l-127 -243h-438z" />
    <glyph glyph-name="G" unicode="G" horiz-adv-x="1247" 
d="M55 681q0 309 189 503t480 194q241 0 410 -124q-41 -63 -78 -119t-76 -118q-112 93 -266 93t-254 -118t-101 -313t99 -313t266 -119q65 0 138 25v231h-215l120 241h392v-637q-170 -127 -447 -127q-278 0 -468 196t-189 505z" />
    <glyph glyph-name="H" unicode="H" horiz-adv-x="1235" 
d="M1133 0h-294v570h-439v-570h-300v1358h300v-519h439v519h294v-1358z" />
    <glyph glyph-name="I" unicode="I" horiz-adv-x="506" 
d="M402 0h-300v1358h300v-1358z" />
    <glyph glyph-name="J" unicode="J" horiz-adv-x="734" 
d="M633 420q0 -440 -335 -440q-172 0 -294 91q28 55 54 105t53 105q60 -40 117 -40q57 -1 81 39t24 142v936h300v-938z" />
    <glyph glyph-name="K" unicode="K" horiz-adv-x="1181" 
d="M401 0h-301v1358h301v-552l378 552h332l-471 -646l537 -712h-371l-405 560v-560z" />
    <glyph glyph-name="L" unicode="L" horiz-adv-x="981" 
d="M100 0v1358h300v-1091h432l133 -267h-865z" />
    <glyph glyph-name="M" unicode="M" horiz-adv-x="1540" 
d="M1493 0h-320l-98 711l-239 -715h-133l-243 715l-110 -711h-303l236 1360h193l316 -796l273 796h195z" />
    <glyph glyph-name="N" unicode="N" horiz-adv-x="1266" 
d="M1165 -4h-154l-622 756v-752h-289v1360h157l621 -750v748h287v-1362z" />
    <glyph glyph-name="O" unicode="O" 
d="M359 681q1 -194 101 -310t256 -116t256 117q101 118 101 310t-101 308q-102 115 -258 115t-255 -115q-100 -115 -100 -309zM55 684q-1 314 193 504t470 190t467 -194q190 -194 190 -504t-190 -505q-191 -195 -469 -195t-470 195v-1q-191 197 -191 510z" />
    <glyph glyph-name="P" unicode="P" horiz-adv-x="1011" 
d="M400 715h32q182 -1 217 113q12 38 12 92q0 109 -51 157t-176 48h-34v-410zM100 1362h341q525 0 525 -442q0 -220 -134 -332t-391 -112h-41v-476h-300v1362z" />
    <glyph glyph-name="Q" unicode="Q" 
d="M359 681q1 -194 101 -310t256 -116t256 117q101 118 101 310t-101 308q-102 115 -258 115t-255 -115q-100 -115 -100 -309zM55 682q-1 316 193 506t470 190t467 -194q190 -194 190 -502q1 -269 -145 -457t-396 -232l-88 -90q193 -16 328 -28t197 -17q-13 -24 -25 -46
t-31 -56q-20 -35 -41 -72l-963 -19l325 337q-239 74 -360 254t-121 426z" />
    <glyph glyph-name="R" unicode="R" horiz-adv-x="1079" 
d="M401 721h38q227 0 227 204q0 192 -224 192h-41v-396zM401 490v-490h-301v1358h344q260 0 392 -106t132 -312q0 -268 -230 -395l316 -545h-325l-260 490h-68z" />
    <glyph glyph-name="S" unicode="S" horiz-adv-x="1012" 
d="M530 1165q-85 0 -132 -37t-47 -94t41 -104q44 -46 180 -111t211 -113t127 -126q52 -80 53 -188q0 -204 -122 -308t-359 -104q-236 0 -427 142q41 63 136 220q151 -103 307 -103t156 125q0 78 -102 140q-46 28 -142 74q-97 47 -167 95v-1q-70 46 -125 134q-54 88 -54 218
q0 168 125 268t350 100t393 -111l-136 -197q-127 81 -266 81z" />
    <glyph glyph-name="T" unicode="T" horiz-adv-x="1073" 
d="M1039 1091h-355v-1091h-297v1091h-354v267h1006v-267z" />
    <glyph glyph-name="U" unicode="U" horiz-adv-x="1231" 
d="M1133 592q-1 -300 -133 -456t-384 -156t-384 156t-132 456v766h298v-766q0 -174 48 -260t168 -85t172 79q51 78 51 268v764h296v-766z" />
    <glyph glyph-name="V" unicode="V" horiz-adv-x="1231" 
d="M619 450q116 377 285 908h305l-484 -1362h-226q-120 343 -238 681t-238 681h313z" />
    <glyph glyph-name="W" unicode="W" horiz-adv-x="1623" 
d="M1599 1358q-306 -991 -423 -1378h-159l-213 742l-217 -742h-161q-101 347 -201 689t-200 689h312l187 -735l222 737h157l203 -732l197 730h296z" />
    <glyph glyph-name="X" unicode="X" horiz-adv-x="1246" 
d="M638 953l224 405h333l-402 -662l426 -696h-331l-269 443l-261 -443h-331l431 708l-396 650h330z" />
    <glyph glyph-name="Y" unicode="Y" horiz-adv-x="1214" 
d="M746 0h-295v576l-426 782h317l264 -512l265 512h318l-443 -776v-582z" />
    <glyph glyph-name="Z" unicode="Z" horiz-adv-x="1152" 
d="M1125 271l-134 -271h-962l564 1091h-529l83 166q33 66 51 101h890l-563 -1087h600z" />
    <glyph glyph-name="bracketleft" unicode="[" horiz-adv-x="581" 
d="M530 -237h-471v1736h471v-234h-193v-1268h193v-234z" />
    <glyph glyph-name="backslash" unicode="\" horiz-adv-x="532" 
d="M579 -157h-242l-419 1668h241z" />
    <glyph glyph-name="bracketright" unicode="]" horiz-adv-x="581" 
d="M522 -237h-471v234h193v1268h-193v234h471v-1736z" />
    <glyph glyph-name="asciicircum" unicode="^" horiz-adv-x="805" 
d="M385 1025q-74 -238 -161 -504h-271l305 851h257l303 -851h-270z" />
    <glyph glyph-name="underscore" unicode="_" horiz-adv-x="1140" 
d="M1150 -364h-1158v218h1158v-218z" />
    <glyph glyph-name="grave" unicode="`" horiz-adv-x="585" 
d="M513 1132h-195l-271 301h282z" />
    <glyph glyph-name="a" unicode="a" horiz-adv-x="1125" 
d="M536 195q100 0 156 75q57 75 57 203q0 198 -120 255q-40 19 -94 19q-97 1 -151 -75t-55 -199q0 -195 119 -258q38 -20 88 -20zM516 -21q-195 0 -333 134q-130 138 -130 361q0 222 134 356t348 134q169 0 271 -129l221 114v-652q0 -89 13 -128t34 -76l-217 -111
q-42 36 -71 123q-114 -126 -270 -126z" />
    <glyph glyph-name="b" unicode="b" horiz-adv-x="1129" 
d="M799 472q1 122 -55 198t-158 77q-102 -1 -158 -71t-56 -200t57 -205q57 -76 158 -76t157 78q55 77 55 199zM97 297v1123l277 83v-638q128 99 262 99q187 0 312 -138t125 -355t-130 -357q-135 -135 -331 -135q-160 0 -275 127q-22 -77 -72 -124q-102 52 -216 112
q48 70 48 203z" />
    <glyph glyph-name="c" unicode="c" horiz-adv-x="897" 
d="M53 470q-1 228 133 361t348 133t328 -85l-113 -194q-97 62 -197 62q-100 -1 -162 -79t-62 -198t62 -198q62 -77 163 -77q102 0 199 63l112 -195q-118 -84 -331 -84t-348 132h1q-133 131 -133 359z" />
    <glyph glyph-name="d" unicode="d" horiz-adv-x="1130" 
d="M540 195q100 1 158 77t57 205q0 129 -55 199t-155 71q-100 0 -162 -78q-54 -77 -54 -196q0 -196 121 -258q40 -20 90 -20zM516 -21q-203 0 -333 136q-130 137 -130 359t127 356t313 134q137 0 260 -99v555q73 22 139 42t137 41v-1206q0 -80 11 -120t38 -83l-215 -112
q-41 34 -76 123q-108 -126 -271 -126z" />
    <glyph glyph-name="e" unicode="e" horiz-adv-x="1093" 
d="M555 749q-131 -1 -197 -139q-21 -44 -30 -101l431 96q-73 144 -204 144zM554 -21q-210 1 -356 137t-145 360t149 356t353 132t340 -121t153 -341l-698 -151q55 -156 202 -156t293 92q78 -138 106 -189q-187 -119 -397 -119z" />
    <glyph glyph-name="f" unicode="f" horiz-adv-x="674" 
d="M644 942v-223h-203v-719h-277v719h-123v223h123q12 492 462 536l83 -164q-136 -33 -201 -117t-67 -255h203z" />
    <glyph glyph-name="g" unicode="g" horiz-adv-x="1101" 
d="M542 195q98 0 154 75t56 203q0 274 -210 274q-100 0 -155 -74q-56 -74 -56 -200q-1 -196 121 -258q40 -20 90 -20zM514 -202q184 0 222 146q14 52 13 124q-118 -89 -231 -89q-202 0 -332 135t-131 360q0 226 136 358t351 132q159 0 276 -122l211 110v-902
q0 -490 -515 -490q-232 0 -425 125l143 197q125 -84 282 -84z" />
    <glyph glyph-name="h" unicode="h" horiz-adv-x="971" 
d="M901 0h-278v592q1 71 -25 98t-73 27q-86 0 -130 -65q-45 -65 -45 -177v-475h-278v1406l266 95v-714q88 127 209 165q39 12 78 12q151 0 213 -85t63 -283v-596z" />
    <glyph glyph-name="i" unicode="i" horiz-adv-x="457" 
d="M366 0h-278v855l278 102v-957zM228 1388q68 0 118 -50t50 -120t-50 -119q-50 -50 -118 -50q-68 -1 -118 49t-49 120q-1 70 49 120t118 50z" />
    <glyph glyph-name="j" unicode="j" horiz-adv-x="473" 
d="M373 146q-1 -242 -97 -368t-322 -196q-26 54 -48 100t-47 98q117 36 177 102t59 212v761l278 102v-811zM233 1049q-67 0 -116 50q-49 49 -49 119t48 120t116 50t118 -50t51 -120q-1 -68 -51 -118t-117 -51z" />
    <glyph glyph-name="k" unicode="k" horiz-adv-x="938" 
d="M349 0h-277v1422q72 20 138 40t139 41v-928l232 367h330l-310 -422l333 -520h-351l-208 377l-26 -6v-371z" />
    <glyph glyph-name="l" unicode="l" horiz-adv-x="421" 
d="M350 0h-278v1420l278 83v-1503z" />
    <glyph glyph-name="m" unicode="m" horiz-adv-x="1434" 
d="M1373 602v-602h-277v594q0 123 -92 123q-69 1 -106 -59t-37 -163v-495h-278v594q0 123 -93 123q-140 0 -140 -242v-475h-278v860q71 26 134 48t133 48v-151q109 159 273 159t230 -157q111 157 278 157q129 0 191 -76t62 -286z" />
    <glyph glyph-name="n" unicode="n" horiz-adv-x="971" 
d="M338 787q124 177 304 177q129 0 194 -87t65 -281v-596h-278v592q1 71 -25 98t-73 27q-86 0 -130 -65q-45 -65 -45 -177v-475h-278v860q72 26 134 48t132 48v-169z" />
    <glyph glyph-name="o" unicode="o" horiz-adv-x="1112" 
d="M556 747q-105 0 -166 -75q-61 -74 -61 -198q1 -124 61 -202t165 -77q105 -1 165 77t61 201q-1 193 -131 255q-42 20 -94 19zM556 964q217 0 359 -136t142 -351q0 -216 -142 -362q-149 -136 -361 -136t-358 138q-143 137 -143 355t143 355t360 137z" />
    <glyph glyph-name="p" unicode="p" horiz-adv-x="1103" 
d="M563 195q101 1 156 79t55 199q0 195 -121 255q-39 20 -90 19q-106 0 -161 -70t-55 -204q0 -195 126 -258q40 -20 90 -20zM608 964q188 0 314 -138t126 -356q0 -219 -130 -357q-138 -134 -333 -134q-128 0 -235 86v-404l-278 -82v1375l223 -106q125 116 313 116z" />
    <glyph glyph-name="q" unicode="q" horiz-adv-x="1103" 
d="M756 477q0 129 -56 199t-157 71q-102 0 -158 -74t-56 -198q0 -123 55 -201t155 -79q100 0 159 76q58 77 58 206zM516 -21q-203 0 -333 135t-130 353t126 360q129 137 316 137q188 0 312 -118l224 106v-1291l-277 -82v486q-108 -86 -238 -86z" />
    <glyph glyph-name="r" unicode="r" horiz-adv-x="731" 
d="M535 715q-185 0 -185 -238v-477h-278v860l267 95v-174q120 183 282 183q52 0 84 -9l-47 -255q-53 15 -123 15z" />
    <glyph glyph-name="s" unicode="s" horiz-adv-x="777" 
d="M411 769q-100 0 -100 -76q0 -44 27 -62t116 -51q183 -68 235 -139q52 -70 52 -164q0 -139 -104 -219q-103 -80 -273 -79q-170 0 -322 116l107 159q100 -82 230 -82q96 0 96 81q0 37 -28 55t-122 52t-144 60q-49 26 -97 92t-47 184q0 118 102 193t280 75t299 -88
l-107 -157q-100 50 -200 50z" />
    <glyph glyph-name="t" unicode="t" horiz-adv-x="699" 
d="M158 352v367h-125v223h125v265q69 43 138 84t139 83v-432h260l-116 -223h-144v-301q0 -127 37 -198t117 -129l-167 -135q-264 103 -264 396z" />
    <glyph glyph-name="u" unicode="u" horiz-adv-x="991" 
d="M346 -21q-145 0 -211 83q-65 86 -65 284v596h278v-592q0 -67 23 -96t73 -29q90 0 134 65t44 177v475h278v-645q0 -84 10 -119q10 -34 38 -85l-202 -111q-85 77 -111 178q-114 -181 -289 -181z" />
    <glyph glyph-name="v" unicode="v" horiz-adv-x="970" 
d="M948 942l-359 -946h-239q-84 239 -164 473t-163 473h295l167 -591l185 591h278z" />
    <glyph glyph-name="w" unicode="w" horiz-adv-x="1347" 
d="M905 457q90 292 146 485h271q-316 -831 -360 -946h-133l-159 502l-168 -502h-133l-346 946h291l136 -488l163 454h141z" />
    <glyph glyph-name="x" unicode="x" horiz-adv-x="1017" 
d="M492 265q-150 -262 -152 -265h-315l319 490q-72 110 -148 226t-150 226h322l156 -237l131 237h312l-294 -457l320 -485h-323z" />
    <glyph glyph-name="y" unicode="y" horiz-adv-x="970" 
d="M463 350l212 592h273q-62 -164 -122 -326t-166 -439q-105 -277 -201 -531l-313 -87l189 484l-312 899h292z" />
    <glyph glyph-name="z" unicode="z" horiz-adv-x="912" 
d="M896 233q-70 -140 -115 -233h-767l417 713h-378l112 229h721l-414 -709h424z" />
    <glyph glyph-name="braceleft" unicode="{" horiz-adv-x="642" 
d="M192 935v259q0 243 183 286q84 21 220 23v-232q-75 -1 -99 -28t-24 -88v-220q0 -213 -166 -301q166 -99 166 -330v-197q0 -66 24 -90q21 -26 99 -27v-231q-260 4 -328 78q-75 76 -75 230v260q0 126 -42 165h1q-34 34 -102 39v203q84 4 114 53q29 50 29 148z" />
    <glyph glyph-name="bar" unicode="|" horiz-adv-x="390" 
d="M318 -531h-246v2086h246v-2086z" />
    <glyph glyph-name="braceright" unicode="}" horiz-adv-x="642" 
d="M449 327v-260q0 -243 -182 -286q-86 -20 -218 -22v231q76 2 99 27q24 25 24 90v197q0 232 166 330q-166 87 -166 301v220q0 90 -61 108q-24 7 -62 8v232q257 -4 328 -80q72 -75 72 -229v-259q0 -96 29 -148q34 -49 117 -53v-203q-63 -4 -105 -41q-41 -37 -41 -163z" />
    <glyph glyph-name="asciitilde" unicode="~" horiz-adv-x="990" 
d="M681 866q76 0 98 108h201q-18 -160 -96 -252t-199 -92q-85 0 -200 66h1q-43 25 -98 51q-32 12 -64 12q-90 0 -114 -116h-200q30 341 305 341q69 0 128 -26t110 -50l-1 1q89 -43 129 -43z" />
    <glyph glyph-name="nonbreakingspace" unicode="&#xa0;" horiz-adv-x="414" 
 />
    <glyph glyph-name="exclamdown" unicode="&#xa1;" horiz-adv-x="453" 
d="M374 -354q-79 -18 -151 -36t-150 -36l49 1065h211zM72 922q0 66 46 112t110 45t111 -47t47 -108t-48 -111q-48 -48 -111 -48t-110 47v-1q-45 45 -45 111z" />
    <glyph glyph-name="cent" unicode="&#xa2;" horiz-adv-x="899" 
d="M328 680q0 -121 63 -197t163 -76t198 63l114 -196q-125 -84 -319 -84h-25q-53 -258 -54 -262h-187l61 296q-141 56 -215 174t-74 283q0 220 124 353t360 140q13 64 27 131t28 132h189l-60 -282q86 -25 141 -64l-113 -194q-95 61 -197 61q-101 0 -163 -78
q-61 -79 -61 -200z" />
    <glyph glyph-name="sterling" unicode="&#xa3;" horiz-adv-x="1010" 
d="M83 516v244h109q-57 140 -57 236q0 178 116 290t322 112t399 -136q-29 -54 -57 -102t-57 -100q-130 99 -261 99t-169 -99q-12 -30 -11 -75q0 -45 53 -225h356q-39 -111 -85 -244h-222q0 -141 -64 -258q186 -31 249 -31q136 0 269 60l-49 -260q-113 -48 -211 -48
q-99 0 -227 25q-127 25 -213 26q-86 0 -193 -42v246q84 33 134 39q43 114 53 243h-184z" />
    <glyph glyph-name="currency" unicode="&#xa4;" horiz-adv-x="1232" 
d="M616 950q-89 0 -154 -55q-64 -58 -64 -160q0 -103 64 -161q67 -56 152 -56t152 56q65 57 65 161t-66 162v-2q-60 55 -149 55zM612 1176q108 0 214 -53l154 154l174 -176l-153 -153q59 -106 59 -218t-56 -212l150 -149l-174 -176l-149 150q-107 -58 -219 -58t-216 57
l-148 -147l-176 176l151 149q-54 102 -54 212t57 214l-153 154l173 175l154 -155q104 56 212 56z" />
    <glyph glyph-name="yen" unicode="&#xa5;" horiz-adv-x="1241" 
d="M1061 703v-193h-300v-137h300v-193h-300v-180h-299v180h-317v193h317v137h-317v193h251l-363 669h320l267 -518l268 518h321l-381 -669h233z" />
    <glyph glyph-name="brokenbar" unicode="&#xa6;" horiz-adv-x="390" 
d="M318 -508h-246v900h246v-900zM318 632h-246v900h246v-900z" />
    <glyph glyph-name="section" unicode="&#xa7;" horiz-adv-x="1042" 
d="M686 478q0 60 -43 101t-134 96q-92 55 -123 79q-49 -52 -49 -109q-1 -57 27 -91t90 -75q62 -40 167 -100l16 1q49 38 49 98zM666 -56q0 52 -46 94t-171 117q-246 151 -313 252q-62 103 -62 193q0 157 125 284q-108 124 -108 282t109 260t286 102q256 0 462 -117
l-135 -197q-146 87 -270 87q-125 1 -161 -79q-12 -24 -11 -55q0 -63 44 -107t184 -117t215 -127q164 -118 164 -300t-119 -295q111 -113 111 -255q0 -181 -123 -293t-330 -111q-207 0 -442 149l139 217q147 -105 317 -105q135 0 135 121z" />
    <glyph glyph-name="dieresis" unicode="&#xa8;" horiz-adv-x="624" 
d="M-55 1306q0 63 47 110t107 47t107 -47q47 -46 47 -110q1 -64 -45 -110t-108 -45q-62 0 -109 46q-46 46 -46 109zM527 1463q60 0 106 -47t46 -95q0 -80 -46 -126v1q-45 -45 -107 -45q-62 1 -108 47t-45 109q0 63 46 109v-1q48 48 108 48z" />
    <glyph glyph-name="copyright" unicode="&#xa9;" horiz-adv-x="1378" 
d="M432 382q-113 117 -113 303q1 186 115 301t270 115t256 -70q-31 -48 -88 -137q-65 54 -134 54q-68 0 -110 -18t-72 -54q-30 -34 -44 -83q-16 -49 -16 -110q0 -120 61 -192t151 -72q91 0 163 55l90 -136q-101 -69 -258 -69t-271 114v-1zM691 100q212 0 360 166t148 423
t-147 421t-361 164t-362 -164t-148 -422t148 -423q150 -165 362 -165zM691 1398q258 0 445 -202t187 -507q1 -207 -85 -369t-234 -255t-313 -93q-259 0 -447 204t-189 512q0 308 189 509t447 201z" />
    <glyph glyph-name="ordfeminine" unicode="&#xaa;" horiz-adv-x="716" 
d="M338 1065q66 -1 104 47t37 129q0 172 -141 172q-66 -1 -101 -47t-35 -126t35 -128q35 -47 101 -47zM310 939q-112 0 -191 81q-78 84 -78 220q1 136 83 218t201 81q119 0 180 -81l137 70v-395q0 -75 31 -125l-131 -67q-18 18 -46 80q-74 -82 -186 -82z" />
    <glyph glyph-name="guillemotleft" unicode="&#xab;" horiz-adv-x="1151" 
d="M72 477l259 332h266l-259 -332l259 -331h-266zM555 477q215 276 258 332h267l-260 -332l260 -331h-267z" />
    <glyph glyph-name="logicalnot" unicode="&#xac;" horiz-adv-x="1037" 
d="M886 426h-180v341h-554v181h734v-522z" />
    <glyph glyph-name="sfthyphen" unicode="&#xad;" horiz-adv-x="634" 
d="M585 391h-536v234h536v-234z" />
    <glyph glyph-name="registered" unicode="&#xae;" horiz-adv-x="1378" 
d="M564 708h51q128 0 166 33t38 97t-46 94q-48 26 -154 26h-55v-250zM564 581v-291h-158v793h213q197 1 275 -59t78 -181q0 -164 -181 -234l194 -319h-186l-157 291h-78zM691 100q212 0 360 166t148 423t-147 421t-361 164t-362 -164t-148 -422t148 -423q150 -165 362 -165z
M691 1398q258 0 445 -202t187 -507q1 -207 -85 -369t-234 -255t-313 -93q-259 0 -447 204t-189 512q0 308 189 509t447 201z" />
    <glyph glyph-name="glyph113" unicode="&#xaf;" horiz-adv-x="1140" 
d="M1150 1457h-1158v218h1158v-218z" />
    <glyph glyph-name="degree" unicode="&#xb0;" horiz-adv-x="786" 
d="M223 1052q-1 -70 49 -120t122 -49q72 -1 122 49t49 120q0 70 -50 121q-50 50 -121 50t-121 -50q-50 -51 -50 -121zM392 1398q142 0 243 -102t101 -243q0 -142 -101 -243t-243 -101t-242 101q-101 100 -101 242t100 244q101 102 243 102z" />
    <glyph glyph-name="plusminus" unicode="&#xb1;" horiz-adv-x="1021" 
d="M923 28h-825v214h825v-214zM923 666h-305v-307h-215v307h-305v215h305v305h215v-305h305v-215z" />
    <glyph glyph-name="twosuperior" unicode="&#xb2;" horiz-adv-x="690" 
d="M351 1418q272 0 272 -234q0 -122 -79 -228q-35 -48 -200 -234h270v-155h-546v74l274 326q94 113 94 196q0 94 -91 94t-175 -101q-24 29 -97 122q138 140 278 140z" />
    <glyph glyph-name="threesuperior" unicode="&#xb3;" horiz-adv-x="691" 
d="M361 1416q117 0 180 -57t63 -165t-91 -164l2 -28q77 -37 101 -123q8 -27 7 -55q-1 -133 -83 -201t-204 -68q-160 0 -268 139l103 115q74 -95 162 -95q107 0 107 110q0 68 -47 84t-147 18v137q95 1 138 18t43 86q0 90 -89 90q-82 0 -157 -84l-102 106q120 137 282 137z
" />
    <glyph glyph-name="acute" unicode="&#xb4;" horiz-adv-x="586" 
d="M70 1132q167 272 184 301h283l-272 -301h-195z" />
    <glyph glyph-name="mu1" unicode="&#xb5;" horiz-adv-x="991" 
d="M70 942h278v-592q0 -67 23 -96t73 -29q90 0 134 65t44 177v475h278v-645q0 -84 10 -119q10 -34 38 -85l-202 -111q-85 77 -111 178q-107 -170 -287 -182v-317l-278 -82v1363z" />
    <glyph glyph-name="paragraph" unicode="&#xb6;" horiz-adv-x="1136" 
d="M1088 1213h-101v-1564h-183v1564h-164v-1564h-183v836q-201 16 -305 136q-105 121 -105 313t117 315q118 123 318 123h606v-159z" />
    <glyph glyph-name="glyph121" unicode="&#xb7;" horiz-adv-x="436" 
d="M214 857q68 1 118 -49t50 -118t-50 -118t-118 -49q-68 -1 -118 49t-49 118q-1 68 49 118t118 49z" />
    <glyph glyph-name="cedilla" unicode="&#xb8;" horiz-adv-x="612" 
d="M565 -270q1 -88 -79 -144t-192 -56t-251 59l51 107q103 -40 177 -40q104 0 104 79q0 69 -96 69q-54 0 -97 -16l-70 50l142 171h135l-80 -111q46 12 74 12q73 0 127 -46q55 -47 55 -134z" />
    <glyph glyph-name="onesuperior" unicode="&#xb9;" horiz-adv-x="501" 
d="M364 567h-189v530l-107 -93v199l203 213h93v-849z" />
    <glyph glyph-name="ordmasculine" unicode="&#xba;" horiz-adv-x="701" 
d="M491 1240q-1 80 -37 127q-36 46 -105 46q-103 0 -137 -102q-10 -33 -10 -71q0 -78 40 -126q40 -49 107 -49q67 -1 105 47t37 128zM348 939q-132 -1 -220 83t-87 218q0 134 87 217q88 82 222 82q134 -1 221 -83t87 -218t-88 -218q-90 -81 -222 -81z" />
    <glyph glyph-name="guillemotright" unicode="&#xbb;" horiz-adv-x="1150" 
d="M820 146h-266l259 331l-259 332h266l259 -332zM338 146h-266l259 331l-259 332h266l258 -332z" />
    <glyph glyph-name="onequarter" unicode="&#xbc;" horiz-adv-x="1483" 
d="M1154 288v222l-25 6l-128 -228h153zM1416 144h-75v-144h-187v144h-319v110l384 599h122v-565h75v-144zM364 541h-189v532l-107 -90v199l203 212h93v-853zM233 -28l757 1426h212l-755 -1426h-214z" />
    <glyph glyph-name="onehalf" unicode="&#xbd;" horiz-adv-x="1610" 
d="M1266 690q-90 0 -176 -101l-99 123q135 139 292 139q127 0 193 -60t67 -179q-1 -119 -113 -261q-62 -78 -167 -196h271v-155h-547v74l275 326q94 110 94 200t-90 90zM364 541h-189v532l-107 -90v199l203 212h93v-853zM233 -28l757 1426h212l-755 -1426h-214z" />
    <glyph glyph-name="threequarters" unicode="&#xbe;" horiz-adv-x="1653" 
d="M1324 288v222l-25 6l-125 -228h150zM1513 853v-565h73v-144h-73v-144h-189v144h-317v110l383 599h123zM407 -28l757 1426h212l-755 -1426h-214zM362 1416q118 0 180 -57t62 -165t-90 -164l2 -28q76 -36 100 -123q8 -27 7 -55q1 -133 -81 -201t-206 -68q-159 0 -268 139
l104 115q73 -95 162 -95q106 0 106 110q0 70 -46 85t-148 17v137q94 1 138 19t44 85q0 90 -90 90q-81 0 -157 -84l-101 106q118 137 282 137z" />
    <glyph glyph-name="questiondown" unicode="&#xbf;" horiz-adv-x="923" 
d="M482 -385q-205 0 -322 111t-117 289q-1 177 113 293t336 156v127l265 88v-375q-432 -24 -432 -269q0 -183 185 -183q135 0 260 94l112 -203q-195 -128 -400 -128zM469 922q0 66 45 112t110 45q66 1 112 -45t46 -110t-48 -111q-48 -48 -110 -48t-110 47v-1q-45 45 -45 111
z" />
    <glyph glyph-name="Agrave" unicode="&#xc0;" horiz-adv-x="1276" 
d="M780 455l-149 412l-149 -412h298zM12 0q511 1298 541 1374h168l541 -1374h-315l-86 228h-462l-83 -228h-304zM777 1474h-195l-271 301h282z" />
    <glyph glyph-name="Aacute" unicode="&#xc1;" horiz-adv-x="1276" 
d="M780 455l-149 412l-149 -412h298zM12 0q511 1298 541 1374h168l541 -1374h-315l-86 228h-462l-83 -228h-304zM498 1474q167 272 184 301h283l-272 -301h-195z" />
    <glyph glyph-name="Acircumflex" unicode="&#xc2;" horiz-adv-x="1276" 
d="M780 455l-149 412l-149 -412h298zM12 0q511 1298 541 1374h168l541 -1374h-315l-86 228h-462l-83 -228h-304zM956 1474h-207l-128 199l-127 -199h-204l195 326h274z" />
    <glyph glyph-name="Atilde" unicode="&#xc3;" horiz-adv-x="1276" 
d="M780 455l-149 412l-149 -412h298zM12 0q511 1298 541 1374h168l541 -1374h-315l-86 228h-462l-83 -228h-304zM502 1572q-74 0 -95 -95h-166q11 140 76 212t176 72q46 0 82 -13t106 -47q71 -33 105 -33q63 0 81 87h167q-18 -206 -151 -266q-41 -19 -101 -19t-155 51
q-94 51 -125 51z" />
    <glyph glyph-name="Adieresis" unicode="&#xc4;" horiz-adv-x="1276" 
d="M780 455l-149 412l-149 -412h298zM12 0q511 1298 541 1374h168l541 -1374h-315l-86 228h-462l-83 -228h-304zM272 1636q0 63 47 110t107 47t107 -47q47 -46 47 -110t-46 -110t-108 -45q-62 0 -108 46t-46 109zM854 1793q60 0 106 -47t46 -95q0 -80 -46 -126v1
q-45 -45 -107 -45q-61 1 -107 47t-46 109t46 109v-1q48 48 108 48z" />
    <glyph glyph-name="Aring" unicode="&#xc5;" horiz-adv-x="1276" 
d="M780 455l-149 412l-149 -412h298zM12 0q511 1298 541 1374h168l541 -1374h-315l-86 228h-462l-83 -228h-304zM630 1602q45 0 77 34t32 64q-1 32 -9 52t-23 35t-35 23t-42 9q-46 -1 -78 -33t-32 -76t32 -76t78 -32zM630 1949q99 0 169 -70q70 -69 70 -169t-71 -169
q-66 -69 -166 -69t-171 70q-70 70 -70 168q0 100 70 170h-1q71 69 170 69z" />
    <glyph glyph-name="AE" unicode="&#xc6;" horiz-adv-x="1706" 
d="M835 455v477l-276 -477h276zM1134 1115v-276h377v-269h-377v-303h412l136 -267h-847v228h-407l-131 -228h-285q382 661 789 1358h858l-127 -243h-398z" />
    <glyph glyph-name="Ccedilla" unicode="&#xc7;" horiz-adv-x="1158" 
d="M939 -266q0 -86 -77 -143q-78 -56 -192 -56q-115 0 -247 57l51 107q104 -40 175 -40q103 0 103 78q0 69 -95 69q-53 0 -96 -16l-70 49l122 148q-274 53 -416 241t-142 452q0 310 189 504t481 194q241 0 407 -123l-156 -238q-108 93 -262 93t-254 -118t-100 -313
q0 -196 99 -314t251 -118t266 95l156 -238q-163 -120 -388 -124l-55 -81q43 12 56 12q87 1 141 -45t53 -132z" />
    <glyph glyph-name="Egrave" unicode="&#xc8;" horiz-adv-x="972" 
d="M400 1115v-276h378v-269h-378v-303h410l138 -267h-848v1358h823l-125 -243h-398zM626 1474h-195l-271 301h282z" />
    <glyph glyph-name="Eacute" unicode="&#xc9;" horiz-adv-x="972" 
d="M400 1115v-276h378v-269h-378v-303h410l138 -267h-848v1358h823l-125 -243h-398zM395 1474q167 272 184 301h283l-272 -301h-195z" />
    <glyph glyph-name="Ecircumflex" unicode="&#xca;" horiz-adv-x="972" 
d="M400 1115v-276h378v-269h-378v-303h410l138 -267h-848v1358h823l-125 -243h-398zM832 1476h-207l-128 199l-127 -199h-204l195 326h274z" />
    <glyph glyph-name="Edieresis" unicode="&#xcb;" horiz-adv-x="972" 
d="M400 1115v-276h378v-269h-378v-303h410l138 -267h-848v1358h823l-125 -243h-398zM154 1629q0 63 47 110t107 47t107 -47t47 -111t-46 -108q-46 -46 -108 -46t-108 46t-46 109zM736 1786q60 0 106 -47t46 -95q0 -80 -46 -126v1q-45 -45 -107 -45q-61 0 -107 46t-46 110
q0 63 46 109v-1q48 48 108 48z" />
    <glyph glyph-name="Igrave" unicode="&#xcc;" horiz-adv-x="506" 
d="M408 0h-300v1358h300v-1358zM414 1476h-195l-271 301h282z" />
    <glyph glyph-name="Iacute" unicode="&#xcd;" horiz-adv-x="506" 
d="M405 0h-300v1358h300v-1358zM132 1476q167 272 184 301h283l-272 -301h-195z" />
    <glyph glyph-name="Icircumflex" unicode="&#xce;" horiz-adv-x="506" 
d="M407 0h-300v1358h300v-1358zM587 1476h-207l-128 199l-127 -199h-204l195 326h274z" />
    <glyph glyph-name="Idieresis" unicode="&#xcf;" horiz-adv-x="506" 
d="M395 0h-300v1358h300v-1358zM-113 1629q0 63 47 110t107 47t107 -47t47 -111q1 -64 -45 -108q-46 -46 -108 -46t-109 46q-46 46 -46 109zM469 1786q60 0 106 -47t46 -95q0 -80 -46 -126v1q-45 -45 -107 -45t-108 46t-45 110q0 63 46 109v-1q48 48 108 48z" />
    <glyph glyph-name="Eth" unicode="&#xd0;" horiz-adv-x="1191" 
d="M404 267h49q411 0 411 425q0 195 -106 296t-303 101h-51v-296h154v-228h-154v-298zM103 1356h332q353 0 543 -170t190 -500q0 -329 -202 -509q-203 -179 -531 -179h-332v567h-121v228h121v563z" />
    <glyph glyph-name="Ntilde" unicode="&#xd1;" horiz-adv-x="1266" 
d="M1165 -4h-154l-622 756v-752h-289v1360h157l621 -750v748h287v-1362zM537 1594q-74 0 -95 -95h-166q11 140 76 212t176 72q46 0 82 -13t106 -47q71 -33 105 -33q63 0 81 87h167q-18 -206 -151 -266q-42 -19 -102 -19t-154 51t-125 51z" />
    <glyph glyph-name="Ograve" unicode="&#xd2;" 
d="M359 681q1 -194 101 -310t256 -116t256 117q101 118 101 310t-101 308q-102 115 -258 115t-255 -115q-100 -115 -100 -309zM55 684q-1 314 193 504t470 190t467 -194q190 -194 190 -504t-190 -505q-191 -195 -469 -195t-470 195v-1q-191 197 -191 510zM857 1474h-195
l-271 301h282z" />
    <glyph glyph-name="Oacute" unicode="&#xd3;" 
d="M359 681q1 -194 101 -310t256 -116t256 117q101 118 101 310t-101 308q-102 115 -258 115t-255 -115q-100 -115 -100 -309zM55 684q-1 314 193 504t470 190t467 -194q190 -194 190 -504t-190 -505q-191 -195 -469 -195t-470 195v-1q-191 197 -191 510zM569 1474
q167 272 184 301h283l-272 -301h-195z" />
    <glyph glyph-name="Ocircumflex" unicode="&#xd4;" 
d="M359 681q1 -194 101 -310t256 -116t256 117q101 118 101 310t-101 308q-102 115 -258 115t-255 -115q-100 -115 -100 -309zM55 684q-1 314 193 504t470 190t467 -194q190 -194 190 -504t-190 -505q-191 -195 -469 -195t-470 195v-1q-191 197 -191 510zM1035 1474h-207
l-128 199l-127 -199h-204l195 326h274z" />
    <glyph glyph-name="Otilde" unicode="&#xd5;" 
d="M359 681q1 -194 101 -310t256 -116t256 117q101 118 101 310t-101 308q-102 115 -258 115t-255 -115q-100 -115 -100 -309zM55 684q-1 314 193 504t470 190t467 -194q190 -194 190 -504t-190 -505q-191 -195 -469 -195t-470 195v-1q-191 197 -191 510zM580 1572
q-74 0 -95 -95h-166q11 140 76 212t176 72q46 0 82 -13t106 -47q71 -33 105 -33q63 0 81 87h167q-18 -206 -151 -266q-41 -19 -101 -19t-155 51q-94 51 -125 51z" />
    <glyph glyph-name="Odieresis" unicode="&#xd6;" 
d="M359 681q1 -194 101 -310t256 -116t256 117q101 118 101 310t-101 308q-102 115 -258 115t-255 -115q-100 -115 -100 -309zM55 684q-1 314 193 504t470 190t467 -194q190 -194 190 -504t-190 -505q-191 -195 -469 -195t-470 195v-1q-191 197 -191 510zM346 1632
q0 63 47 110t107 47t107 -47q47 -46 47 -110t-46 -110t-108 -45q-62 0 -108 46t-46 109zM928 1789q60 0 106 -47t46 -95q0 -80 -46 -126v1q-45 -45 -107 -45q-61 1 -107 47t-46 109t46 109v-1q48 48 108 48z" />
    <glyph glyph-name="multiply" unicode="&#xd7;" horiz-adv-x="869" 
d="M56 900l154 156l222 -225l224 227l151 -155l-222 -224l222 -222l-153 -153l-222 222l-222 -224l-155 155l224 222z" />
    <glyph glyph-name="Oslash" unicode="&#xd8;" 
d="M1073 682q0 106 -49 225l-459 -616q78 -36 151 -36q155 0 256 117t101 310zM708 1105q-150 0 -249 -115q-100 -115 -100 -308q0 -115 50 -230l456 616q-87 37 -157 37zM716 1378q162 0 320 -80l48 60h276l-150 -201q165 -199 165 -493t-190 -489t-469 -195
q-169 0 -323 80l-45 -60h-279l151 201q-165 201 -165 499q-1 298 193 488t468 190z" />
    <glyph glyph-name="Ugrave" unicode="&#xd9;" horiz-adv-x="1231" 
d="M1133 592q-1 -300 -133 -456t-384 -156t-384 156t-132 456v766h298v-766q0 -174 48 -260t168 -85t172 79q51 78 51 268v764h296v-766zM745 1474h-195l-271 301h282z" />
    <glyph glyph-name="Uacute" unicode="&#xda;" horiz-adv-x="1231" 
d="M1133 592q-1 -300 -133 -456t-384 -156t-384 156t-132 456v766h298v-766q0 -174 48 -260t168 -85t172 79q51 78 51 268v764h296v-766zM494 1474q167 272 184 301h283l-272 -301h-195z" />
    <glyph glyph-name="Ucircumflex" unicode="&#xdb;" horiz-adv-x="1231" 
d="M1133 592q-1 -300 -133 -456t-384 -156t-384 156t-132 456v766h298v-766q0 -174 48 -260t168 -85t172 79q51 78 51 268v764h296v-766zM941 1474h-207l-128 199l-127 -199h-204l195 326h274z" />
    <glyph glyph-name="Udieresis" unicode="&#xdc;" horiz-adv-x="1231" 
d="M1133 592q-1 -300 -133 -456t-384 -156t-384 156t-132 456v766h298v-766q0 -174 48 -260t168 -85t172 79q51 78 51 268v764h296v-766zM253 1634q0 63 47 110t107 47t107 -47q47 -46 47 -110q1 -64 -45 -110t-108 -45q-62 0 -109 46q-46 46 -46 109zM835 1791
q60 0 106 -47t46 -95q0 -80 -46 -126v1q-45 -45 -107 -45q-62 1 -108 47t-45 109q0 63 46 109v-1q48 48 108 48z" />
    <glyph glyph-name="Yacute" unicode="&#xdd;" horiz-adv-x="1214" 
d="M746 0h-295v576l-426 782h317l264 -512l265 512h318l-443 -776v-582zM486 1474q167 272 184 301h283l-272 -301h-195z" />
    <glyph glyph-name="Thorn" unicode="&#xde;" horiz-adv-x="1011" 
d="M400 485h32q182 -1 217 113q12 38 12 92q0 118 -59 162q-61 42 -168 42h-34v-409zM400 1132h41q525 0 525 -442q0 -220 -134 -332t-391 -111h-41v-247h-300v1358h300v-226z" />
    <glyph glyph-name="germandbls" unicode="&#xdf;" horiz-adv-x="1135" 
d="M1079 439q-1 -209 -121 -336t-297 -127q-129 0 -238 75l122 195q52 -23 93 -23q76 0 120 58t44 158q0 134 -83 189t-288 58q25 55 49 101t50 100q183 6 183 191q-1 130 -107 169q-32 12 -72 12q-83 0 -133 -57q-51 -57 -51 -152v-1050h-278v996q0 390 282 497
q92 35 214 35q197 0 311 -114t114 -290t-130 -288l3 -25q213 -117 213 -372z" />
    <glyph glyph-name="agrave" unicode="&#xe0;" horiz-adv-x="1125" 
d="M536 195q100 0 156 75q57 75 57 203q0 198 -120 255q-40 19 -94 19q-97 1 -151 -75t-55 -199q0 -195 119 -258q38 -20 88 -20zM516 -21q-195 0 -333 134q-130 138 -130 361q0 222 134 356t348 134q169 0 271 -129l221 114v-652q0 -89 13 -128t34 -76l-217 -111
q-42 36 -71 123q-114 -126 -270 -126zM652 1132h-195l-271 301h282z" />
    <glyph glyph-name="aacute" unicode="&#xe1;" horiz-adv-x="1125" 
d="M536 195q100 0 156 75q57 75 57 203q0 198 -120 255q-40 19 -94 19q-97 1 -151 -75t-55 -199q0 -195 119 -258q38 -20 88 -20zM516 -21q-195 0 -333 134q-130 138 -130 361q0 222 134 356t348 134q169 0 271 -129l221 114v-652q0 -89 13 -128t34 -76l-217 -111
q-42 36 -71 123q-114 -126 -270 -126zM415 1132q167 272 184 301h283l-272 -301h-195z" />
    <glyph glyph-name="acircumflex" unicode="&#xe2;" horiz-adv-x="1125" 
d="M536 195q100 0 156 75q57 75 57 203q0 198 -120 255q-40 19 -94 19q-97 1 -151 -75t-55 -199q0 -195 119 -258q38 -20 88 -20zM516 -21q-195 0 -333 134q-130 138 -130 361q0 222 134 356t348 134q169 0 271 -129l221 114v-652q0 -89 13 -128t34 -76l-217 -111
q-42 36 -71 123q-114 -126 -270 -126zM868 1132h-207l-128 199l-127 -199h-204l195 326h274z" />
    <glyph glyph-name="atilde" unicode="&#xe3;" horiz-adv-x="1125" 
d="M536 195q100 0 156 75q57 75 57 203q0 198 -120 255q-40 19 -94 19q-97 1 -151 -75t-55 -199q0 -195 119 -258q38 -20 88 -20zM516 -21q-195 0 -333 134q-130 138 -130 361q0 222 134 356t348 134q169 0 271 -129l221 114v-652q0 -89 13 -128t34 -76l-217 -111
q-42 36 -71 123q-114 -126 -270 -126zM431 1248q-74 0 -95 -95h-166q11 140 76 212t176 72q46 0 82 -13t106 -47q71 -33 105 -33q63 0 81 87h167q-18 -206 -151 -266q-42 -19 -102 -19t-154 51t-125 51z" />
    <glyph glyph-name="adieresis" unicode="&#xe4;" horiz-adv-x="1125" 
d="M536 195q100 0 156 75q57 75 57 203q0 198 -120 255q-40 19 -94 19q-97 1 -151 -75t-55 -199q0 -195 119 -258q38 -20 88 -20zM516 -21q-195 0 -333 134q-130 138 -130 361q0 222 134 356t348 134q169 0 271 -129l221 114v-652q0 -89 13 -128t34 -76l-217 -111
q-42 36 -71 123q-114 -126 -270 -126zM189 1306q0 63 47 110t107 47t107 -47q47 -46 47 -110q1 -64 -45 -110t-108 -45q-62 0 -109 46q-46 46 -46 109zM771 1463q60 0 106 -47t46 -95q0 -80 -46 -126v1q-45 -45 -107 -45q-62 1 -108 47t-45 109q0 63 46 109v-1q48 48 108 48
z" />
    <glyph glyph-name="aring" unicode="&#xe5;" horiz-adv-x="1125" 
d="M536 195q100 0 156 75q57 75 57 203q0 198 -120 255q-40 19 -94 19q-97 1 -151 -75t-55 -199q0 -195 119 -258q38 -20 88 -20zM516 -21q-195 0 -333 134q-130 138 -130 361q0 222 134 356t348 134q169 0 271 -129l221 114v-652q0 -89 13 -128t34 -76l-217 -111
q-42 36 -71 123q-114 -126 -270 -126zM546 1253q45 -1 77 33t32 66q-1 32 -9 51q-8 20 -23 35q-15 16 -35 24t-42 8q-46 0 -78 -32t-32 -76t32 -76t78 -33zM546 1600q99 0 169 -70t70 -170t-71 -168q-66 -69 -166 -69q-100 -1 -171 69q-70 70 -70 170t70 169h-1
q71 69 170 69z" />
    <glyph glyph-name="ae" unicode="&#xe6;" horiz-adv-x="1789" 
d="M546 747q-110 0 -164 -76t-54 -198q0 -196 120 -258q38 -20 87 -20q131 0 230 111v311q-109 130 -219 130zM1251 749q-133 1 -197 -139q-20 -44 -28 -101l430 96q-71 144 -205 144zM1240 -21q-220 0 -364 172q-160 -172 -357 -172t-336 134q-130 136 -130 360
q0 223 134 357t348 134q158 0 290 -155v80q53 18 101 35t101 34v-47q124 53 225 53q206 0 340 -120t152 -342l-699 -151q62 -156 205 -156t290 93q81 -150 105 -192q-185 -117 -405 -117z" />
    <glyph glyph-name="ccedilla" unicode="&#xe7;" horiz-adv-x="897" 
d="M560 -90q72 0 127 -46t55 -136t-83 -144t-191 -54t-248 59l51 107q99 -40 177 -40q105 0 105 79q0 69 -96 69q-55 0 -99 -16q-11 8 -69 50l126 154q-188 49 -276 170q-86 125 -86 307q-1 229 133 362t348 133t328 -85l-113 -194q-97 62 -197 62q-100 -1 -162 -79
t-62 -198t62 -198q62 -77 163 -77q102 0 199 63l112 -194q-115 -81 -321 -85l-56 -81q45 12 73 12z" />
    <glyph glyph-name="egrave" unicode="&#xe8;" horiz-adv-x="1093" 
d="M555 749q-131 -1 -197 -139q-21 -44 -30 -101l431 96q-73 144 -204 144zM554 -21q-210 1 -356 137t-145 360t149 356t353 132t340 -121t153 -341l-698 -151q55 -156 202 -156t293 92q78 -138 106 -189q-187 -119 -397 -119zM679 1132h-195l-271 301h282z" />
    <glyph glyph-name="eacute" unicode="&#xe9;" horiz-adv-x="1093" 
d="M555 749q-131 -1 -197 -139q-21 -44 -30 -101l431 96q-73 144 -204 144zM554 -21q-210 1 -356 137t-145 360t149 356t353 132t340 -121t153 -341l-698 -151q55 -156 202 -156t293 92q78 -138 106 -189q-187 -119 -397 -119zM438 1132q167 272 184 301h283l-272 -301h-195
z" />
    <glyph glyph-name="ecircumflex" unicode="&#xea;" horiz-adv-x="1093" 
d="M555 749q-131 -1 -197 -139q-21 -44 -30 -101l431 96q-73 144 -204 144zM554 -21q-210 1 -356 137t-145 360t149 356t353 132t340 -121t153 -341l-698 -151q55 -156 202 -156t293 92q78 -138 106 -189q-187 -119 -397 -119zM863 1132h-207l-128 199l-127 -199h-204
l195 326h274z" />
    <glyph glyph-name="edieresis" unicode="&#xeb;" horiz-adv-x="1093" 
d="M555 749q-131 -1 -197 -139q-21 -44 -30 -101l431 96q-73 144 -204 144zM554 -21q-210 1 -356 137t-145 360t149 356t353 132t340 -121t153 -341l-698 -151q55 -156 202 -156t293 92q78 -138 106 -189q-187 -119 -397 -119zM177 1306q0 63 47 110t107 47t107 -47
q47 -46 47 -110q1 -64 -45 -110t-108 -45q-62 0 -109 46q-46 46 -46 109zM759 1463q60 0 106 -47t46 -95q0 -80 -46 -126v1q-45 -45 -107 -45q-62 1 -108 47t-45 109q0 63 46 109v-1q48 48 108 48z" />
    <glyph glyph-name="igrave" unicode="&#xec;" horiz-adv-x="457" 
d="M371 0h-275v855l275 102v-957zM371 1132h-195l-271 301h282z" />
    <glyph glyph-name="iacute" unicode="&#xed;" horiz-adv-x="457" 
d="M367 0h-275v855l275 102v-957zM96 1132q167 272 184 301h283l-272 -301h-195z" />
    <glyph glyph-name="icircumflex" unicode="&#xee;" horiz-adv-x="457" 
d="M377 0h-275v855l275 102v-957zM563 1132h-207l-128 199l-127 -199h-204l195 326h274z" />
    <glyph glyph-name="idieresis" unicode="&#xef;" horiz-adv-x="457" 
d="M359 0h-275v855l275 102v-957zM-137 1306q0 63 47 110t107 47t107 -47q47 -46 47 -110q1 -64 -45 -110t-108 -45q-62 0 -109 46q-46 46 -46 109zM445 1463q60 0 106 -47t46 -95q0 -80 -46 -126v1q-45 -45 -107 -45q-62 1 -108 47t-45 109q0 63 46 109v-1q48 48 108 48z
" />
    <glyph glyph-name="eth" unicode="&#xf0;" horiz-adv-x="1112" 
d="M556 747q-105 0 -166 -75q-61 -74 -61 -198q1 -124 61 -202t165 -77q105 -1 165 77t61 201q-1 193 -131 255q-42 20 -94 19zM1057 473q0 -212 -142 -358q-149 -136 -361 -136t-358 138q-143 137 -143 355t143 355t360 137q48 0 111 -14q-66 112 -122 175l-153 -95
l-115 129l129 80q-66 55 -154 107q83 120 106 156q119 -45 253 -133q12 8 134 84q31 -36 57 -65t58 -65l-107 -66q304 -316 304 -784z" />
    <glyph glyph-name="ntilde" unicode="&#xf1;" horiz-adv-x="971" 
d="M338 787q124 177 304 177q129 0 194 -87t65 -281v-596h-278v592q1 71 -25 98t-73 27q-86 0 -130 -65q-45 -65 -45 -177v-475h-278v860q72 26 134 48t132 48v-169zM365 1248q-74 0 -95 -95h-166q11 140 76 212t176 72q46 0 82 -13t106 -47q71 -33 105 -33q63 0 81 87h167
q-18 -206 -151 -266q-42 -19 -102 -19t-154 51t-125 51z" />
    <glyph glyph-name="ograve" unicode="&#xf2;" horiz-adv-x="1112" 
d="M556 747q-105 0 -166 -75q-61 -74 -61 -198q1 -124 61 -202t165 -77q105 -1 165 77t61 201q-1 193 -131 255q-42 20 -94 19zM556 964q217 0 359 -136t142 -351q0 -216 -142 -362q-149 -136 -361 -136t-358 138q-143 137 -143 355t143 355t360 137zM716 1132h-195
l-271 301h282z" />
    <glyph glyph-name="oacute" unicode="&#xf3;" horiz-adv-x="1112" 
d="M556 747q-105 0 -166 -75q-61 -74 -61 -198q1 -124 61 -202t165 -77q105 -1 165 77t61 201q-1 193 -131 255q-42 20 -94 19zM556 964q217 0 359 -136t142 -351q0 -216 -142 -362q-149 -136 -361 -136t-358 138q-143 137 -143 355t143 355t360 137zM419 1132
q167 272 184 301h283l-272 -301h-195z" />
    <glyph glyph-name="ocircumflex" unicode="&#xf4;" horiz-adv-x="1112" 
d="M556 747q-105 0 -166 -75q-61 -74 -61 -198q1 -124 61 -202t165 -77q105 -1 165 77t61 201q-1 193 -131 255q-42 20 -94 19zM556 964q217 0 359 -136t142 -351q0 -216 -142 -362q-149 -136 -361 -136t-358 138q-143 137 -143 355t143 355t360 137zM874 1132h-207
l-128 199l-127 -199h-204l195 326h274z" />
    <glyph glyph-name="otilde" unicode="&#xf5;" horiz-adv-x="1112" 
d="M556 747q-105 0 -166 -75q-61 -74 -61 -198q1 -124 61 -202t165 -77q105 -1 165 77t61 201q-1 193 -131 255q-42 20 -94 19zM556 964q217 0 359 -136t142 -351q0 -216 -142 -362q-149 -136 -361 -136t-358 138q-143 137 -143 355t143 355t360 137zM421 1248
q-74 0 -95 -95h-166q11 140 76 212t176 72q46 0 82 -13t106 -47q71 -33 105 -33q63 0 81 87h167q-18 -206 -151 -266q-42 -19 -102 -19t-154 51t-125 51z" />
    <glyph glyph-name="odieresis" unicode="&#xf6;" horiz-adv-x="1112" 
d="M556 747q-105 0 -166 -75q-61 -74 -61 -198q1 -124 61 -202t165 -77q105 -1 165 77t61 201q-1 193 -131 255q-42 20 -94 19zM556 964q217 0 359 -136t142 -351q0 -216 -142 -362q-149 -136 -361 -136t-358 138q-143 137 -143 355t143 355t360 137zM185 1306q0 63 47 110
t107 47t107 -47q47 -46 47 -110q1 -64 -45 -110t-108 -45q-62 0 -109 46q-46 46 -46 109zM767 1463q60 0 106 -47t46 -95q0 -80 -46 -126v1q-45 -45 -107 -45q-62 1 -108 47t-45 109q0 63 46 109v-1q48 48 108 48z" />
    <glyph glyph-name="divide" unicode="&#xf7;" horiz-adv-x="1020" 
d="M511 129q-65 0 -114 49t-49 114t48 113t115 48t115 -47q48 -48 49 -114q0 -66 -49 -115h1q-51 -48 -116 -48zM920 573h-822v215h822v-215zM512 1253q66 0 114 -49q49 -49 49 -114q1 -64 -49 -114t-115 -50t-114 50t-49 114t49 114q49 49 115 49z" />
    <glyph glyph-name="oslash" unicode="&#xf8;" horiz-adv-x="1088" 
d="M546 195q104 -1 164 77t61 201q0 50 -23 123l-308 -373q61 -28 106 -28zM546 747q-105 0 -166 -75t-61 -199q0 -46 18 -121l305 374q-54 21 -96 21zM921 812q126 -146 126 -348t-142 -349q-149 -136 -359 -136q-126 0 -254 61l-32 -40h-211l113 139q-119 139 -119 345
t143 343t360 137q124 0 243 -58l46 56h210z" />
    <glyph glyph-name="ugrave" unicode="&#xf9;" horiz-adv-x="991" 
d="M346 -21q-145 0 -211 83q-65 86 -65 284v596h278v-592q0 -67 23 -96t73 -29q90 0 134 65t44 177v475h278v-645q0 -84 10 -119q10 -34 38 -85l-202 -111q-85 77 -111 178q-114 -181 -289 -181zM630 1132h-195l-271 301h282z" />
    <glyph glyph-name="uacute" unicode="&#xfa;" horiz-adv-x="991" 
d="M346 -21q-145 0 -211 83q-65 86 -65 284v596h278v-592q0 -67 23 -96t73 -29q90 0 134 65t44 177v475h278v-645q0 -84 10 -119q10 -34 38 -85l-202 -111q-85 77 -111 178q-114 -181 -289 -181zM357 1132q167 272 184 301h283l-272 -301h-195z" />
    <glyph glyph-name="ucircumflex" unicode="&#xfb;" horiz-adv-x="991" 
d="M346 -21q-145 0 -211 83q-65 86 -65 284v596h278v-592q0 -67 23 -96t73 -29q90 0 134 65t44 177v475h278v-645q0 -84 10 -119q10 -34 38 -85l-202 -111q-85 77 -111 178q-114 -181 -289 -181zM804 1132h-207l-128 199l-127 -199h-204l195 326h274z" />
    <glyph glyph-name="udieresis" unicode="&#xfc;" horiz-adv-x="991" 
d="M346 -21q-145 0 -211 83q-65 86 -65 284v596h278v-592q0 -67 23 -96t73 -29q90 0 134 65t44 177v475h278v-645q0 -84 10 -119q10 -34 38 -85l-202 -111q-85 77 -111 178q-114 -181 -289 -181zM127 1306q0 63 47 110t107 47t107 -47q47 -46 47 -110q1 -64 -45 -110
t-108 -45q-62 0 -109 46q-46 46 -46 109zM709 1463q60 0 106 -47t46 -95q0 -80 -46 -126v1q-45 -45 -107 -45q-62 1 -108 47t-45 109q0 63 46 109v-1q48 48 108 48z" />
    <glyph glyph-name="yacute" unicode="&#xfd;" horiz-adv-x="970" 
d="M463 350l212 592h273q-62 -164 -122 -326t-166 -439q-105 -277 -201 -531l-313 -87l189 484l-312 899h292zM362 1132q167 272 184 301h283l-272 -301h-195z" />
    <glyph glyph-name="thorn" unicode="&#xfe;" horiz-adv-x="1103" 
d="M563 195q101 1 156 79t55 199q0 195 -121 255q-39 20 -90 19q-106 0 -161 -70t-55 -204q0 -195 126 -258q40 -20 90 -20zM610 964q186 0 312 -138t126 -356q0 -219 -130 -357q-138 -134 -333 -134q-128 0 -235 86v-404l-278 -82v1845l278 83v-619q118 76 260 76z" />
    <glyph glyph-name="ydieresis" unicode="&#xff;" horiz-adv-x="970" 
d="M463 350l212 592h273q-62 -164 -122 -326t-166 -439q-105 -277 -201 -531l-313 -87l189 484l-312 899h292zM119 1306q0 63 47 110t107 47t107 -47q47 -46 47 -110q1 -64 -45 -110t-108 -45q-62 0 -109 46q-46 46 -46 109zM701 1463q60 0 106 -47t46 -95q0 -80 -46 -126v1
q-45 -45 -107 -45q-62 1 -108 47t-45 109q0 63 46 109v-1q48 48 108 48z" />
    <glyph glyph-name="Amacron" unicode="&#x100;" horiz-adv-x="1276" 
d="M780 455l-149 412l-149 -412h298zM12 0q511 1298 541 1374h168l541 -1374h-315l-86 228h-462l-83 -228h-304zM960 1507h-650v199h650v-199z" />
    <glyph glyph-name="amacron" unicode="&#x101;" horiz-adv-x="1125" 
d="M536 195q100 0 156 75q57 75 57 203q0 198 -120 255q-40 19 -94 19q-97 1 -151 -75t-55 -199q0 -195 119 -258q38 -20 88 -20zM516 -21q-195 0 -333 134q-130 138 -130 361q0 222 134 356t348 134q169 0 271 -129l221 114v-652q0 -89 13 -128t34 -76l-217 -111
q-42 36 -71 123q-114 -126 -270 -126zM886 1185h-650v199h650v-199z" />
    <glyph glyph-name="Abreve" unicode="&#x102;" horiz-adv-x="1276" 
d="M780 455l-149 412l-149 -412h298zM12 0q511 1298 541 1374h168l541 -1374h-315l-86 228h-462l-83 -228h-304zM635 1657q109 0 126 124h201q-18 -147 -102 -227t-224 -80t-224 80q-83 80 -100 227h200q21 -124 123 -124z" />
    <glyph glyph-name="abreve" unicode="&#x103;" horiz-adv-x="1125" 
d="M536 195q100 0 156 75q57 75 57 203q0 198 -120 255q-40 19 -94 19q-97 1 -151 -75t-55 -199q0 -195 119 -258q38 -20 88 -20zM516 -21q-195 0 -333 134q-130 138 -130 361q0 222 134 356t348 134q169 0 271 -129l221 114v-652q0 -89 13 -128t34 -76l-217 -111
q-42 36 -71 123q-114 -126 -270 -126zM557 1317q109 0 126 124h201q-18 -147 -102 -227t-224 -80t-224 80q-83 80 -100 227h200q21 -124 123 -124z" />
    <glyph glyph-name="Aogonek" unicode="&#x104;" horiz-adv-x="1279" 
d="M780 455l-149 412l-149 -412h298zM978 -227q0 -70 72 -70q45 0 129 53l85 -107q-134 -114 -289 -114q-99 0 -156 51t-57 145q0 155 245 241l-5 28h-55l-86 228h-462l-83 -228h-304q144 367 541 1374h168l544 -1382q-204 -105 -246 -144q-41 -38 -41 -75z" />
    <glyph glyph-name="aogonek" unicode="&#x105;" horiz-adv-x="1125" 
d="M536 195q100 0 156 75q57 75 57 203q0 198 -120 255q-40 19 -94 19q-97 1 -151 -75t-55 -199q0 -195 119 -258q38 -20 88 -20zM627 -418q-58 52 -58 152q1 102 137 210q48 38 114 79q-20 40 -33 83q-115 -127 -271 -127q-195 0 -333 134q-130 136 -130 360q0 223 134 357
t348 134q169 0 271 -129l221 114v-652q0 -89 13 -127t37 -79q-289 -198 -289 -320q0 -71 73 -71q45 0 130 53l86 -107q-134 -116 -293 -116q-99 0 -157 52z" />
    <glyph glyph-name="Cacute" unicode="&#x106;" horiz-adv-x="1158" 
d="M55 681q0 309 189 503t481 194q241 0 407 -123l-156 -238q-108 93 -262 93t-254 -118t-100 -313q0 -196 99 -314t251 -118t266 95l156 -239q-166 -123 -407 -123q-291 0 -481 196t-189 505zM571 1474q167 272 184 301h283l-272 -301h-195z" />
    <glyph glyph-name="cacute" unicode="&#x107;" horiz-adv-x="897" 
d="M53 470q-1 228 133 361t348 133t328 -85l-113 -194q-97 62 -197 62q-100 -1 -162 -79t-62 -198t62 -198q62 -77 163 -77q102 0 199 63l112 -195q-118 -84 -331 -84t-348 132h1q-133 131 -133 359zM401 1132q167 272 184 301h283l-272 -301h-195z" />
    <glyph glyph-name="Ccaron" unicode="&#x10c;" horiz-adv-x="1158" 
d="M55 681q0 309 189 503t481 194q241 0 407 -123l-156 -238q-108 93 -262 93t-254 -118t-100 -313q0 -196 99 -314t251 -118t266 95l156 -239q-166 -123 -407 -123q-291 0 -481 196t-189 505zM1020 1800l-197 -326h-274l-195 326h205l126 -200l128 200h207z" />
    <glyph glyph-name="ccaron" unicode="&#x10d;" horiz-adv-x="897" 
d="M53 470q-1 228 133 361t348 133t328 -85l-113 -194q-97 62 -197 62q-100 -1 -162 -79t-62 -198t62 -198q62 -77 163 -77q102 0 199 63l112 -195q-118 -84 -331 -84t-348 132h1q-133 131 -133 359zM844 1458l-197 -326h-274l-195 326h205l126 -200l128 200h207z" />
    <glyph glyph-name="Dcaron" unicode="&#x10e;" horiz-adv-x="1223" 
d="M401 269h49q411 0 411 425q0 194 -105 296t-304 101h-51v-822zM100 1358h333q350 0 541 -170t191 -494t-197 -510q-197 -184 -535 -184h-333v1358zM910 1800l-197 -326h-274l-195 326h205l126 -200l128 200h207z" />
    <glyph glyph-name="dcaron" unicode="&#x10f;" horiz-adv-x="1264" 
d="M540 195q100 1 158 77t57 205q0 129 -55 199t-155 71q-100 0 -162 -78q-54 -77 -54 -196q0 -196 121 -258q40 -20 90 -20zM516 -21q-203 0 -333 136q-130 137 -130 359t127 356t313 134q137 0 260 -99v555q73 22 139 42t137 41v-1206q0 -80 11 -119t37 -84l-214 -112
q-41 34 -76 123q-108 -126 -271 -126zM1155 1378q0 58 46 104q45 46 113 46t112 -49t43 -122q0 -172 -187 -437h-133q84 145 124 285l-11 19q-50 16 -78 56t-29 98z" />
    <glyph glyph-name="Dcroat" unicode="&#x110;" horiz-adv-x="1191" 
d="M404 267h49q411 0 411 425q0 195 -106 296t-303 101h-51v-296h154v-228h-154v-298zM103 1356h332q353 0 543 -170t190 -500q0 -329 -202 -509q-203 -179 -531 -179h-332v567h-121v228h121v563z" />
    <glyph glyph-name="dcroat" unicode="&#x111;" horiz-adv-x="1138" 
d="M540 195q99 0 158 76q58 76 58 206q0 129 -56 199t-155 71q-100 0 -161 -78q-55 -78 -55 -196q-1 -196 121 -258q40 -20 90 -20zM53 474q0 220 127 355t313 135q136 0 261 -99v267h-239v191h239v97q72 22 138 42t137 41v-180h127v-191h-127v-835q0 -102 18 -142t31 -61
l-215 -112q-43 36 -75 123q-108 -126 -272 -126q-203 0 -333 137q-130 138 -130 358z" />
    <glyph glyph-name="Emacron" unicode="&#x112;" horiz-adv-x="972" 
d="M400 1115v-276h378v-269h-378v-303h410l138 -267h-848v1358h823l-125 -243h-398zM841 1507h-650v199h650v-199z" />
    <glyph glyph-name="emacron" unicode="&#x113;" horiz-adv-x="1093" 
d="M555 749q-131 -1 -197 -139q-21 -44 -30 -101l431 96q-73 144 -204 144zM554 -21q-210 1 -356 137t-145 360t149 356t353 132t340 -121t153 -341l-698 -151q55 -156 202 -156t293 92q78 -138 106 -189q-187 -119 -397 -119zM865 1185h-650v199h650v-199z" />
    <glyph glyph-name="Edotaccent" unicode="&#x116;" horiz-adv-x="972" 
d="M400 1115v-276h378v-269h-378v-303h410l138 -267h-848v1358h823l-125 -243h-398zM356 1641q0 69 50 119t118 50q67 0 116 -49t49 -121q1 -72 -49 -119q-50 -48 -118 -48t-118 49h1q-49 49 -49 119z" />
    <glyph glyph-name="edotaccent" unicode="&#x117;" horiz-adv-x="1093" 
d="M555 749q-131 -1 -197 -139q-21 -44 -30 -101l431 96q-73 144 -204 144zM554 -21q-210 1 -356 137t-145 360t149 356t353 132t340 -121t153 -341l-698 -151q55 -156 202 -156t293 92q78 -138 106 -189q-187 -119 -397 -119zM371 1297q1 69 51 119t117 50t116 -49t49 -121
t-50 -119q-50 -48 -116 -48q-68 0 -119 49h1q-49 49 -49 119z" />
    <glyph glyph-name="Eogonek" unicode="&#x118;" horiz-adv-x="972" 
d="M449 -269q0 132 230 269h-579v1358h823l-125 -243h-398v-276h378v-269h-378v-303h410l138 -267h-106q-176 -131 -176 -227q0 -70 72 -70q44 0 129 53l85 -108q-131 -113 -289 -113q-99 0 -157 51t-57 145z" />
    <glyph glyph-name="eogonek" unicode="&#x119;" horiz-adv-x="1093" 
d="M555 749q-131 -1 -197 -139q-21 -44 -30 -101l431 96q-73 144 -204 144zM507 -272q0 120 145 253l-102 -2q-206 1 -352 137t-145 360t149 356t353 132t340 -121t153 -341l-698 -151q55 -156 202 -156t293 92l107 -191q-227 -198 -227 -325q0 -71 72 -71q46 0 131 53
l86 -107q-134 -116 -293 -116q-100 0 -157 52t-57 146z" />
    <glyph glyph-name="Ecaron" unicode="&#x11a;" horiz-adv-x="972" 
d="M400 1115v-276h378v-269h-378v-303h410l138 -267h-848v1358h823l-125 -243h-398zM856 1800l-197 -326h-274l-195 326h205l126 -200l128 200h207z" />
    <glyph glyph-name="ecaron" unicode="&#x11b;" horiz-adv-x="1093" 
d="M555 749q-131 -1 -197 -139q-21 -44 -30 -101l431 96q-73 144 -204 144zM554 -21q-210 1 -356 137t-145 360t149 356t353 132t340 -121t153 -341l-698 -151q55 -156 202 -156t293 92q78 -138 106 -189q-187 -119 -397 -119zM877 1458l-197 -326h-274l-195 326h205
l126 -200l128 200h207z" />
    <glyph glyph-name="Gbreve" unicode="&#x11e;" horiz-adv-x="1247" 
d="M55 681q0 309 189 503t480 194q241 0 410 -124q-41 -63 -78 -119t-76 -118q-112 93 -266 93t-254 -118t-101 -313t99 -313t266 -119q65 0 138 25v231h-215l120 241h392v-637q-170 -127 -447 -127q-278 0 -468 196t-189 505zM692 1659q109 0 126 124h201
q-17 -147 -101 -227t-226 -80q-140 0 -223 80t-100 227h200q21 -124 123 -124z" />
    <glyph glyph-name="gbreve" unicode="&#x11f;" horiz-adv-x="1101" 
d="M542 195q98 0 154 75t56 203q0 274 -210 274q-100 0 -155 -74q-56 -74 -56 -200q-1 -196 121 -258q40 -20 90 -20zM514 -202q184 0 222 146q14 52 13 124q-118 -89 -231 -89q-202 0 -332 135t-131 360q0 226 136 358t351 132q159 0 276 -122l211 110v-902
q0 -490 -515 -490q-232 0 -425 125l143 197q125 -84 282 -84zM582 1316q109 0 126 124h201q-17 -146 -101 -226t-226 -81q-140 1 -223 81t-100 226h200q21 -124 123 -124z" />
    <glyph glyph-name="Gcommaaccent" unicode="&#x122;" horiz-adv-x="1247" 
d="M55 681q0 309 189 503t480 194q241 0 410 -124q-41 -63 -78 -119t-76 -118q-112 93 -266 93t-254 -118t-101 -313t99 -313t266 -119q65 0 138 25v231h-215l120 241h392v-637q-170 -127 -447 -127q-278 0 -468 196t-189 505zM853 -272q0 -140 -93 -297h-111q34 87 51 157
q-58 14 -94 54t-37 96q0 56 41 97q42 39 102 39t100 -42t41 -104z" />
    <glyph glyph-name="gcommaaccent" unicode="&#x123;" horiz-adv-x="1101" 
d="M542 195q98 0 154 75t56 203q0 274 -210 274q-100 0 -155 -74q-56 -74 -56 -200q-1 -196 121 -258q40 -20 90 -20zM514 -202q184 0 222 146q14 52 13 124q-118 -89 -231 -89q-202 0 -332 135t-131 360q0 226 136 358t351 132q159 0 276 -122l211 110v-902
q0 -490 -515 -490q-232 0 -425 125l143 197q125 -84 282 -84zM415 1277q0 138 94 297h111q-33 -83 -51 -156q59 -14 95 -54t36 -98q0 -88 -88 -124q-24 -10 -52 -10q-64 0 -104 42t-41 103z" />
    <glyph glyph-name="Imacron" unicode="&#x12a;" horiz-adv-x="506" 
d="M398 0h-300v1358h300v-1358zM579 1507h-650v199h650v-199z" />
    <glyph glyph-name="imacron" unicode="&#x12b;" horiz-adv-x="457" 
d="M360 0h-275v855l275 102v-957zM555 1185h-650v199h650v-199z" />
    <glyph glyph-name="Iogonek" unicode="&#x12e;" horiz-adv-x="506" 
d="M222 -465q-98 0 -155 51t-57 145q0 135 221 269h-127v1358h300v-1364q-178 -109 -178 -221q0 -70 72 -70q55 0 129 53l86 -107q-134 -114 -291 -114z" />
    <glyph glyph-name="iogonek" unicode="&#x12f;" horiz-adv-x="457" 
d="M-20 -272q0 136 224 272h-113v855l278 102v-965q-171 -119 -171 -221q0 -71 72 -71q55 0 131 53l86 -107q-134 -116 -292 -116q-99 0 -157 52t-58 146zM231 1388q68 0 118 -50t50 -120t-50 -119q-50 -50 -118 -50q-67 -1 -117 49t-50 120t50 120t117 50z" />
    <glyph glyph-name="Idotaccent" unicode="&#x130;" horiz-adv-x="506" 
d="M399 0h-300v1358h300v-1358zM87 1614q1 70 51 120t117 49q67 0 116 -49q49 -48 49 -120t-50 -120t-116 -48q-68 0 -119 49h1q-49 49 -49 119z" />
    <glyph glyph-name="dotlessi" unicode="&#x131;" horiz-adv-x="457" 
d="M366 0h-275v855l275 102v-957z" />
    <glyph glyph-name="Kcommaaccent" unicode="&#x136;" horiz-adv-x="1181" 
d="M401 0h-301v1358h301v-552l378 552h332l-471 -646l537 -712h-371l-405 560v-560zM747 -272q0 -140 -93 -297h-111q34 87 51 157q-58 14 -94 54t-37 96q0 56 41 97q42 39 102 39t100 -42t41 -104z" />
    <glyph glyph-name="kcommaaccent" unicode="&#x137;" horiz-adv-x="938" 
d="M349 0h-277v1422q72 20 138 40t139 41v-928l232 367h330l-310 -422l333 -520h-351l-208 377l-26 -6v-371zM624 -272q0 -140 -93 -297h-111q34 87 51 157q-59 14 -95 54t-36 96t41 97q42 39 102 39q61 0 101 -42t40 -104z" />
    <glyph glyph-name="Lacute" unicode="&#x139;" horiz-adv-x="981" 
d="M100 0v1358h300v-1091h432l133 -267h-865zM358 1474q167 272 184 301h283l-272 -301h-195z" />
    <glyph glyph-name="lacute" unicode="&#x13a;" horiz-adv-x="421" 
d="M350 0h-278v1420l278 83v-1503zM69 1505q167 272 184 301h283l-272 -301h-195z" />
    <glyph glyph-name="Lcommaaccent" unicode="&#x13b;" horiz-adv-x="981" 
d="M100 0v1358h300v-1091h432l133 -267h-865zM647 -272q0 -140 -93 -297h-111q34 87 51 157q-58 14 -94 54t-37 96q0 56 41 97q42 39 102 39t100 -42t41 -104z" />
    <glyph glyph-name="lcommaaccent" unicode="&#x13c;" horiz-adv-x="421" 
d="M352 0h-278v1420l278 83v-1503zM371 -272q0 -140 -93 -297h-111q34 87 51 157q-58 14 -94 54t-37 96q0 56 41 97q42 39 102 39t100 -42t41 -104z" />
    <glyph glyph-name="Lcaron" unicode="&#x13d;" horiz-adv-x="981" 
d="M100 0v1358h300v-1091h432l133 -267h-865zM627 1365q0 57 45 102h-1q45 45 113 45t111 -48t43 -120q0 -171 -185 -433h-132q83 142 123 282l-10 19q-50 14 -78 55t-29 98z" />
    <glyph glyph-name="lcaron" unicode="&#x13e;" horiz-adv-x="580" 
d="M350 0h-278v1420l278 83v-1503zM471 1378q1 58 47 104t113 46t111 -49t43 -122q0 -172 -188 -437h-133q83 139 124 285l-10 19q-50 16 -78 56t-29 98z" />
    <glyph glyph-name="Lslash" unicode="&#x141;" horiz-adv-x="983" 
d="M102 0v335l-110 -134v351l110 137v669h301v-299l132 158v-355l-132 -158v-437h431l133 -267h-865z" />
    <glyph glyph-name="lslash" unicode="&#x142;" horiz-adv-x="429" 
d="M354 0h-278v367l-121 -149v357l121 146v699l278 83v-440l118 149v-357l-118 -146v-709z" />
    <glyph glyph-name="Nacute" unicode="&#x143;" horiz-adv-x="1266" 
d="M1165 -4h-154l-622 756v-752h-289v1360h157l621 -750v748h287v-1362zM530 1474q167 272 184 301h283l-272 -301h-195z" />
    <glyph glyph-name="nacute" unicode="&#x144;" horiz-adv-x="971" 
d="M338 787q124 177 304 177q129 0 194 -87t65 -281v-596h-278v592q1 71 -25 98t-73 27q-86 0 -130 -65q-45 -65 -45 -177v-475h-278v860q72 26 134 48t132 48v-169zM352 1132q167 272 184 301h283l-272 -301h-195z" />
    <glyph glyph-name="Ncommaaccent" unicode="&#x145;" horiz-adv-x="1266" 
d="M1165 -4h-154l-622 756v-752h-289v1360h157l621 -750v748h287v-1362zM782 -272q0 -140 -93 -297h-111q34 87 51 157q-59 14 -95 54t-36 96t41 97q42 39 102 39q61 0 101 -42t40 -104z" />
    <glyph glyph-name="ncommaaccent" unicode="&#x146;" horiz-adv-x="971" 
d="M338 787q124 177 304 177q129 0 194 -87t65 -281v-596h-278v592q1 71 -25 98t-73 27q-86 0 -130 -65q-45 -65 -45 -177v-475h-278v860q72 26 134 48t132 48v-169zM634 -272q0 -140 -93 -297h-111q34 87 51 157q-59 14 -95 54t-36 96t41 97q42 39 102 39q61 0 101 -42
t40 -104z" />
    <glyph glyph-name="Ncaron" unicode="&#x147;" horiz-adv-x="1266" 
d="M1165 -4h-154l-622 756v-752h-289v1360h157l621 -750v748h287v-1362zM957 1800l-197 -326h-274l-195 326h205l126 -200l128 200h207z" />
    <glyph glyph-name="ncaron" unicode="&#x148;" horiz-adv-x="971" 
d="M338 787q124 177 304 177q129 0 194 -87t65 -281v-596h-278v592q1 71 -25 98t-73 27q-86 0 -130 -65q-45 -65 -45 -177v-475h-278v860q72 26 134 48t132 48v-169zM803 1458l-197 -326h-274l-195 326h205l126 -200l128 200h207z" />
    <glyph glyph-name="Omacron" unicode="&#x14c;" 
d="M359 681q1 -194 101 -310t256 -116t256 117q101 118 101 310t-101 308q-102 115 -258 115t-255 -115q-100 -115 -100 -309zM55 684q-1 314 193 504t470 190t467 -194q190 -194 190 -504t-190 -505q-191 -195 -469 -195t-470 195v-1q-191 197 -191 510zM1035 1507h-650
v199h650v-199z" />
    <glyph glyph-name="omacron" unicode="&#x14d;" horiz-adv-x="1112" 
d="M556 747q-105 0 -166 -75q-61 -74 -61 -198q1 -124 61 -202t165 -77q105 -1 165 77t61 201q-1 193 -131 255q-42 20 -94 19zM556 964q217 0 359 -136t142 -351q0 -216 -142 -362q-149 -136 -361 -136t-358 138q-143 137 -143 355t143 355t360 137zM876 1185h-650v199h650
v-199z" />
    <glyph glyph-name="Ohungarumlaut" unicode="&#x150;" 
d="M359 681q1 -194 101 -310t256 -116t256 117q101 118 101 310t-101 308q-102 115 -258 115t-255 -115q-100 -115 -100 -309zM55 684q-1 314 193 504t470 190t467 -194q190 -194 190 -504t-190 -505q-191 -195 -469 -195t-470 195v-1q-191 197 -191 510zM752 1474l185 301
h282l-271 -301h-196zM333 1474l185 301h284l-272 -301h-197z" />
    <glyph glyph-name="ohungarumlaut" unicode="&#x151;" horiz-adv-x="1112" 
d="M556 747q-105 0 -166 -75q-61 -74 -61 -198q1 -124 61 -202t165 -77q105 -1 165 77t61 201q-1 193 -131 255q-42 20 -94 19zM556 964q217 0 359 -136t142 -351q0 -216 -142 -362q-149 -136 -361 -136t-358 138q-143 137 -143 355t143 355t360 137zM617 1132l185 301h282
l-271 -301h-196zM198 1132l185 301h284l-272 -301h-197z" />
    <glyph glyph-name="OE" unicode="&#x152;" horiz-adv-x="1949" 
d="M717 255q155 0 257 117t102 308t-102 310q-103 115 -259 115t-255 -115q-100 -115 -100 -309t100 -310t257 -116zM1376 1115v-276h377v-269h-377v-303h411l137 -267h-848v98q-169 -118 -359 -118q-278 0 -470 195v-1q-192 198 -192 510t194 503t468 191q190 0 359 -118
v98h822l-125 -243h-397z" />
    <glyph glyph-name="oe" unicode="&#x153;" horiz-adv-x="1818" 
d="M556 747q-105 0 -166 -75q-61 -74 -61 -198q1 -124 61 -202t164 -77q104 0 168 78q60 79 60 200q0 195 -131 255q-42 20 -95 19zM1289 749q-90 0 -155 -65t-78 -175l431 96q-71 144 -198 144zM1280 -21q-210 0 -360 144q-150 -144 -364 -144t-360 138q-143 137 -143 355
t143 355t357 137t369 -144q153 144 360 144q208 0 342 -121t151 -341l-700 -151q61 -156 205 -156t291 93q81 -150 105 -192q-186 -117 -396 -117z" />
    <glyph glyph-name="Racute" unicode="&#x154;" horiz-adv-x="1079" 
d="M401 721h38q227 0 227 204q0 192 -224 192h-41v-396zM401 490v-490h-301v1358h344q260 0 392 -106t132 -312q0 -268 -230 -395l316 -545h-325l-260 490h-68zM373 1474q167 272 184 301h283l-272 -301h-195z" />
    <glyph glyph-name="racute" unicode="&#x155;" horiz-adv-x="731" 
d="M535 715q-185 0 -185 -238v-477h-278v860l267 95v-174q120 183 282 183q52 0 84 -9l-47 -255q-53 15 -123 15zM244 1132q167 272 184 301h283l-272 -301h-195z" />
    <glyph glyph-name="Rcommaaccent" unicode="&#x156;" horiz-adv-x="1079" 
d="M401 721h38q227 0 227 204q0 192 -224 192h-41v-396zM401 490v-490h-301v1358h344q260 0 392 -106t132 -312q0 -268 -230 -395l316 -545h-325l-260 490h-68zM696 -272q0 -140 -93 -297h-111q34 87 51 157q-59 14 -95 54t-36 96t41 97q42 39 102 39q61 0 101 -42t40 -104z
" />
    <glyph glyph-name="rcommaaccent" unicode="&#x157;" horiz-adv-x="731" 
d="M535 715q-185 0 -185 -238v-477h-278v860l267 95v-174q120 183 282 183q52 0 84 -9l-47 -255q-53 15 -123 15zM519 -272q0 -140 -93 -297h-111q34 87 51 157q-58 14 -94 54t-37 96q0 56 41 97q42 39 102 39t100 -42t41 -104z" />
    <glyph glyph-name="Rcaron" unicode="&#x158;" horiz-adv-x="1079" 
d="M401 721h38q227 0 227 204q0 192 -224 192h-41v-396zM401 490v-490h-301v1358h344q260 0 392 -106t132 -312q0 -268 -230 -395l316 -545h-325l-260 490h-68zM838 1800l-197 -326h-274l-195 326h205l126 -200l128 200h207z" />
    <glyph glyph-name="rcaron" unicode="&#x159;" horiz-adv-x="731" 
d="M554 715q-185 0 -185 -238v-477h-278v860l267 95v-174q120 183 282 183q52 0 84 -9l-47 -255q-52 15 -123 15zM738 1458l-197 -326h-274l-195 326h205l126 -200l128 200h207z" />
    <glyph glyph-name="Sacute" unicode="&#x15a;" horiz-adv-x="1012" 
d="M530 1165q-85 0 -132 -37t-47 -94t41 -104q44 -46 180 -111t211 -113t127 -126q52 -80 53 -188q0 -204 -122 -308t-359 -104q-236 0 -427 142q41 63 136 220q151 -103 307 -103t156 125q0 78 -102 140q-46 28 -142 74q-97 47 -167 95v-1q-70 46 -125 134q-54 88 -54 218
q0 168 125 268t350 100t393 -111l-136 -197q-127 81 -266 81zM354 1474q167 272 184 301h283l-272 -301h-195z" />
    <glyph glyph-name="sacute" unicode="&#x15b;" horiz-adv-x="777" 
d="M411 769q-100 0 -100 -76q0 -44 27 -62t116 -51q183 -68 235 -139q52 -70 52 -164q0 -139 -104 -219q-103 -80 -273 -79q-170 0 -322 116l107 159q100 -82 230 -82q96 0 96 81q0 37 -28 55t-122 52t-144 60q-49 26 -97 92t-47 184q0 118 102 193t280 75t299 -88
l-107 -157q-100 50 -200 50zM244 1132q167 272 184 301h283l-272 -301h-195z" />
    <glyph glyph-name="Scedilla" unicode="&#x15e;" horiz-adv-x="1013" 
d="M531 1165q-85 0 -132 -37t-47 -94t41 -104q43 -46 179 -111t212 -113t128 -126q52 -80 52 -198q0 -350 -380 -397l-59 -85q47 11 73 11q70 0 124 -46t54 -131q0 -86 -78 -142t-191 -57q-114 0 -248 58l50 106q102 -40 176 -40q104 0 104 78q0 69 -95 69q-54 0 -97 -16
l-70 49l116 142q-240 26 -388 141q63 100 137 220q150 -103 306 -103t157 125q1 78 -101 140q-46 28 -143 74q-97 47 -167 95v-1q-70 46 -125 134q-54 88 -54 218q0 168 125 268t350 100t393 -111l-136 -197q-127 81 -266 81z" />
    <glyph glyph-name="scedilla" unicode="&#x15f;" horiz-adv-x="777" 
d="M652 -272q0 -90 -84 -144t-191 -54q-108 0 -247 59l51 107q99 -40 176 -40q106 0 106 79q0 69 -96 69q-54 0 -98 -16l-71 50l117 143q-157 24 -273 115l107 158q100 -82 230 -82q96 0 96 81q0 41 -35 59h1q-28 16 -116 48q-183 66 -235 144q-53 77 -53 177q0 133 102 208
t280 75t299 -88l-107 -157q-100 50 -200 50t-100 -76q0 -44 27 -62t116 -51q183 -68 235 -139t52 -175q-1 -104 -75 -180t-206 -99l-63 -89q43 12 73 12q73 0 127 -46q55 -46 55 -136z" />
    <glyph glyph-name="Scaron" unicode="&#x160;" horiz-adv-x="1012" 
d="M530 1165q-85 0 -132 -37t-47 -94t41 -104q44 -46 180 -111t211 -113t127 -126q52 -80 53 -188q0 -204 -122 -308t-359 -104q-236 0 -427 142q41 63 136 220q151 -103 307 -103t156 125q0 78 -102 140q-46 28 -142 74q-97 47 -167 95v-1q-70 46 -125 134q-54 88 -54 218
q0 168 125 268t350 100t393 -111l-136 -197q-127 81 -266 81zM849 1908l-197 -326h-274l-195 326h205l126 -200l128 200h207z" />
    <glyph glyph-name="scaron" unicode="&#x161;" horiz-adv-x="777" 
d="M411 769q-100 0 -100 -76q0 -44 27 -62t116 -51q183 -68 235 -139q52 -70 52 -164q0 -139 -104 -219q-103 -80 -273 -79q-170 0 -322 116l107 159q100 -82 230 -82q96 0 96 81q0 37 -28 55t-122 52t-144 60q-49 26 -97 92t-47 184q0 118 102 193t280 75t299 -88
l-107 -157q-100 50 -200 50zM730 1458l-197 -326h-274l-195 326h205l126 -200l128 200h207z" />
    <glyph glyph-name="Tcommaaccent" unicode="&#x162;" horiz-adv-x="1073" 
d="M1039 1091h-355v-1091h-297v1091h-354v267h1006v-267zM688 -272q0 -140 -93 -297h-111q34 87 51 157q-59 14 -95 54t-36 96t41 97q42 39 102 39q61 0 101 -42t40 -104z" />
    <glyph glyph-name="Tcommaaccent" unicode="&#x21a;" horiz-adv-x="1073" 
d="M1039 1091h-355v-1091h-297v1091h-354v267h1006v-267zM688 -272q0 -140 -93 -297h-111q34 87 51 157q-59 14 -95 54t-36 96t41 97q42 39 102 39q61 0 101 -42t40 -104z" />
    <glyph glyph-name="tcommaaccent" unicode="&#x163;" horiz-adv-x="699" 
d="M158 352v367h-125v223h125v265q69 43 138 84t139 83v-432h260l-116 -223h-144v-301q0 -127 37 -198t117 -129l-167 -135q-264 103 -264 396zM506 -272q0 -140 -93 -297h-111q34 87 51 157q-59 14 -95 54t-36 96t41 97q42 39 102 39q61 0 101 -42t40 -104z" />
    <glyph glyph-name="tcommaaccent" unicode="&#x21b;" horiz-adv-x="699" 
d="M158 352v367h-125v223h125v265q69 43 138 84t139 83v-432h260l-116 -223h-144v-301q0 -127 37 -198t117 -129l-167 -135q-264 103 -264 396zM506 -272q0 -140 -93 -297h-111q34 87 51 157q-59 14 -95 54t-36 96t41 97q42 39 102 39q61 0 101 -42t40 -104z" />
    <glyph glyph-name="Tcaron" unicode="&#x164;" horiz-adv-x="1073" 
d="M1039 1091h-355v-1091h-297v1091h-354v267h1006v-267zM856 1802l-197 -326h-274l-195 326h205l126 -200l128 200h207z" />
    <glyph glyph-name="tcaron" unicode="&#x165;" horiz-adv-x="714" 
d="M158 352v367h-125v223h125v265q70 43 139 84t139 83v-432h259l-116 -223h-143v-301q0 -129 38 -201t116 -126q-163 -131 -168 -135q-264 103 -264 396zM598 1324q-28 33 -28 79t44 83t114 37q68 1 110 -39t42 -97q0 -144 -185 -359h-129q81 115 122 231l-11 21
q-51 11 -79 44z" />
    <glyph glyph-name="Umacron" unicode="&#x16a;" horiz-adv-x="1231" 
d="M1133 592q-1 -300 -133 -456t-384 -156t-384 156t-132 456v766h298v-766q0 -174 48 -260t168 -85t172 79q51 78 51 268v764h296v-766zM939 1507h-650v199h650v-199z" />
    <glyph glyph-name="umacron" unicode="&#x16b;" horiz-adv-x="991" 
d="M346 -21q-145 0 -211 83q-65 86 -65 284v596h278v-592q0 -67 23 -96t73 -29q90 0 134 65t44 177v475h278v-645q0 -84 10 -119q10 -34 38 -85l-202 -111q-85 77 -111 178q-114 -181 -289 -181zM820 1185h-650v199h650v-199z" />
    <glyph glyph-name="Uring" unicode="&#x16e;" horiz-adv-x="1231" 
d="M1133 592q-1 -300 -133 -456t-384 -156t-384 156t-132 456v766h298v-766q0 -174 48 -260t168 -85t172 79q51 78 51 268v764h296v-766zM611 1603q45 -1 77 33t32 66t-8 51q-8 20 -24 35q-15 16 -35 24t-42 8q-45 0 -77 -32t-33 -76q1 -44 33 -76t77 -33zM611 1950
q99 0 169 -70t70 -170t-71 -168q-67 -69 -167 -69q-100 -1 -170 69t-70 170t70 169h-1q71 69 170 69z" />
    <glyph glyph-name="uring" unicode="&#x16f;" horiz-adv-x="991" 
d="M346 -21q-145 0 -211 83q-65 86 -65 284v596h278v-592q0 -67 23 -96t73 -29q90 0 134 65t44 177v475h278v-645q0 -84 10 -119q10 -34 38 -85l-202 -111q-85 77 -111 178q-114 -181 -289 -181zM492 1253q45 -1 77 33t32 66q-1 32 -9 51q-8 20 -23 35q-15 16 -35 24t-42 8
q-46 0 -78 -32t-32 -76t32 -76t78 -33zM492 1600q99 0 169 -70t70 -170t-71 -168q-66 -69 -166 -69q-100 -1 -171 69q-70 70 -70 170t70 169h-1q71 69 170 69z" />
    <glyph glyph-name="Uhungarumlaut" unicode="&#x170;" horiz-adv-x="1231" 
d="M1133 592q-1 -300 -133 -456t-384 -156t-384 156t-132 456v766h298v-766q0 -174 48 -260t168 -85t172 79q51 78 51 268v764h296v-766zM687 1474l185 301h282l-271 -301h-196zM268 1474l185 301h284l-272 -301h-197z" />
    <glyph glyph-name="uhungarumlaut" unicode="&#x171;" horiz-adv-x="991" 
d="M346 -21q-145 0 -211 83q-65 86 -65 284v596h278v-592q0 -67 23 -96t73 -29q90 0 134 65t44 177v475h278v-645q0 -84 10 -119q10 -34 38 -85l-202 -111q-85 77 -111 178q-114 -181 -289 -181zM597 1132l185 301h282l-271 -301h-196zM178 1132l185 301h284l-272 -301h-197
z" />
    <glyph glyph-name="Uogonek" unicode="&#x172;" horiz-adv-x="1231" 
d="M375 -269q0 122 201 250q-236 25 -356 183t-120 428v766h298v-766q0 -174 48 -260t168 -85t172 79q51 78 51 268v764h296v-766q1 -253 -95 -405t-281 -194q-167 -129 -167 -220q0 -70 73 -70q45 0 129 53l85 -107q-134 -114 -290 -114q-97 0 -155 51t-57 145z" />
    <glyph glyph-name="uogonek" unicode="&#x173;" horiz-adv-x="991" 
d="M442 -272q0 132 262 293q-53 66 -68 142q-117 -184 -290 -184q-145 0 -211 83q-65 86 -65 284v596h278v-592q0 -67 22 -96t73 -29q91 0 135 65t44 177v475h278v-645q0 -84 10 -121q10 -36 38 -84q-138 -92 -213 -177q-74 -84 -74 -144q0 -71 72 -71q46 0 131 53l85 -107
q-134 -116 -292 -116q-99 0 -157 52t-58 146zM948 92l14 9l-5 -21z" />
    <glyph glyph-name="Ydieresis" unicode="&#x178;" horiz-adv-x="1214" 
d="M746 0h-295v576l-426 782h317l264 -512l265 512h318l-443 -776v-582zM239 1634q0 63 47 110t107 47t107 -47q47 -46 47 -110q1 -64 -45 -110t-108 -45q-62 0 -109 46q-46 46 -46 109zM821 1791q60 0 106 -47t46 -95q0 -80 -46 -126v1q-45 -45 -107 -45q-62 1 -108 47
t-45 109q0 63 46 109v-1q48 48 108 48z" />
    <glyph glyph-name="Zacute" unicode="&#x179;" horiz-adv-x="1152" 
d="M1125 271l-134 -271h-962l564 1091h-529l83 166q33 66 51 101h890l-563 -1087h600zM518 1474q167 272 184 301h283l-272 -301h-195z" />
    <glyph glyph-name="zacute" unicode="&#x17a;" horiz-adv-x="912" 
d="M896 233q-70 -140 -115 -233h-767l417 713h-378l112 229h721l-414 -709h424zM389 1132q167 272 184 301h283l-272 -301h-195z" />
    <glyph glyph-name="Zdotaccent" unicode="&#x17b;" horiz-adv-x="1152" 
d="M1125 271l-134 -271h-962l564 1091h-529l83 166q33 66 51 101h890l-563 -1087h600zM471 1641q1 69 51 119t117 50t116 -49t49 -121t-50 -119q-50 -48 -116 -48q-68 0 -119 49h1q-49 49 -49 119z" />
    <glyph glyph-name="zdotaccent" unicode="&#x17c;" horiz-adv-x="912" 
d="M896 233q-70 -140 -115 -233h-767l417 713h-378l112 229h721l-414 -709h424zM365 1297q1 69 51 119t117 50t116 -49t49 -121t-50 -119q-50 -48 -116 -48q-68 0 -119 49h1q-49 49 -49 119z" />
    <glyph glyph-name="Zcaron" unicode="&#x17d;" horiz-adv-x="1152" 
d="M1125 271l-134 -271h-962l564 1091h-529l83 166q33 66 51 101h890l-563 -1087h600zM966 1800l-197 -326h-274l-195 326h205l126 -200l128 200h207z" />
    <glyph glyph-name="zcaron" unicode="&#x17e;" horiz-adv-x="912" 
d="M896 233q-70 -140 -115 -233h-767l417 713h-378l112 229h721l-414 -709h424zM839 1458l-197 -326h-274l-195 326h205l126 -200l128 200h207z" />
    <glyph glyph-name="Schwa" unicode="&#x18f;" horiz-adv-x="1505" 
d="M758 239q162 0 258 94q95 94 112 260l-706 -136q74 -218 336 -218zM740 1378q331 0 515 -193t183 -500t-191 -507t-501 -199t-488 169h1q-179 166 -193 483l1057 199q-46 146 -138 218t-290 72t-411 -141l-128 224q253 175 584 175z" />
    <glyph glyph-name="florin" unicode="&#x192;" horiz-adv-x="980" 
d="M121 575q8 40 45 223h191q53 275 67 324q53 183 192 285q139 103 340 120l49 -162q-151 -34 -228 -115q-77 -82 -105 -225l-41 -227h282l-48 -223h-277l-90 -457q-96 -490 -564 -527l-49 163q148 32 226 114q81 89 108 230l94 477h-192z" />
    <glyph glyph-name="Scommaaccent" unicode="&#x218;" horiz-adv-x="1012" 
d="M530 1165q-85 0 -132 -37t-47 -94t41 -104q44 -46 180 -111t211 -113t127 -126q52 -80 53 -188q0 -204 -122 -308t-359 -104q-236 0 -427 142q41 63 136 220q151 -103 307 -103t156 125q0 78 -102 140q-46 28 -142 74q-97 47 -167 95v-1q-70 46 -125 134q-54 88 -54 218
q0 168 125 268t350 100t393 -111l-136 -197q-127 81 -266 81zM688 -272q0 -140 -93 -297h-111q34 87 51 157q-59 14 -95 54t-36 96t41 97q42 39 102 39q61 0 101 -42t40 -104z" />
    <glyph glyph-name="scommaaccent" unicode="&#x219;" horiz-adv-x="777" 
d="M411 769q-100 0 -100 -76q0 -44 27 -62t116 -51q183 -68 235 -139q52 -70 52 -164q0 -139 -104 -219q-103 -80 -273 -79q-170 0 -322 116l107 159q100 -82 230 -82q96 0 96 81q0 37 -28 55t-122 52t-144 60q-49 26 -97 92t-47 184q0 118 102 193t280 75t299 -88
l-107 -157q-100 50 -200 50zM538 -272q0 -140 -93 -297h-111q34 87 51 157q-59 14 -95 54t-36 96t41 97q42 39 102 39q61 0 101 -42t40 -104z" />
    <glyph glyph-name="schwa" unicode="&#x259;" horiz-adv-x="1136" 
d="M559 196q97 0 164 58q60 56 77 151l-444 -87q60 -122 203 -122zM145 846q200 117 413 117t366 -136t153 -359q0 -224 -152 -356t-361 -132t-352 125t-153 344l722 140q-23 77 -81 117t-138 40q-142 0 -307 -93z" />
    <glyph glyph-name="circumflex" unicode="&#x2c6;" horiz-adv-x="598" 
d="M633 1132h-207l-128 199l-127 -199h-204l195 326h274z" />
    <glyph glyph-name="caron" unicode="&#x2c7;" horiz-adv-x="598" 
d="M633 1458l-197 -326h-274l-195 326h205l126 -200l128 200h207z" />
    <glyph glyph-name="macron" unicode="&#x2c9;" horiz-adv-x="622" 
d="M636 1185h-650v199h650v-199z" />
    <glyph glyph-name="breve" unicode="&#x2d8;" horiz-adv-x="620" 
d="M311 1317q109 0 126 124h201q-18 -147 -102 -227t-224 -80t-224 80q-83 80 -100 227h200q21 -124 123 -124z" />
    <glyph glyph-name="dotaccent" unicode="&#x2d9;" horiz-adv-x="611" 
d="M139 1219q1 69 51 119t117 50t116 -49t49 -121t-50 -119q-50 -48 -116 -48q-68 0 -119 49h1q-49 49 -49 119z" />
    <glyph glyph-name="ring" unicode="&#x2da;" horiz-adv-x="604" 
d="M302 1253q45 -1 77 33t32 66q-1 32 -9 51q-8 20 -23 35q-15 16 -35 24t-42 8q-46 0 -78 -32t-32 -76t32 -76t78 -33zM302 1600q99 0 169 -70t70 -170t-71 -168q-66 -69 -166 -69q-100 -1 -171 69q-70 70 -70 170t70 169h-1q71 69 170 69z" />
    <glyph glyph-name="ogonek" unicode="&#x2db;" horiz-adv-x="613" 
d="M72 -290q0 78 42 136t123 112t91 53h155q-193 -142 -193 -240q0 -71 74 -71q45 0 130 53l86 -107q-134 -116 -293 -116q-99 0 -157 52q-58 50 -58 128z" />
    <glyph glyph-name="tilde" unicode="&#x2dc;" horiz-adv-x="965" 
d="M347 1248q-74 0 -95 -95h-166q11 140 76 212t176 72q46 0 82 -13t106 -47q71 -33 105 -33q63 0 81 87h167q-18 -206 -151 -266q-42 -19 -102 -19t-154 51t-125 51z" />
    <glyph glyph-name="hungarumlaut" unicode="&#x2dd;" horiz-adv-x="599" 
d="M396 1132l185 301h282l-271 -301h-196zM-23 1132l185 301h284l-272 -301h-197z" />
    <glyph glyph-name="tonos" unicode="&#x384;" horiz-adv-x="698" 
d="M203 1132q167 272 184 301h283l-272 -301h-195z" />
    <glyph glyph-name="dieresistonos" unicode="&#x385;" horiz-adv-x="571" 
d="M93 1132l106 322h288l-195 -322h-199zM-250 1306q0 62 48 110t107 47q60 0 107 -47q47 -46 47 -110q1 -64 -45 -110t-109 -45q-63 0 -109 46q-46 47 -46 109zM668 1463q62 0 107 -47q46 -47 46 -95q0 -80 -46 -126v1q-45 -45 -107 -45t-96 34q-32 34 -44 62t-12 60
q0 31 12 59t44 62q34 34 96 35z" />
    <glyph glyph-name="Alphatonos" unicode="&#x386;" horiz-adv-x="1276" 
d="M28 1087l98 271h250l-191 -271h-157zM780 455l-149 412l-149 -412h298zM12 0q511 1298 541 1374h168l541 -1374h-315l-86 228h-462l-83 -228h-304z" />
    <glyph glyph-name="Epsilontonos" unicode="&#x388;" horiz-adv-x="977" 
d="M15 1358l-190 -271h-159l102 271h247zM405 1115v-276h377v-269h-377v-303h410l138 -267h-849v1358h823l-125 -243h-397z" />
    <glyph glyph-name="Etatonos" unicode="&#x389;" horiz-adv-x="1240" 
d="M15 1358l-190 -271h-159l102 271h247zM1136 0h-295v570h-436v-570h-301v1358h301v-519h436v519h295v-1358z" />
    <glyph glyph-name="Iotatonos" unicode="&#x38a;" horiz-adv-x="511" 
d="M15 1358l-190 -271h-159l102 271h247zM407 0h-301v1358h301v-1358z" />
    <glyph glyph-name="Omicrontonos" unicode="&#x38c;" 
d="M140 1358l-190 -271h-159l101 271h248zM716 255q156 0 256 116q100 117 101 311q-1 194 -101 308t-256 115q-156 0 -256 -114t-100 -310q0 -195 100 -310q100 -116 256 -116zM55 684q-1 314 193 504t470 190t467 -193q190 -193 190 -505q-1 -312 -191 -506t-468 -194
t-470 195v-1q-191 197 -191 510z" />
    <glyph glyph-name="Upsilontonos" unicode="&#x38e;" horiz-adv-x="1226" 
d="M-395 1087l98 271h250l-191 -271h-157zM758 0h-295v576l-425 782h317l263 -512l265 512h318l-443 -776v-582z" />
    <glyph glyph-name="Omegatonos" unicode="&#x38f;" horiz-adv-x="1520" 
d="M192 1358q-179 -255 -190 -271h-160l101 271h249zM887 0v114q102 117 168 270q65 153 65 274q0 122 -24 198t-76 134q-100 115 -257 115t-257 -114t-99 -319q-1 -204 135 -426q42 -68 97 -132v-114h-622l121 233h205q-241 224 -241 483q0 290 193 476t468 186t468 -186
t193 -476q0 -259 -241 -483h205l122 -233h-623z" />
    <glyph glyph-name="iotadieresistonos" unicode="&#x390;" horiz-adv-x="538" 
d="M87 388v467l278 102v-573q0 -110 33 -169q33 -58 98 -106l-185 -134q-117 73 -170 160q-54 96 -54 253zM114 1132l106 322h288l-195 -322h-199zM-229 1306q-1 62 47 110t108 47q60 0 107 -47q47 -46 47 -110t-46 -110t-108 -45q-63 0 -109 46q-46 47 -46 109zM688 1463
q62 0 108 -47t46 -95q0 -80 -46 -126v1q-46 -45 -108 -45t-95 34t-45 62t-11 60q-1 31 11 59t46 62q32 34 94 35z" />
    <glyph glyph-name="Alpha" unicode="&#x391;" horiz-adv-x="1276" 
d="M780 455l-149 412l-149 -412h298zM12 0q511 1298 541 1374h168l541 -1374h-315l-86 228h-462l-83 -228h-304z" />
    <glyph glyph-name="Beta" unicode="&#x392;" horiz-adv-x="1041" 
d="M401 267h74q177 0 211 94q12 33 12 80q0 166 -225 166h-72v-340zM401 828h74q189 0 189 150q0 74 -47 106t-144 31h-72v-287zM996 410q0 -410 -521 -410h-373v1358h371q249 0 368 -83t119 -258q0 -203 -154 -273l-1 -27q191 -94 191 -307z" />
    <glyph glyph-name="Gamma" unicode="&#x393;" horiz-adv-x="969" 
d="M400 1115v-1115h-300v1358h865l-127 -243h-438z" />
    <glyph glyph-name="Delta" unicode="&#x394;" horiz-adv-x="1270" 
d="M862 227l-233 639l-233 -639h466zM10 0q144 367 541 1374h168l541 -1374h-1250z" />
    <glyph glyph-name="Epsilon" unicode="&#x395;" horiz-adv-x="972" 
d="M400 1115v-276h378v-269h-378v-303h410l138 -267h-848v1358h823l-125 -243h-398z" />
    <glyph glyph-name="Zeta" unicode="&#x396;" horiz-adv-x="1152" 
d="M1125 271l-134 -271h-962l564 1091h-529l83 166q33 66 51 101h890l-563 -1087h600z" />
    <glyph glyph-name="Eta" unicode="&#x397;" horiz-adv-x="1235" 
d="M1133 0h-294v570h-439v-570h-300v1358h300v-519h439v519h294v-1358z" />
    <glyph glyph-name="Theta" unicode="&#x398;" 
d="M484 540l93 284h379q-83 -251 -94 -284h-378zM359 681q1 -194 101 -310t256 -116t256 117q101 118 101 310t-101 308q-102 115 -258 115t-255 -115q-100 -115 -100 -309zM55 684q-1 314 193 504t470 190t467 -194q190 -194 190 -504t-190 -505q-191 -195 -469 -195
t-470 195v-1q-191 197 -191 510z" />
    <glyph glyph-name="Iota" unicode="&#x399;" horiz-adv-x="506" 
d="M403 0h-300v1358h300v-1358z" />
    <glyph glyph-name="Kappa" unicode="&#x39a;" horiz-adv-x="1181" 
d="M401 0h-301v1358h301v-552l378 552h332l-471 -646l537 -712h-371l-405 560v-560z" />
    <glyph glyph-name="Lambda" unicode="&#x39b;" horiz-adv-x="1276" 
d="M12 0q511 1298 541 1374h168l541 -1374h-315l-316 867l-314 -867h-305z" />
    <glyph glyph-name="Mu" unicode="&#x39c;" horiz-adv-x="1540" 
d="M1493 0h-320l-98 711l-239 -715h-133l-243 715l-110 -711h-303l236 1360h193l316 -796l273 796h195z" />
    <glyph glyph-name="Nu" unicode="&#x39d;" horiz-adv-x="1266" 
d="M1165 -4h-154l-622 756v-752h-289v1360h157l621 -750v748h287v-1362z" />
    <glyph glyph-name="Xi" unicode="&#x39e;" horiz-adv-x="1049" 
d="M25 0q11 22 137 267h725l138 -267h-1000zM853 570h-657v269h657v-269zM1000 1358l-125 -243h-701q-32 63 -62 121t-63 122h951z" />
    <glyph glyph-name="Omicron" unicode="&#x39f;" 
d="M359 681q1 -194 101 -310t256 -116t256 117q101 118 101 310t-101 308q-102 115 -258 115t-255 -115q-100 -115 -100 -309zM55 684q-1 314 193 504t470 190t467 -194q190 -194 190 -504t-190 -505q-191 -195 -469 -195t-470 195v-1q-191 197 -191 510z" />
    <glyph glyph-name="Pi" unicode="&#x3a0;" horiz-adv-x="1235" 
d="M1133 0h-294v1089h-439v-1089h-300v1358h1033v-1358z" />
    <glyph glyph-name="Rho" unicode="&#x3a1;" horiz-adv-x="1011" 
d="M400 715h32q182 -1 217 113q12 38 12 92q0 109 -51 157t-176 48h-34v-410zM100 1362h341q525 0 525 -442q0 -220 -134 -332t-391 -112h-41v-476h-300v1362z" />
    <glyph glyph-name="Sigma" unicode="&#x3a3;" horiz-adv-x="972" 
d="M100 0v275l329 417l-329 412v254h823l-125 -243h-386l334 -423l-334 -425h398l138 -267h-848z" />
    <glyph glyph-name="Tau" unicode="&#x3a4;" horiz-adv-x="1073" 
d="M1039 1091h-355v-1091h-297v1091h-354v267h1006v-267z" />
    <glyph glyph-name="Upsilon" unicode="&#x3a5;" horiz-adv-x="1214" 
d="M746 0h-295v576l-426 782h317l264 -512l265 512h318l-443 -776v-582z" />
    <glyph glyph-name="Phi" unicode="&#x3a6;" horiz-adv-x="1506" 
d="M360 667q0 -139 65 -227t189 -98v648q-121 -10 -187 -97q-67 -87 -67 -226zM1146 667q0 217 -146 293q-46 24 -108 30v-648q123 10 189 98q65 88 65 227zM1451 666q0 -251 -149 -407t-410 -172v-135h-278v135q-258 16 -410 172q-149 166 -149 412t149 403
q151 156 410 169v161h278v-161q259 -13 410 -169q149 -157 149 -408z" />
    <glyph glyph-name="Chi" unicode="&#x3a7;" horiz-adv-x="1246" 
d="M638 953l224 405h333l-402 -662l426 -696h-331l-269 443l-261 -443h-331l431 708l-396 650h330z" />
    <glyph glyph-name="Psi" unicode="&#x3a8;" horiz-adv-x="1542" 
d="M1442 1358v-370q0 -294 -118 -442t-406 -190v-356h-295v356q-287 42 -405 190t-118 442v370h301v-334q1 -122 11 -194t56 -123q46 -52 155 -85v702q79 18 149 34t146 33v-769q183 56 212 210q11 77 11 192v334h301z" />
    <glyph glyph-name="Omega" unicode="&#x3a9;" horiz-adv-x="1512" 
d="M880 0v114q102 117 168 272t66 296q0 194 -100 308t-258 115q-156 0 -256 -114t-100 -319q0 -204 136 -426q42 -68 96 -132v-114h-622l121 233h205q-241 224 -241 483q0 290 193 476t468 186t468 -186t193 -476q0 -259 -241 -483h205l121 -233h-622z" />
    <glyph glyph-name="Iotadieresis" unicode="&#x3aa;" horiz-adv-x="506" 
d="M395 0h-300v1358h300v-1358zM-113 1629q0 63 47 110t107 47t107 -47t47 -111q1 -64 -45 -108q-46 -46 -108 -46t-109 46q-46 46 -46 109zM469 1786q60 0 106 -47t46 -95q0 -80 -46 -126v1q-45 -45 -107 -45t-108 46t-45 110q0 63 46 109v-1q48 48 108 48z" />
    <glyph glyph-name="Upsilondieresis" unicode="&#x3ab;" horiz-adv-x="1214" 
d="M746 0h-295v576l-426 782h317l264 -512l265 512h318l-443 -776v-582zM239 1634q0 63 47 110t107 47t107 -47q47 -46 47 -110q1 -64 -45 -110t-108 -45q-62 0 -109 46q-46 46 -46 109zM821 1791q60 0 106 -47t46 -95q0 -80 -46 -126v1q-45 -45 -107 -45q-62 1 -108 47
t-45 109q0 63 46 109v-1q48 48 108 48z" />
    <glyph glyph-name="alphatonos" unicode="&#x3ac;" horiz-adv-x="1152" 
d="M556 747q-104 0 -166 -74t-61 -199q0 -125 61 -202q62 -77 166 -77t165 78q60 79 60 200q0 195 -131 255q-42 20 -94 19zM498 -21q-173 0 -309 139t-136 354q1 216 137 354t308 138t297 -125q22 77 64 122l235 -100q-35 -53 -35 -142v-432q0 -124 12 -164t30 -69
l-236 -80q-46 46 -68 131q-126 -126 -299 -126zM393 1087q167 272 184 301h283l-272 -301h-195z" />
    <glyph glyph-name="epsilontonos" unicode="&#x3ad;" horiz-adv-x="897" 
d="M53 470q-1 228 133 361t348 133t328 -85l-113 -194q-97 62 -193 62q-164 0 -222 -199h346v-154h-345q54 -199 221 -199q98 0 196 63l112 -195q-118 -84 -331 -84t-348 132h1q-133 131 -133 359zM396 1087q167 272 184 301h283l-272 -301h-195z" />
    <glyph glyph-name="etatonos" unicode="&#x3ae;" horiz-adv-x="971" 
d="M338 787q124 177 304 177q129 0 194 -87t65 -281v-937q-72 -20 -139 -40t-139 -40v1013q1 71 -25 98t-73 27q-86 0 -130 -65q-45 -65 -45 -177v-475h-278v860q72 26 134 48t132 48v-169zM355 1087q167 272 184 301h283l-272 -301h-195z" />
    <glyph glyph-name="iotatonos" unicode="&#x3af;" horiz-adv-x="538" 
d="M91 388v467l278 102v-573q0 -110 33 -169q33 -58 98 -106l-185 -134q-117 73 -170 160q-54 96 -54 253zM89 1087q167 272 184 301h283l-272 -301h-195z" />
    <glyph glyph-name="upsilondieresistonos" unicode="&#x3b0;" horiz-adv-x="969" 
d="M894 382q0 -198 -107 -300t-310 -103t-307 101t-105 302v560h278v-560q0 -87 30 -122t105 -35q74 0 106 37t32 120v560h278v-560zM292 1132l106 322h288l-195 -322h-199zM-51 1306q-1 62 47 110t108 47q60 0 107 -47q47 -46 47 -110t-46 -110t-108 -45q-63 0 -109 46
q-46 47 -46 109zM866 1463q62 0 108 -47t46 -95q0 -80 -46 -126v1q-46 -45 -108 -45t-95 34t-45 62t-11 60q-1 31 11 59t46 62q32 34 94 35z" />
    <glyph glyph-name="alpha" unicode="&#x3b1;" horiz-adv-x="1173" 
d="M556 747q-104 0 -166 -74t-61 -199q0 -125 61 -202q62 -77 166 -77t165 78q60 79 60 200q0 195 -131 255q-42 20 -94 19zM498 -21q-173 0 -309 139t-136 354q1 216 137 354t308 138t297 -125q22 77 64 122l235 -100q-35 -53 -35 -142v-432q0 -124 12 -164t30 -69
l-236 -80q-46 46 -68 131q-126 -126 -299 -126z" />
    <glyph glyph-name="beta" unicode="&#x3b2;" horiz-adv-x="1135" 
d="M598 215q204 0 204 224q0 134 -83 189t-288 58q25 55 49 101t50 100q183 6 183 191q-1 130 -107 169q-32 12 -72 12q-83 0 -133 -57q-51 -57 -51 -152v-788q117 -47 248 -47zM1079 439q0 -218 -118 -342q-119 -121 -340 -121q-133 0 -271 56v-371l-278 -82v1417
q0 390 282 497q92 35 214 35q197 0 311 -114t114 -290t-130 -288l3 -25q213 -117 213 -372z" />
    <glyph glyph-name="gamma" unicode="&#x3b3;" horiz-adv-x="1007" 
d="M966 942l-339 -894v-387l-278 -82v471l-308 892h294l167 -591l186 591h278z" />
    <glyph glyph-name="delta" unicode="&#x3b4;" horiz-adv-x="1112" 
d="M556 747q-105 0 -166 -75q-61 -74 -61 -198q1 -124 61 -202t165 -77q105 -1 165 77t61 201q-1 193 -131 255q-42 20 -94 19zM476 1258q0 -33 65 -89t251 -176v1q265 -184 265 -521q0 -212 -142 -358q-149 -136 -361 -136t-358 138q-143 138 -143 356q0 178 99 306
q100 128 312 178q-229 138 -229 295q0 129 95 201q102 73 265 73t317 -62l-126 -147q-83 37 -167 37q-143 0 -143 -96z" />
    <glyph glyph-name="epsilon" unicode="&#x3b5;" horiz-adv-x="897" 
d="M53 470q-1 228 133 361t348 133t328 -85l-113 -194q-97 62 -193 62q-164 0 -222 -199h346v-154h-345q54 -199 221 -199q98 0 196 63l112 -195q-118 -84 -331 -84t-348 132h1q-133 131 -133 359z" />
    <glyph glyph-name="zeta" unicode="&#x3b6;" horiz-adv-x="982" 
d="M51 388q0 402 437 875h-369v238h775v-126q-400 -359 -516 -738q-37 -121 -37 -201q1 -80 11 -114q30 -93 178 -93h28q160 0 232 -21t121 -82t49 -166q0 -156 -129 -252q-37 -28 -85 -46q-28 32 -54 64t-53 64q80 49 80 116q0 40 -27 67t-136 27h-26q-273 0 -380 94
q-99 103 -99 294z" />
    <glyph glyph-name="eta" unicode="&#x3b7;" horiz-adv-x="971" 
d="M338 787q124 177 304 177q129 0 194 -87t65 -281v-937q-72 -20 -139 -40t-139 -40v1013q1 71 -25 98t-73 27q-86 0 -130 -65q-45 -65 -45 -177v-475h-278v860q72 26 134 48t132 48v-169z" />
    <glyph glyph-name="theta" unicode="&#x3b8;" horiz-adv-x="1037" 
d="M390 662q25 78 55 181h205l-57 -181h-203zM656 1137q-40 124 -136 124t-136 -125q-38 -112 -38 -318t9 -302q26 -279 165 -278q138 0 166 275q10 97 10 299q0 201 -40 325zM53 758q1 360 123 564t343 204t343 -202t122 -556q0 -355 -122 -578q-127 -211 -341 -211
q-215 0 -341 210t-127 569z" />
    <glyph glyph-name="iota" unicode="&#x3b9;" horiz-adv-x="538" 
d="M88 388v467l278 102v-573q0 -110 33 -169q33 -58 98 -106l-185 -134q-117 73 -170 160q-54 96 -54 253z" />
    <glyph glyph-name="kappa" unicode="&#x3ba;" horiz-adv-x="938" 
d="M349 0h-277v948h277v-373l232 373h330l-310 -428l333 -520h-351l-208 377l-26 -6v-371z" />
    <glyph glyph-name="lambda" unicode="&#x3bb;" horiz-adv-x="974" 
d="M463 593q-131 -524 -148 -593h-292l312 899q-55 143 -111 286l-112 286h281l429 -1137q46 -123 130 -192l-193 -166q-112 93 -159 235z" />
    <glyph glyph-name="mu" unicode="&#x3bc;" horiz-adv-x="991" 
d="M384 -21h-36v-318l-278 -82v1363h278v-592q0 -67 23 -96t73 -29q90 0 134 65t44 177v475h278v-645q0 -84 10 -119q10 -34 38 -85l-202 -111q-86 78 -111 177q-116 -180 -251 -180z" />
    <glyph glyph-name="nu" unicode="&#x3bd;" horiz-adv-x="970" 
d="M948 942l-359 -946h-239q-84 239 -164 473t-163 473h295l167 -591l185 591h278z" />
    <glyph glyph-name="xi" unicode="&#x3be;" horiz-adv-x="976" 
d="M607 1310q-95 0 -151 -50t-55 -127q0 -201 262 -201h80l-92 -213h-53q-118 0 -197 -81t-79 -197q0 -212 219 -212h27q160 0 232 -21t121 -82t49 -166q0 -154 -128 -250q-38 -28 -84 -48l-107 128q79 46 79 108t-36 82t-128 20h-25q-241 0 -365 110t-125 321q0 116 68 226
q68 103 221 179q-205 110 -205 297q0 154 122 273q123 117 323 117t356 -103l-96 -189q-138 79 -233 79z" />
    <glyph glyph-name="omicron" unicode="&#x3bf;" horiz-adv-x="1112" 
d="M556 747q-105 0 -166 -75q-61 -74 -61 -198q1 -124 61 -202t165 -77q105 -1 165 77t61 201q-1 193 -131 255q-42 20 -94 19zM556 964q217 0 359 -136t142 -351q0 -216 -142 -362q-149 -136 -361 -136t-358 138q-143 137 -143 355t143 355t360 137z" />
    <glyph glyph-name="pi" unicode="&#x3c0;" horiz-adv-x="1315" 
d="M750 350v369h-233v-719h-278v719h-198v223h1233l-106 -223h-141v-297q0 -131 36 -203t116 -142l-239 -103q-99 74 -145 159q-45 86 -45 217z" />
    <glyph glyph-name="rho" unicode="&#x3c1;" horiz-adv-x="1103" 
d="M563 195q101 1 156 79t55 199q0 195 -121 255q-39 20 -90 19q-106 0 -161 -70t-55 -204q0 -195 126 -258q40 -20 90 -20zM72 473q0 231 130 361t354 130t358 -134t134 -357q0 -222 -130 -360q-138 -134 -333 -134q-128 0 -235 86v-404l-278 -82v894z" />
    <glyph glyph-name="sigma1" unicode="&#x3c2;" horiz-adv-x="900" 
d="M553 747q-100 -1 -167 -79t-67 -203t57 -181t176 -55q330 0 330 -279q0 -94 -62 -173t-156 -115q-28 32 -54 64t-53 64q80 49 80 116q1 42 -23 68t-114 26q-223 0 -340 118t-117 346t137 365q146 135 358 135t325 -85l-113 -194q-97 62 -197 62z" />
    <glyph glyph-name="sigma" unicode="&#x3c3;" horiz-adv-x="1189" 
d="M556 747q-105 0 -166 -75q-61 -74 -61 -198q1 -124 61 -202t164 -77q104 0 166 78q61 78 61 200q-1 193 -131 255q-42 20 -94 19zM1057 473q0 -212 -142 -358q-149 -136 -361 -136t-358 138q-143 137 -143 355t143 355t360 137q71 0 119 -8q170 -14 214 -14h279
q-99 -191 -100 -193h-163q152 -107 152 -276z" />
    <glyph glyph-name="tau" unicode="&#x3c4;" horiz-adv-x="833" 
d="M248 388v331h-187v223h741l-106 -223h-170v-335q0 -110 33 -169q33 -58 98 -106l-186 -134q-116 73 -169 160q-54 96 -54 253z" />
    <glyph glyph-name="upsilon" unicode="&#x3c5;" horiz-adv-x="969" 
d="M899 382q0 -198 -107 -300t-310 -103q-204 -1 -308 101t-104 302v560h278v-560q0 -87 30 -122t105 -35q74 0 106 37t32 120v560h278v-560z" />
    <glyph glyph-name="phi" unicode="&#x3c6;" horiz-adv-x="1387" 
d="M555 751q-115 0 -171 -78q-56 -79 -55 -201q-1 -122 55 -200t171 -77v556zM833 195q115 1 170 79t55 199t-55 199t-170 79v-556zM833 968q233 0 366 -134t133 -362t-134 -359q-131 -134 -365 -134v-318l-278 -82v400q-230 0 -368 134q-132 139 -132 361t132 360
q140 134 368 134v465l278 82v-547z" />
    <glyph glyph-name="chi" unicode="&#x3c7;" horiz-adv-x="1024" 
d="M516 583l173 359h270l-310 -638l351 -732h-275l-216 448l-215 -448h-269l352 725q-94 200 -310 645h276z" />
    <glyph glyph-name="psi" unicode="&#x3c8;" horiz-adv-x="1416" 
d="M1346 473q0 -226 -132 -360t-367 -134v-318l-278 -82v400q-235 0 -367 134t-132 360v469h274v-469q0 -121 55 -199t170 -79v1238l278 82v-1320q115 -1 170 77t55 201v469h274v-469z" />
    <glyph glyph-name="omega" unicode="&#x3c9;" horiz-adv-x="1535" 
d="M1208 463q0 213 -179 479h298q154 -261 154 -480q0 -218 -106 -354t-288 -136q-217 0 -317 189q-110 -189 -320 -189q-176 0 -289 135q-108 146 -108 357t157 478h297q-178 -262 -178 -479q1 -119 35 -194q34 -74 101 -74q165 0 165 314v194q70 21 136 41t136 40v-271
q0 -142 42 -230t118 -88t111 75t35 193z" />
    <glyph glyph-name="iotadieresis" unicode="&#x3ca;" horiz-adv-x="538" 
d="M88 388v467l278 102v-573q0 -110 33 -169q33 -58 98 -106l-185 -134q-117 73 -170 160q-54 96 -54 253zM-85 1306q0 63 47 110t107 47t107 -47q47 -46 47 -110q1 -64 -45 -110t-108 -45q-62 0 -109 46q-46 46 -46 109zM497 1463q60 0 106 -47t46 -95q0 -80 -46 -126v1
q-45 -45 -107 -45q-62 1 -108 47t-45 109q0 63 46 109v-1q48 48 108 48z" />
    <glyph glyph-name="upsilondieresis" unicode="&#x3cb;" horiz-adv-x="969" 
d="M899 382q0 -198 -107 -300t-310 -103q-204 -1 -308 101t-104 302v560h278v-560q0 -87 30 -122t105 -35q74 0 106 37t32 120v560h278v-560zM121 1306q0 63 47 110t107 47t107 -47q47 -46 47 -110q1 -64 -45 -110t-108 -45q-62 0 -109 46q-46 46 -46 109zM703 1463
q60 0 106 -47t46 -95q0 -80 -46 -126v1q-45 -45 -107 -45q-62 1 -108 47t-45 109q0 63 46 109v-1q48 48 108 48z" />
    <glyph glyph-name="omicrontonos" unicode="&#x3cc;" horiz-adv-x="1112" 
d="M556 747q-105 0 -166 -75q-61 -74 -61 -198q1 -124 61 -202t165 -77q105 -1 165 77t61 201q-1 193 -131 255q-42 20 -94 19zM556 964q217 0 359 -136t142 -351q0 -216 -142 -362q-149 -136 -361 -136t-358 138q-143 137 -143 355t143 355t360 137zM401 1132
q167 272 184 301h283l-272 -301h-195z" />
    <glyph glyph-name="upsilontonos" unicode="&#x3cd;" horiz-adv-x="969" 
d="M899 382q0 -198 -107 -300t-310 -103q-204 -1 -308 101t-104 302v560h278v-560q0 -87 30 -122t105 -35q74 0 106 37t32 120v560h278v-560zM340 1132q167 272 184 301h283l-272 -301h-195z" />
    <glyph glyph-name="omegatonos" unicode="&#x3ce;" horiz-adv-x="1535" 
d="M1208 463q0 213 -179 479h298q154 -261 154 -480q0 -218 -106 -354t-288 -136q-217 0 -317 189q-110 -189 -320 -189q-176 0 -289 135q-108 146 -108 357t157 478h297q-178 -262 -178 -479q1 -119 35 -194q34 -74 101 -74q165 0 165 314v194q70 21 136 41t136 40v-271
q0 -142 42 -230t118 -88t111 75t35 193zM641 1132q167 272 184 301h283l-272 -301h-195z" />
    <glyph glyph-name="afii10023" unicode="&#x401;" horiz-adv-x="972" 
d="M400 1115v-276h378v-269h-378v-303h410l138 -267h-848v1358h823l-125 -243h-398zM154 1629q0 63 47 110t107 47t107 -47t47 -111t-46 -108q-46 -46 -108 -46t-108 46t-46 109zM736 1786q60 0 106 -47t46 -95q0 -80 -46 -126v1q-45 -45 -107 -45q-61 0 -107 46t-46 110
q0 63 46 109v-1q48 48 108 48z" />
    <glyph glyph-name="afii10051" unicode="&#x402;" horiz-adv-x="1522" 
d="M646 1115v-293q159 125 355 125q195 0 323 -144t128 -350q0 -205 -130 -343t-348 -138q-73 0 -210 30l69 233q63 -20 123 -20q95 0 147 70q51 71 51 173t-61 171q-64 70 -176 70q-111 -1 -191 -77t-80 -196v-426h-298v1115h-354v243h1121l-130 -243h-339z" />
    <glyph glyph-name="afii10052" unicode="&#x403;" horiz-adv-x="969" 
d="M400 1115v-1115h-300v1358h865l-127 -243h-438zM403 1468q15 25 183 298h279l-269 -298h-193z" />
    <glyph glyph-name="afii10053" unicode="&#x404;" horiz-adv-x="1158" 
d="M55 681q0 309 189 503t481 194q241 0 407 -123l-156 -238q-109 93 -241 93q-263 0 -356 -271h431v-267h-442q34 -157 127 -241t231 -84t250 95l156 -239q-166 -123 -407 -123q-291 0 -481 196t-189 505z" />
    <glyph glyph-name="afii10054" unicode="&#x405;" horiz-adv-x="1012" 
d="M530 1165q-85 0 -132 -37t-47 -94t41 -104q44 -46 180 -111t211 -113t127 -126q52 -80 53 -188q0 -204 -122 -308t-359 -104q-236 0 -427 142q41 63 136 220q151 -103 307 -103t156 125q0 78 -102 140q-46 28 -142 74q-97 47 -167 95v-1q-70 46 -125 134q-54 88 -54 218
q0 168 125 268t350 100t393 -111l-136 -197q-127 81 -266 81z" />
    <glyph glyph-name="afii10055" unicode="&#x406;" horiz-adv-x="506" 
d="M403 0h-300v1358h300v-1358z" />
    <glyph glyph-name="afii10056" unicode="&#x407;" horiz-adv-x="506" 
d="M395 0h-300v1358h300v-1358zM-113 1629q0 63 47 110t107 47t107 -47t47 -111q1 -64 -45 -108q-46 -46 -108 -46t-109 46q-46 46 -46 109zM469 1786q60 0 106 -47t46 -95q0 -80 -46 -126v1q-45 -45 -107 -45t-108 46t-45 110q0 63 46 109v-1q48 48 108 48z" />
    <glyph glyph-name="afii10057" unicode="&#x408;" horiz-adv-x="734" 
d="M633 420q0 -440 -335 -440q-172 0 -294 91q28 55 54 105t53 105q60 -40 117 -40q57 -1 81 39t24 142v936h300v-938z" />
    <glyph glyph-name="afii10058" unicode="&#x409;" horiz-adv-x="1866" 
d="M1176 250h64q134 0 186 41t53 133q0 162 -239 162h-64v-336zM1176 836h64q264 0 401 -104t137 -306q0 -426 -538 -426h-362v1089h-403v-604q-1 -139 -21 -235t-83 -168t-187 -110l-164 196q91 46 123 114q31 71 31 203v873h1002v-522z" />
    <glyph glyph-name="afii10059" unicode="&#x40a;" horiz-adv-x="1786" 
d="M1134 243h64q133 1 186 43t53 132q0 162 -239 162h-64v-337zM1134 830h64q264 0 400 -104t137 -306q0 -426 -537 -426h-358v576h-439v-570h-301v1358h301v-519h439v519h294v-528z" />
    <glyph glyph-name="afii10060" unicode="&#x40b;" horiz-adv-x="1477" 
d="M694 1091v-278h157q277 0 400 -91t123 -367v-355h-248v314q0 174 -70 216t-226 42h-136v-572h-299v1091h-354v267h1068q-22 -43 -137 -267h-278z" />
    <glyph glyph-name="afii10061" unicode="&#x40c;" horiz-adv-x="1183" 
d="M1054 1179q-48 0 -92 -32t-111 -148l-58 -101q-38 -65 -87 -109q-50 -45 -134 -92q76 -26 122 -72q46 -47 120 -144l363 -481h-359l-248 354q-96 138 -114 156t-53 18l-2 -528h-301v1358h301v-519h19q54 0 93 58q38 58 95 173q57 114 83 153q83 119 195 149q56 16 122 15
q67 0 134 -9q-2 -51 -4 -103t-4 -101q-33 5 -80 5zM513 1470q15 25 183 298h280l-269 -298h-194z" />
    <glyph glyph-name="uni040D" unicode="&#x40d;" horiz-adv-x="64" 
 />
    <glyph glyph-name="afii10062" unicode="&#x40e;" horiz-adv-x="1205" 
d="M597 73q-97 -93 -265 -93t-280 52l111 244q77 -31 142 -31t104 42t82 152l-460 919h330l282 -624q86 252 217 624h314l-196 -490t-191 -473q-93 -229 -190 -322zM639 1651q104 0 122 123h199q-17 -144 -100 -224t-222 -80t-222 80t-100 224h199q20 -123 124 -123z" />
    <glyph glyph-name="afii10145" unicode="&#x40f;" horiz-adv-x="1059" 
d="M1045 0h-350l-106 -296h-224l62 296h-415v1358h300v-1089h439v1089h294v-1358z" />
    <glyph glyph-name="afii10017" unicode="&#x410;" horiz-adv-x="1276" 
d="M780 455l-149 412l-149 -412h298zM12 0q511 1298 541 1374h168l541 -1374h-315l-86 228h-462l-83 -228h-304z" />
    <glyph glyph-name="afii10018" unicode="&#x411;" horiz-adv-x="1041" 
d="M401 250h63q136 0 188 42t52 132q0 162 -240 162h-63v-336zM401 1115v-279h63q266 0 402 -104t136 -306q0 -426 -538 -426h-362v1358h799l-128 -243h-372z" />
    <glyph glyph-name="afii10019" unicode="&#x412;" horiz-adv-x="1041" 
d="M401 267h74q177 0 211 94q12 33 12 80q0 166 -225 166h-72v-340zM401 828h74q189 0 189 150q0 74 -47 106t-144 31h-72v-287zM996 410q0 -410 -521 -410h-373v1358h371q249 0 368 -83t119 -258q0 -203 -154 -273l-1 -27q191 -94 191 -307z" />
    <glyph glyph-name="afii10020" unicode="&#x413;" horiz-adv-x="969" 
d="M400 1115v-1115h-300v1358h865l-127 -243h-438z" />
    <glyph glyph-name="afii10021" unicode="&#x414;" horiz-adv-x="1243" 
d="M795 267v848h-269v-475q0 -142 -16 -212t-87 -161h372zM41 -296v565q169 25 202 163q14 59 14 150v776h830v-1091h115l-261 -563h-181l85 296h-552l-86 -296h-166z" />
    <glyph glyph-name="afii10022" unicode="&#x415;" horiz-adv-x="972" 
d="M400 1115v-276h378v-269h-378v-303h410l138 -267h-848v1358h823l-125 -243h-398z" />
    <glyph glyph-name="afii10024" unicode="&#x416;" horiz-adv-x="1861" 
d="M1734 1179q-48 0 -92 -32t-111 -148l-58 -101q-38 -65 -87 -109q-50 -45 -134 -92q76 -26 122 -72q46 -47 120 -144l363 -481h-359l-249 355q-47 66 -77 107t-36 47v-1q-18 20 -55 20v-481q-78 -25 -151 -47t-150 -46v574q-40 0 -57 -21q-7 -7 -37 -49t-84 -117
l-239 -341h-359l431 568q72 93 176 129q-144 77 -226 209q-77 132 -99 165q-70 108 -170 108q-36 0 -69 -5l-8 204q74 9 138 9q140 0 227 -70q43 -30 78 -84t103 -188t98 -167q40 -39 97 -39v475q79 23 151 45t150 45v-565q56 0 93 38t103 172t94 173q83 118 195 150
q56 16 122 15q67 0 134 -9q-2 -51 -4 -103t-4 -101q-33 5 -80 5z" />
    <glyph glyph-name="afii10025" unicode="&#x417;" horiz-adv-x="976" 
d="M499 1378q189 0 292 -92t103 -256q0 -196 -174 -289l2 -27q93 -34 147 -118t54 -182q1 -210 -133 -322t-331 -112q-264 0 -430 221q42 47 80 91t80 88q52 -68 114 -108t152 -39q179 0 179 181q0 83 -53 126h1q-50 42 -255 42h-12v227h6q155 0 223 29q69 29 69 140
q0 147 -149 147t-260 -130l-153 163q185 220 448 220z" />
    <glyph glyph-name="afii10026" unicode="&#x418;" horiz-adv-x="1266" 
d="M100 -4v1362h289v-748l619 750h157v-1360h-287v752l-623 -756h-155z" />
    <glyph glyph-name="afii10027" unicode="&#x419;" horiz-adv-x="1266" 
d="M100 -4v1362h289v-748l619 750h157v-1360h-287v752l-623 -756h-155zM661 1651q103 0 123 123h198q-17 -144 -100 -224t-222 -80t-222 80t-99 224h198q21 -123 124 -123z" />
    <glyph glyph-name="afii10028" unicode="&#x41a;" horiz-adv-x="1183" 
d="M1054 1179q-48 0 -92 -32t-111 -148l-58 -101q-38 -65 -87 -109q-50 -45 -134 -92q76 -26 122 -72q46 -47 120 -144l363 -481h-359l-248 354q-96 138 -114 156t-53 18l-2 -528h-301v1358h301v-519h19q54 0 93 58q38 58 95 173q57 114 83 153q83 119 195 149q56 16 122 15
q67 0 134 -9q-2 -51 -4 -103t-4 -101q-33 5 -80 5z" />
    <glyph glyph-name="afii10029" unicode="&#x41b;" horiz-adv-x="1229" 
d="M1127 0h-294v1089h-403v-604q0 -139 -20 -236q-44 -208 -271 -277l-164 196q92 46 123 115t31 202v873h998v-1358z" />
    <glyph glyph-name="afii10030" unicode="&#x41c;" horiz-adv-x="1540" 
d="M1493 0h-320l-98 711l-239 -715h-133l-243 715l-110 -711h-303l236 1360h193l316 -796l273 796h195z" />
    <glyph glyph-name="afii10031" unicode="&#x41d;" horiz-adv-x="1235" 
d="M1133 0h-294v570h-439v-570h-300v1358h300v-519h439v519h294v-1358z" />
    <glyph glyph-name="afii10032" unicode="&#x41e;" 
d="M359 681q1 -194 101 -310t256 -116t256 117q101 118 101 310t-101 308q-102 115 -258 115t-255 -115q-100 -115 -100 -309zM55 684q-1 314 193 504t470 190t467 -194q190 -194 190 -504t-190 -505q-191 -195 -469 -195t-470 195v-1q-191 197 -191 510z" />
    <glyph glyph-name="afii10033" unicode="&#x41f;" horiz-adv-x="1235" 
d="M1133 0h-294v1089h-439v-1089h-300v1358h1033v-1358z" />
    <glyph glyph-name="afii10034" unicode="&#x420;" horiz-adv-x="1011" 
d="M400 715h32q182 -1 217 113q12 38 12 92q0 109 -51 157t-176 48h-34v-410zM100 1362h341q525 0 525 -442q0 -220 -134 -332t-391 -112h-41v-476h-300v1362z" />
    <glyph glyph-name="afii10035" unicode="&#x421;" horiz-adv-x="1158" 
d="M55 681q0 309 189 503t481 194q241 0 407 -123l-156 -238q-108 93 -262 93t-254 -118t-100 -313q0 -196 99 -314t251 -118t266 95l156 -239q-166 -123 -407 -123q-291 0 -481 196t-189 505z" />
    <glyph glyph-name="afii10036" unicode="&#x422;" horiz-adv-x="1073" 
d="M1039 1091h-355v-1091h-297v1091h-354v267h1006v-267z" />
    <glyph glyph-name="afii10037" unicode="&#x423;" horiz-adv-x="1205" 
d="M597 73q-97 -93 -265 -93t-280 52l111 244q77 -31 142 -31t104 42t82 152l-460 919h330l282 -624q86 252 217 624h314l-196 -490t-191 -473q-93 -229 -190 -322z" />
    <glyph glyph-name="afii10038" unicode="&#x424;" horiz-adv-x="1506" 
d="M360 667q0 -139 65 -227t189 -98v648q-121 -10 -187 -97q-67 -87 -67 -226zM1146 667q0 217 -146 293q-46 24 -108 30v-648q123 10 189 98q65 88 65 227zM1451 666q0 -251 -149 -407t-410 -172v-135h-278v135q-258 16 -410 172q-149 166 -149 412t149 403
q151 156 410 169v161h278v-161q259 -13 410 -169q149 -157 149 -408z" />
    <glyph glyph-name="afii10039" unicode="&#x425;" horiz-adv-x="1246" 
d="M638 953l224 405h333l-402 -662l426 -696h-331l-269 443l-261 -443h-331l431 708l-396 650h330z" />
    <glyph glyph-name="afii10040" unicode="&#x426;" horiz-adv-x="1338" 
d="M100 0v1358h300v-1089h439v1089h294v-1089h184l-201 -565h-223l61 296h-854z" />
    <glyph glyph-name="afii10041" unicode="&#x427;" horiz-adv-x="1218" 
d="M82 967v391h301v-358q0 -91 11 -121q29 -78 144 -92q41 -5 97 -5h187v576h293v-1358h-293v513h-223q-222 1 -321 49t-149 149l1 -1q-48 106 -48 257z" />
    <glyph glyph-name="afii10042" unicode="&#x428;" horiz-adv-x="1730" 
d="M1630 0h-1530v1358h300v-1089h325v1089h287v-1089h330v1089h288v-1358z" />
    <glyph glyph-name="afii10043" unicode="&#x429;" horiz-adv-x="1837" 
d="M100 0v1358h300v-1089h325v1089h287v-1089h330v1089h288v-1089h187l-202 -565h-224l62 296h-1353z" />
    <glyph glyph-name="afii10044" unicode="&#x42a;" horiz-adv-x="1164" 
d="M522 250h64q134 0 186 41t53 133q0 162 -239 162h-64v-336zM522 836h64q265 0 401 -104t136 -306q0 -426 -537 -426h-362v1115h-204v243h502v-522z" />
    <glyph glyph-name="afii10045" unicode="&#x42b;" horiz-adv-x="1556" 
d="M400 250h64q134 0 186 41t53 133q0 162 -239 162h-64v-336zM400 836h64q266 0 402 -104t136 -306q0 -426 -538 -426h-362v1358h298v-522zM1454 0h-301v1358h301v-1358z" />
    <glyph glyph-name="afii10046" unicode="&#x42c;" horiz-adv-x="1053" 
d="M401 250h63q136 0 188 42t52 132q0 162 -240 162h-63v-336zM401 836h63q266 0 402 -104t136 -306q0 -426 -538 -426h-362v1358h299v-522z" />
    <glyph glyph-name="afii10047" unicode="&#x42d;" horiz-adv-x="1156" 
d="M778 839q-93 271 -356 271q-131 0 -242 -93l-154 238q166 123 406 123q292 0 480 -194t189 -504q0 -308 -189 -504t-480 -196q-240 0 -406 123l155 238q115 -94 251 -94q208 1 307 187q32 60 49 138h-441v267h431z" />
    <glyph glyph-name="afii10048" unicode="&#x42e;" horiz-adv-x="1999" 
d="M1244 255q154 0 256 116q100 115 100 311t-102 310t-256 113q-156 0 -256 -114t-99 -312q-1 -197 101 -311t256 -113zM1244 1378q278 0 468 -193t190 -507t-192 -506t-466 -192q-235 0 -416 143q-178 143 -233 409h-192v-532h-301v1358h301v-539h190q52 267 233 413
t418 146z" />
    <glyph glyph-name="afii10049" unicode="&#x42f;" horiz-adv-x="1079" 
d="M679 721v396h-41q-225 0 -225 -192q0 -204 227 -204h39zM978 0h-299v490h-69l-259 -490h-326l316 545q-230 128 -230 395q0 189 123 306q133 112 402 112h342v-1358z" />
    <glyph glyph-name="afii10065" unicode="&#x430;" horiz-adv-x="1125" 
d="M536 195q100 0 156 75q57 75 57 203q0 198 -120 255q-40 19 -94 19q-97 1 -151 -75t-55 -199q0 -195 119 -258q38 -20 88 -20zM516 -21q-195 0 -333 134q-130 138 -130 361q0 222 134 356t348 134q169 0 271 -129l221 114v-652q0 -89 13 -128t34 -76l-217 -111
q-42 36 -71 123q-114 -126 -270 -126z" />
    <glyph glyph-name="afii10066" unicode="&#x431;" horiz-adv-x="1107" 
d="M556 747q-105 0 -166 -74t-61 -199q1 -125 61 -202t165 -77q105 -1 165 77t61 201q-1 193 -131 255q-42 20 -94 19zM556 964q217 0 359 -136t142 -351q0 -216 -142 -362q-149 -136 -359 -136q-374 -1 -470 337q-31 110 -31 250q0 358 132 556t422 279q212 54 269 79
q57 24 85 39q64 -126 97 -189q-132 -78 -373 -125q-241 -48 -315 -247l20 -19q79 25 164 25z" />
    <glyph glyph-name="afii10067" unicode="&#x432;" horiz-adv-x="970" 
d="M343 177h99q124 1 160 31t37 85q0 55 -38 86t-161 31h-97v-233zM343 566h97q123 0 144 55q7 18 7 42q0 51 -33 77q-33 25 -118 25h-97v-199zM919 289q0 -133 -77 -196q-78 -63 -176 -78t-228 -15h-366v942h368q427 0 427 -241q0 -140 -137 -184v-29q89 -16 139 -70
t50 -129z" />
    <glyph glyph-name="afii10068" unicode="&#x433;" horiz-adv-x="738" 
d="M350 719v-719h-278v942h641l-107 -223h-256z" />
    <glyph glyph-name="afii10069" unicode="&#x434;" horiz-adv-x="1156" 
d="M733 223v496h-270v-242q0 -157 -59 -254h329zM31 -277v500h96q76 91 76 254v465h808v-719h114l-256 -500h-231l83 277h-410l-83 -277h-197z" />
    <glyph glyph-name="afii10070" unicode="&#x435;" horiz-adv-x="1093" 
d="M555 749q-131 -1 -197 -139q-21 -44 -30 -101l431 96q-73 144 -204 144zM554 -21q-210 1 -356 137t-145 360t149 356t353 132t340 -121t153 -341l-698 -151q55 -156 202 -156t293 92q78 -138 106 -189q-187 -119 -397 -119z" />
    <glyph glyph-name="afii10072" unicode="&#x436;" horiz-adv-x="1490" 
d="M885 377v-377h-278v377h-22q-20 0 -27 -7q-7 -8 -15 -22q-9 -14 -23 -41t-36 -68t-44 -85t-44 -84q-22 -41 -36 -70h-340l186 287q58 91 90 136q33 45 74 81q-78 35 -158 133q-40 50 -63 64q-24 18 -45 18h-33q-12 0 -33 -2v230q54 17 106 17q111 0 208 -140
q82 -125 126 -168q44 -44 129 -44v330h278v-330q85 0 128 43h-1q39 39 134 174q94 135 207 135q47 0 101 -17v-230q-26 2 -36 2h-15q-36 0 -63 -19t-61 -63q-79 -98 -158 -133q60 -54 117 -142l232 -362h-339l-156 301q-26 52 -38 64q-14 12 -31 12h-21z" />
    <glyph glyph-name="afii10073" unicode="&#x437;" horiz-adv-x="869" 
d="M677 491q151 -59 151 -225q0 -84 -50 -152t-151 -105q-100 -37 -215 -37q-220 0 -392 106l108 183q145 -78 275 -78q155 0 155 110q0 61 -44 86t-151 25h-75v168h85q83 0 115 24t32 69q0 82 -120 82t-252 -65l-97 176q173 98 385 98q250 0 324 -140q24 -46 24 -103
q0 -136 -107 -195v-27z" />
    <glyph glyph-name="afii10074" unicode="&#x438;" horiz-adv-x="973" 
d="M901 0h-254v465l-490 -493h-85v970h254v-479l491 493h84v-956z" />
    <glyph glyph-name="afii10075" unicode="&#x439;" horiz-adv-x="973" 
d="M901 0h-254v465l-490 -493h-85v970h254v-479l491 493h84v-956zM485 1317q109 0 126 124h200q-17 -147 -101 -227t-224 -80t-224 80t-100 227h200q21 -124 123 -124z" />
    <glyph glyph-name="afii10076" unicode="&#x43a;" horiz-adv-x="1007" 
d="M380 377v-377h-278v942h278v-330q85 0 120 33t132 176q96 143 217 143q47 0 100 -17v-230q-27 2 -35 2h-15q-36 0 -62 -18t-63 -64q-79 -98 -158 -133q60 -54 117 -142l233 -362h-339l-156 301q-24 47 -38 64q-17 12 -30 12h-23z" />
    <glyph glyph-name="afii10077" unicode="&#x43b;" horiz-adv-x="1060" 
d="M988 0h-278v719h-257v-392q0 -183 -71 -250t-232 -103l-109 202q80 28 106 57q28 36 28 115v594h813v-942z" />
    <glyph glyph-name="afii10078" unicode="&#x43c;" horiz-adv-x="1307" 
d="M1264 0h-282l-62 418l-227 -439h-94l-227 439l-65 -418h-266l200 964h118l299 -553l299 553h119z" />
    <glyph glyph-name="afii10079" unicode="&#x43d;" horiz-adv-x="973" 
d="M901 0h-278v368h-273v-368h-278v942h278v-351h273v351h278v-942z" />
    <glyph glyph-name="afii10080" unicode="&#x43e;" horiz-adv-x="1112" 
d="M556 747q-105 0 -166 -75q-61 -74 -61 -198q1 -124 61 -202t165 -77q105 -1 165 77t61 201q-1 193 -131 255q-42 20 -94 19zM556 964q217 0 359 -136t142 -351q0 -216 -142 -362q-149 -136 -361 -136t-358 138q-143 137 -143 355t143 355t360 137z" />
    <glyph glyph-name="afii10081" unicode="&#x43f;" horiz-adv-x="973" 
d="M901 0h-278v719h-273v-719h-278v942h829v-942z" />
    <glyph glyph-name="afii10082" unicode="&#x440;" horiz-adv-x="1103" 
d="M563 195q101 1 156 79t55 199q0 195 -121 255q-39 20 -90 19q-106 0 -161 -70t-55 -204q0 -195 126 -258q40 -20 90 -20zM608 964q188 0 314 -138t126 -356q0 -219 -130 -357q-138 -134 -333 -134q-128 0 -235 86v-404l-278 -82v1375l223 -106q125 116 313 116z" />
    <glyph glyph-name="afii10083" unicode="&#x441;" horiz-adv-x="897" 
d="M53 470q-1 228 133 361t348 133t328 -85l-113 -194q-97 62 -197 62q-100 -1 -162 -79t-62 -198t62 -198q62 -77 163 -77q102 0 199 63l112 -195q-118 -84 -331 -84t-348 132h1q-133 131 -133 359z" />
    <glyph glyph-name="afii10084" unicode="&#x442;" horiz-adv-x="996" 
d="M591 719v-719h-278v719h-272v223h914l-107 -223h-257z" />
    <glyph glyph-name="afii10085" unicode="&#x443;" horiz-adv-x="970" 
d="M463 350l212 592h273q-62 -164 -122 -326t-166 -439q-105 -277 -201 -531l-313 -87l189 484l-312 899h292z" />
    <glyph glyph-name="afii10086" unicode="&#x444;" horiz-adv-x="1387" 
d="M555 747q-109 0 -172 -78q-54 -77 -54 -198q-1 -121 55 -199t171 -77v552zM833 195q115 1 170 79t55 199t-56 197t-169 77v-552zM833 964q235 0 367 -132t132 -360t-134 -359q-131 -134 -365 -134v-318l-278 -82v400q-230 0 -368 134q-132 138 -132 363q1 224 133 356
t367 132v469l278 82v-551z" />
    <glyph glyph-name="afii10087" unicode="&#x445;" horiz-adv-x="1017" 
d="M492 265q-150 -262 -152 -265h-315l319 490q-72 110 -148 226t-150 226h322l156 -237l131 237h312l-294 -457l320 -485h-323z" />
    <glyph glyph-name="afii10088" unicode="&#x446;" horiz-adv-x="1037" 
d="M72 0v942h278v-719h274v719h277v-719h95l-237 -500h-223l82 277h-546z" />
    <glyph glyph-name="afii10089" unicode="&#x447;" horiz-adv-x="962" 
d="M890 0h-278v288h-130q-222 0 -327 78q-104 74 -104 313v263h230v-261q1 -119 49 -151t182 -32h100v444h278v-942z" />
    <glyph glyph-name="afii10090" unicode="&#x448;" horiz-adv-x="1482" 
d="M1411 0h-1339v942h280v-719h251v719h278v-719h253v719h277v-942z" />
    <glyph glyph-name="afii10091" unicode="&#x449;" horiz-adv-x="1547" 
d="M72 0v942h280v-719h251v719h278v-719h253v719h278v-719h94q-30 -65 -60 -127t-60 -122q-30 -62 -58 -124q-29 -62 -60 -127h-222l83 277h-1057z" />
    <glyph glyph-name="afii10092" unicode="&#x44a;" horiz-adv-x="1131" 
d="M534 181h81q117 0 155 26v-1q42 26 42 88t-43 86q-43 26 -154 26h-81v-225zM534 587h81q265 0 370 -72t105 -218q0 -225 -261 -279q-90 -18 -214 -18h-359v738h-215v204h493v-355z" />
    <glyph glyph-name="afii10093" unicode="&#x44b;" horiz-adv-x="1360" 
d="M350 181h80q117 -1 157 25t40 88t-43 86q-43 26 -154 26h-80v-225zM350 587h80q266 0 370 -72t105 -218q0 -225 -260 -279q-90 -18 -215 -18h-358v942h278v-355zM1288 0h-277v855l277 102v-957z" />
    <glyph glyph-name="afii10094" unicode="&#x44c;" horiz-adv-x="946" 
d="M350 181h80q117 -1 157 25t40 88t-43 86q-43 26 -154 26h-80v-225zM350 587h80q266 0 370 -72t105 -218q0 -225 -260 -279q-90 -18 -215 -18h-358v942h278v-355z" />
    <glyph glyph-name="afii10095" unicode="&#x44d;" horiz-adv-x="898" 
d="M364 964q214 0 348 -133t133 -361q0 -228 -133 -359h1q-135 -132 -347 -132t-333 84l114 195q98 -63 195 -63q167 0 221 199h-345v154h345q-57 199 -221 199q-95 0 -192 -62l-115 194q115 85 329 85z" />
    <glyph glyph-name="afii10096" unicode="&#x44e;" horiz-adv-x="1577" 
d="M1035 747q-105 0 -166 -75q-61 -74 -61 -198t60 -202t166 -77q104 0 167 78q60 79 60 200q0 195 -131 255q-42 20 -95 19zM1035 964q217 0 359 -136t142 -360t-144 -356t-342 -133q-198 1 -332 101t-176 288h-192v-368h-278v855l278 102v-366h194q46 181 179 277t312 96z
" />
    <glyph glyph-name="afii10097" unicode="&#x44f;" horiz-adv-x="980" 
d="M633 528v221h-71q-87 0 -124 -25q-37 -24 -37 -84t37 -86t124 -26h71zM108 640q0 146 111 224t328 78h362v-942h-276v347h-71l-178 -347h-343l257 389q-132 54 -176 175q-14 37 -14 76z" />
    <glyph glyph-name="afii10071" unicode="&#x451;" horiz-adv-x="1093" 
d="M555 749q-131 -1 -197 -139q-21 -44 -30 -101l431 96q-73 144 -204 144zM554 -21q-210 1 -356 137t-145 360t149 356t353 132t340 -121t153 -341l-698 -151q55 -156 202 -156t293 92q78 -138 106 -189q-187 -119 -397 -119zM177 1306q0 63 47 110t107 47t107 -47
q47 -46 47 -110q1 -64 -45 -110t-108 -45q-62 0 -109 46q-46 46 -46 109zM759 1463q60 0 106 -47t46 -95q0 -80 -46 -126v1q-45 -45 -107 -45q-62 1 -108 47t-45 109q0 63 46 109v-1q48 48 108 48z" />
    <glyph glyph-name="afii10099" unicode="&#x452;" horiz-adv-x="1018" 
d="M948 146q0 -241 -96 -367t-323 -197q-26 54 -48 100t-47 98q116 36 176 103t60 211v498q0 71 -26 98t-72 27q-87 0 -131 -65q-45 -65 -45 -177v-475h-278v1112h-118v160h118v134l267 95v-229h335l-81 -160h-254v-325q84 125 209 165q39 12 78 12q152 0 214 -86t62 -282
v-450z" />
    <glyph glyph-name="afii10100" unicode="&#x453;" horiz-adv-x="738" 
d="M350 719v-719h-278v942h641l-107 -223h-256zM258 1132q167 272 184 301h283l-272 -301h-195z" />
    <glyph glyph-name="afii10101" unicode="&#x454;" horiz-adv-x="897" 
d="M53 470q-1 228 133 361t348 133t328 -85l-113 -194q-97 62 -193 62q-164 0 -222 -199h346v-154h-345q54 -199 221 -199q98 0 196 63l112 -195q-118 -84 -331 -84t-348 132h1q-133 131 -133 359z" />
    <glyph glyph-name="afii10102" unicode="&#x455;" horiz-adv-x="777" 
d="M411 769q-100 0 -100 -76q0 -44 27 -62t116 -51q183 -68 235 -139q52 -70 52 -164q0 -139 -104 -219q-103 -80 -273 -79q-170 0 -322 116l107 159q100 -82 230 -82q96 0 96 81q0 37 -28 55t-122 52t-144 60q-49 26 -97 92t-47 184q0 118 102 193t280 75t299 -88
l-107 -157q-100 50 -200 50z" />
    <glyph glyph-name="afii10103" unicode="&#x456;" horiz-adv-x="457" 
d="M366 0h-278v855l278 102v-957zM228 1388q68 0 118 -50t50 -120t-50 -119q-50 -50 -118 -50q-68 -1 -118 49t-49 120q-1 70 49 120t118 50z" />
    <glyph glyph-name="afii10104" unicode="&#x457;" horiz-adv-x="457" 
d="M365 0h-276v855l276 102v-957zM16 1463q60 1 107 -47t47 -110t-46 -109q-46 -46 -108 -46q-62 1 -108 47t-47 108t47 110t108 47zM444 1463q60 -1 106 -47t45 -110q0 -64 -45 -111v1q-46 -45 -108 -45q-62 -1 -107 45t-45 110t45 110v-1q49 48 109 48z" />
    <glyph glyph-name="afii10105" unicode="&#x458;" horiz-adv-x="473" 
d="M373 146q-1 -242 -97 -368t-322 -196q-26 54 -48 100t-47 98q117 36 177 102t59 212v761l278 102v-811zM233 1049q-67 0 -116 50q-49 49 -49 119t48 120t116 50t118 -50t51 -120q-1 -68 -51 -118t-117 -51z" />
    <glyph glyph-name="afii10106" unicode="&#x459;" horiz-adv-x="1587" 
d="M989 181h82q117 -1 157 25t40 87t-44 87t-153 26h-82v-225zM989 587h82q263 -1 369 -73t106 -217q0 -225 -261 -279q-90 -18 -214 -18h-360v719h-257v-392q0 -183 -72 -253t-230 -106l-111 199q83 29 109 64t26 117v594h813v-355z" />
    <glyph glyph-name="afii10107" unicode="&#x45a;" horiz-adv-x="1500" 
d="M902 181h81q117 0 157 26t41 89q0 62 -48 86t-150 24h-81v-225zM902 587h81q265 0 371 -73t105 -217q0 -225 -261 -279q-90 -18 -215 -18h-359v368h-274v-368h-278v856l278 102v-367h274v351h278v-355z" />
    <glyph glyph-name="afii10108" unicode="&#x45b;" horiz-adv-x="1018" 
d="M948 0h-278v592q0 71 -26 98t-72 27q-87 0 -131 -65q-45 -65 -45 -177v-475h-278v1112h-118v160h118v134l267 95v-229h335l-81 -160h-254v-325q84 125 209 165q39 12 78 12q152 0 214 -86t62 -282v-596z" />
    <glyph glyph-name="afii10109" unicode="&#x45c;" horiz-adv-x="1005" 
d="M841 964q51 0 108 -17v-230q-28 2 -37 2h-14q-37 0 -64 -19t-60 -63v1q-85 -102 -159 -134q56 -50 118 -142l231 -362h-339l-156 301q-22 45 -35 60q-14 16 -33 16h-22v-377h-277v942h277v-330q86 0 128 43h-1q42 42 129 169q45 64 100 102t106 38zM363 1132l185 301h281
l-269 -301h-197z" />
    <glyph glyph-name="afii10110" unicode="&#x45e;" horiz-adv-x="970" 
d="M463 350l212 592h273q-62 -164 -122 -326t-166 -439q-105 -277 -201 -531l-313 -87l189 484l-312 899h292zM471 1317q105 0 124 124h200q-17 -147 -101 -227t-224 -80t-224 80t-102 227h202q20 -124 125 -124z" />
    <glyph glyph-name="afii10193" unicode="&#x45f;" horiz-adv-x="973" 
d="M901 0h-284l-131 -277h-223l85 277h-276v942h278v-719h273v719h278v-942z" />
    <glyph glyph-name="afii10050" unicode="&#x490;" horiz-adv-x="1000" 
d="M955 1115h-555v-1115h-300v1358h576l86 298h193v-541z" />
    <glyph glyph-name="afii10098" unicode="&#x491;" horiz-adv-x="755" 
d="M714 1215v-496h-364v-719h-278v942h396l83 273h163z" />
    <glyph glyph-name="uni10D0" unicode="&#x10d0;" horiz-adv-x="1163" 
d="M335 472q-1 -56 15 -106t46 -86t74 -58t104 -22q114 0 177 79t63 184t-42 174t-128 121q-170 102 -170 253q0 37 20 95l227 72v-68q0 -102 112 -178q259 -178 259 -439q0 -243 -148 -378t-370 -135q-221 0 -370 138q-148 138 -148 353q0 115 54 223l255 -76
q-30 -90 -30 -146z" />
    <glyph glyph-name="uni10D1" unicode="&#x10d1;" horiz-adv-x="1177" 
d="M759 661q-67 83 -174 116q-165 -57 -217 -206q-17 -49 -17 -105q0 -118 62 -192t177 -74t176 75q60 75 60 189t-67 197zM390 1409q0 -35 14 -47t55 -13h269v-390q268 -109 350 -328q28 -75 28 -177t-41 -192t-111 -152q-144 -130 -366 -130q-221 0 -369 134t-148 351
q0 169 107 295q107 125 273 198v183h-125q-93 1 -123 27q-54 46 -54 136v104l241 73v-72z" />
    <glyph glyph-name="uni10D2" unicode="&#x10d2;" horiz-adv-x="1287" 
d="M897 187q-67 80 -177 115q-166 -60 -216 -202q-17 -48 -17 -102q0 -109 63 -180t176 -71q114 0 176 74t62 180t-67 186zM84 611q0 171 108 261q108 91 294 91q294 0 375 -220q26 -71 26 -161v-98q157 -61 256 -190t99 -291q0 -213 -149 -344t-369 -131t-368 130
q-147 130 -147 337q0 168 112 301t290 199v91q0 112 -71 150q-24 13 -58 13q-68 0 -103 -40q-34 -40 -34 -95t26 -110l-230 -79q-57 91 -57 186z" />
    <glyph glyph-name="uni10D3" unicode="&#x10d3;" horiz-adv-x="1843" 
d="M1261 213q59 0 103 21q44 22 73 58t43 85t15 104q0 116 -60 189t-173 73q-112 -1 -173 -69t-61 -193q0 -185 130 -247q44 -22 103 -21zM433 -73q-354 163 -354 546q0 220 144 355t369 135q184 0 320 -119q144 119 355 119t358 -131t147 -350q0 -218 -142 -353t-366 -135
q-223 0 -369 133q-145 133 -145 354q0 93 29 172q-75 90 -187 90t-174 -75q-61 -75 -61 -190q0 -221 160 -370t420 -183q325 -45 409 -74q132 -47 192 -109t107 -147l-234 -67q-78 105 -270 141q-192 35 -567 35h-444v223h303z" />
    <glyph glyph-name="uni10D4" unicode="&#x10d4;" horiz-adv-x="1149" 
d="M317 14q-1 -50 15 -100t46 -87t75 -59t104 -21q112 0 176 74q65 74 65 161q0 160 -16 388q-16 229 -36 270q-20 40 -46 61q-53 44 -141 44q-87 0 -144 -42t-57 -121q0 -10 7 -63h-247q-7 40 -7 116q-1 75 41 141t108 108q125 80 298 79q323 0 422 -189q74 -144 93 -671
q2 -56 2 -83q0 -228 -148 -360t-370 -132q-223 0 -371 138q-147 138 -147 353q0 87 25 166l263 -76q-10 -44 -10 -95z" />
    <glyph glyph-name="uni10D5" unicode="&#x10d5;" horiz-adv-x="1169" 
d="M341 19q-1 -55 15 -105t46 -87t74 -59t104 -21q111 1 175 75t64 170t-67 152q-67 55 -166 55h-83v219h90q85 0 135 46t50 122q0 78 -46 118t-114 41q-109 0 -161 -51t-52 -136v-6q0 -14 6 -45l-240 83q-4 28 -4 48q0 154 122 240q122 85 318 85t323 -98t127 -264
q0 -133 -112 -225q-35 -28 -78 -48q165 -67 215 -207q16 -47 16 -131t-41 -174q-41 -91 -111 -155q-147 -133 -367 -133t-369 138q-148 138 -148 354q0 98 28 182l263 -79q-12 -48 -12 -104z" />
    <glyph glyph-name="uni10D6" unicode="&#x10d6;" horiz-adv-x="1517" 
d="M487 1043q39 42 39 113q0 144 -142 144q-64 0 -102 -39t-38 -109t39 -111q39 -40 102 -40t102 42zM926 200q116 0 178 76t62 197t-61 189t-175 69q-114 0 -177 -75t-63 -195q0 -181 130 -241q44 -20 106 -20zM966 947q202 0 340 -132q139 -132 139 -349t-149 -352
q-149 -134 -373 -134q-223 0 -366 131t-143 349q0 135 69 390q-50 -27 -128 -27q-158 0 -254 88q-97 88 -97 242q0 153 105 239t280 86t276 -86q100 -86 100 -214t-59 -313q111 82 260 82z" />
    <glyph glyph-name="uni10D7" unicode="&#x10d7;" horiz-adv-x="1857" 
d="M590 200q114 0 176 78q61 78 61 197t-64 194q-64 74 -175 74q-112 0 -175 -78t-63 -194q0 -185 136 -249q44 -22 104 -22zM1506 479q0 125 -64 195t-186 69q-121 0 -192 -78q42 -87 42 -197q0 -216 -149 -352t-370 -136t-369 138q-147 138 -147 357t151 353
q151 135 357 135q207 0 351 -115q141 115 325 115q228 0 379 -132t151 -352q0 -278 -223 -501l-246 93q190 182 190 408z" />
    <glyph glyph-name="uni10D8" unicode="&#x10d8;" horiz-adv-x="1203" 
d="M71 479q0 218 149 351t379 133t381 -131t151 -353q0 -274 -214 -502l-234 83q92 108 130 205q39 97 39 218t-64 191t-186 69q-121 1 -186 -69t-65 -191t39 -220t130 -203l-233 -82q-216 235 -216 501z" />
    <glyph glyph-name="uni10D9" unicode="&#x10d9;" horiz-adv-x="1138" 
d="M302 13q0 -49 15 -99t45 -87t75 -59t104 -21q110 1 174 75t64 170t-65 151q-65 56 -159 56h-92v219h90q84 0 135 46t51 118t-33 106q-50 50 -230 64q-28 2 -53 4l138 206q207 -2 332 -99t125 -262q0 -133 -114 -225q-36 -28 -78 -48q168 -68 216 -207q16 -47 17 -131
q0 -84 -41 -174q-42 -91 -112 -155q-147 -133 -367 -133q-221 0 -369 138t-148 354q0 105 26 183l262 -78q-8 -62 -8 -112z" />
    <glyph glyph-name="uni10DA" unicode="&#x10da;" horiz-adv-x="2256" 
d="M517 739q-166 0 -166 -247t194 -395q194 -147 500 -172q450 -36 611 -84q199 -61 303 -246l-235 -67q-108 162 -836 174q-119 2 -238 2h-525v223h300q-352 164 -352 582q0 222 123 338t304 116q108 0 190 -37t138 -130q93 167 308 167q216 0 306 -166q97 166 329 166
q180 0 299 -103q118 -103 118 -278q0 -176 -112 -358l-257 80q90 147 90 270q0 165 -149 165q-187 0 -187 -271v-129h-273v134q0 209 -89 251q-31 14 -75 15q-91 -1 -133 -63q-43 -62 -43 -203v-134h-272v129q0 144 -42 208t-129 63z" />
    <glyph glyph-name="uni10DB" unicode="&#x10db;" horiz-adv-x="1215" 
d="M701 222q135 68 135 256q0 119 -66 192t-177 73q-112 -1 -174 -77t-62 -193t62 -195q61 -78 177 -78q60 0 105 22zM563 963q159 0 273 -97v135q0 186 -131 241q-45 19 -102 19q-106 0 -166 -53t-60 -135v-6q0 -13 6 -44l-241 82q-4 30 -4 50q0 150 132 237t334 87
q261 0 385 -129t124 -348v-526q0 -222 -148 -359t-369 -137q-222 0 -370 139q-149 139 -149 356t144 352q144 136 342 136z" />
    <glyph glyph-name="uni10DC" unicode="&#x10dc;" horiz-adv-x="1214" 
d="M795 666q-62 76 -174 77q-112 0 -177 -73q-66 -73 -66 -192q0 -118 63 -198t177 -80q115 0 177 78t62 195t-62 193zM364 868q108 87 297 87q188 0 332 -132q143 -132 143 -348q0 -217 -149 -356t-369 -139q-221 0 -369 135t-148 361v926l269 77q115 -65 265 -65t220 65
l262 -77q-113 -148 -327 -193q-67 -14 -137 -14q-170 0 -289 51v-378z" />
    <glyph glyph-name="uni10DD" unicode="&#x10dd;" horiz-adv-x="1716" 
d="M324 -28q-253 326 -253 550q0 216 127 329q127 112 302 112q244 0 359 -176q115 176 342 176q190 0 317 -112t127 -312q-1 -199 -155 -431q-46 -68 -97 -136l-251 95q223 275 223 478q-1 133 -91 178q-32 16 -78 16q-98 0 -150 -73t-53 -218v-108h-273v110
q0 289 -200 289q-129 0 -160 -120q-9 -35 -9 -74q-1 -115 59 -231t165 -246z" />
    <glyph glyph-name="uni10DE" unicode="&#x10de;" horiz-adv-x="1161" 
d="M324 459q0 -43 16 -93t45 -86q30 -36 75 -58t104 -22q110 0 175 75q64 75 64 171t-66 150q-66 55 -164 55h-93v220h91q81 0 133 41q53 41 53 104q0 103 -192 147q-377 82 -447 301l251 74q53 -104 225 -150q48 -12 116 -30q160 -41 242 -117t82 -202q0 -127 -110 -213
q-35 -28 -78 -46q167 -67 218 -209q17 -47 17 -129t-41 -174q-41 -91 -111 -155q-145 -133 -366 -133t-370 138q-148 138 -148 354q0 87 30 175l262 -76q-13 -68 -13 -112z" />
    <glyph glyph-name="uni10DF" unicode="&#x10df;" horiz-adv-x="1347" 
d="M716 795q197 0 263 150h275v-932q0 -219 -150 -352t-384 -133q-235 0 -384 137t-149 354q0 54 21 115l263 -82q-15 -73 9 -134q65 -171 234 -171q124 -1 193 79t69 194v659q-72 -68 -189 -68q-13 -1 -21 -1t-21 2q7 -34 7 -86t-29 -112t-77 -102q-102 -90 -249 -90
t-251 92t-104 229q0 62 24 124l220 -65q-7 -22 -7 -58q1 -36 35 -68t73 -32q63 0 97 32q33 32 33 84t-50 92l113 168q67 -25 136 -25z" />
    <glyph glyph-name="uni10E0" unicode="&#x10e0;" horiz-adv-x="1716" 
d="M720 450q0 289 -200 289q-129 0 -160 -120q-9 -35 -9 -74q-1 -115 59 -231t165 -246l-251 -96q-121 156 -167 255q-86 184 -86 353q0 348 154 538t492 238l96 13q190 26 245 46q102 36 158 123l253 -74q-87 -208 -415 -282q-108 -24 -222 -38q-221 -27 -339 -89
t-164 -181q89 89 224 89q135 -1 239 -97q36 -34 67 -79q115 176 342 176q190 0 317 -112t127 -312q-1 -199 -155 -431q-46 -68 -97 -136l-251 95q223 275 223 478q-1 133 -91 178q-32 16 -78 16q-98 0 -150 -73t-53 -218v-108h-273v110z" />
    <glyph glyph-name="uni10E1" unicode="&#x10e1;" horiz-adv-x="1187" 
d="M377 487q0 -203 129 -266q43 -21 101 -21q111 0 170 72t59 177q0 104 -54 196q-45 85 -45 139t16 88l219 71v-79q0 -40 18 -74t37 -66q44 -72 67 -128q22 -56 22 -150t-38 -182t-104 -151q-142 -133 -367 -133q-224 0 -365 133t-141 358v931l276 79v-994z" />
    <glyph glyph-name="uni10E2" unicode="&#x10e2;" horiz-adv-x="1542" 
d="M773 962q33 0 61 11t46 31q20 20 30 45q10 26 11 56q0 60 -43 102t-91 42q-80 0 -122 -42t-42 -87q0 -46 11 -72t31 -45q19 -19 47 -30t61 -11zM882 502q42 46 42 95t-11 78t-31 51t-48 35t-61 13q-64 0 -105 -47q-42 -47 -42 -97t12 -79t31 -50q43 -45 107 -45t106 46z
M348 277q0 -228 117 -379t308 -151q190 0 305 154q116 154 116 368t-99 366q7 -21 7 -73t-22 -112t-64 -104q-91 -96 -245 -96t-242 94t-88 232q0 34 10 70q-103 -141 -103 -369zM1473 248q0 -317 -196 -519q-196 -201 -508 -201t-506 201t-194 519q0 225 115 400t309 254
h-3q-92 98 -92 229t103 228t273 97q171 0 271 -97t100 -224q0 -128 -93 -232h-3q193 -80 309 -256q115 -175 115 -399z" />
    <glyph glyph-name="uni10E3" unicode="&#x10e3;" horiz-adv-x="1351" 
d="M381 18q0 -113 84 -192t216 -79q131 0 213 87t82 221v501q0 104 -18 133q-18 28 -36 35t-43 7q-97 0 -97 -184v-173h-239v179q-1 131 -43 163q-18 14 -42 14q-43 0 -61 -23t-34 -62t-35 -69t-56 -46l-274 79q63 27 89 60t50 85q24 51 43 86q67 123 241 123t239 -136
q68 136 250 136t268 -104q72 -87 73 -217v-570q0 -262 -158 -403t-412 -141q-255 0 -417 138t-162 353q0 99 26 177l263 -79q-10 -44 -10 -99z" />
    <glyph glyph-name="uni10E4" unicode="&#x10e4;" horiz-adv-x="1521" 
d="M416 440q62 0 96 41t34 91t-9 79t-26 50t-41 33t-54 12q-60 0 -96 -45q-35 -45 -35 -112t34 -108q35 -41 97 -41zM507 -22q1 -38 23 -84t66 -78q93 -70 248 -69q156 0 241 65t85 168t-66 161t-166 58h-85v219h91q85 0 135 44t50 122q1 78 -47 120t-118 42
q-125 0 -187 -62h2q13 -45 13 -114t-30 -136q-30 -66 -82 -114q-107 -99 -263 -100q-156 0 -266 102t-110 268q0 167 110 270t261 103q152 0 264 -99q113 99 299 99q185 0 310 -100q124 -100 124 -266q0 -132 -113 -222q-35 -28 -78 -47q105 -42 168 -124t63 -198
q0 -225 -163 -352q-163 -126 -450 -126q-286 0 -447 129t-161 337q0 75 26 153l260 -78q-7 -53 -7 -91z" />
    <glyph glyph-name="uni10E5" unicode="&#x10e5;" horiz-adv-x="1196" 
d="M341 16q0 -114 62 -192q62 -77 176 -77q113 0 177 77q63 77 63 185v534q-4 202 -210 202q-91 0 -142 -51t-51 -137q0 -18 7 -50l-238 72q-7 37 -7 59q0 151 119 238t276 87q158 0 246 -71v510l277 79v-1479q0 -205 -151 -340q-151 -134 -369 -134q-217 0 -366 138
q-148 138 -148 354q0 92 28 181l263 -79q-12 -54 -12 -106z" />
    <glyph glyph-name="uni10E6" unicode="&#x10e6;" horiz-adv-x="1719" 
d="M426 -73q-352 162 -352 575q0 232 123 346q123 115 302 115q248 0 363 -176q115 176 342 176q190 0 317 -112t127 -312q0 -199 -154 -431q-46 -68 -98 -136l-251 95q103 127 163 245t60 242q0 125 -90 169q-32 16 -79 16q-99 1 -151 -73t-52 -218v-108h-273v108
q0 291 -200 291q-91 0 -130 -64q-39 -63 -39 -181q0 -227 160 -379t417 -190q61 -9 123 -18q309 -45 402 -107q94 -62 143 -138q22 -34 39 -67l-232 -67q-78 105 -269 141q-191 35 -570 35h-443v223h302z" />
    <glyph glyph-name="uni10E7" unicode="&#x10e7;" horiz-adv-x="1089" 
d="M333 -68q0 -86 51 -136t151 -49q100 0 147 58q46 58 46 195v355q-113 -133 -281 -133t-243 102t-75 269v351h275v-332q0 -77 18 -104q32 -48 90 -48q103 0 152 74q50 74 50 192v218h276v-943q0 -355 -264 -445q-84 -28 -194 -28q-216 0 -338 108t-122 281q0 137 75 246
l220 -65q-34 -80 -34 -166z" />
    <glyph glyph-name="uni10E8" unicode="&#x10e8;" horiz-adv-x="1262" 
d="M822 280q71 80 71 197q0 118 -72 191t-188 73q-115 0 -187 -78t-72 -193t73 -192q73 -78 188 -78q116 0 187 80zM642 961q154 0 273 -94v244q-1 127 -59 145q-18 6 -38 5q-52 0 -76 -37t-23 -91v-70h-211v70q0 126 -94 126q-48 0 -74 -31t-27 -88q0 -57 55 -148l-228 -76
q-73 133 -73 258q0 126 80 215t237 89q158 0 235 -114q80 114 259 114q140 0 215 -86q76 -86 76 -226v-695q0 -229 -148 -360t-388 -131q-241 0 -389 136t-148 356q0 219 158 354q159 135 388 135z" />
    <glyph glyph-name="uni10E9" unicode="&#x10e9;" horiz-adv-x="1103" 
d="M566 1236q0 46 -58 46t-98 -54t-39 -131v-56q80 31 138 87q57 56 57 108zM371 722q102 131 299 131q58 -1 128 -21t121 -69q53 -49 83 -129t30 -199t-24 -225t-88 -210h-280q117 210 117 413q0 204 -160 204q-160 1 -204 -161q-13 -48 -13 -105v-351h-279v983
q0 237 112 366t297 129q129 0 209 -67q79 -67 79 -177q0 -226 -427 -391v-121z" />
    <glyph glyph-name="uni10EA" unicode="&#x10ea;" horiz-adv-x="1265" 
d="M354 238q0 -491 299 -491q122 0 189 74q68 74 68 169t-65 152q-65 56 -158 56h-124v220h119q188 0 188 110q0 46 -64 88q-20 14 -58 38q-39 24 -73 71t-40 107l216 135q25 -110 123 -176q91 -61 133 -107t42 -125q-1 -111 -113 -189q-36 -24 -78 -43q106 -42 169 -121
q63 -80 63 -190q0 -221 -153 -354q-153 -134 -390 -134q-283 0 -427 181q-145 181 -145 497q0 437 201 752l241 -71q-163 -322 -163 -649z" />
    <glyph glyph-name="uni10EB" unicode="&#x10eb;" horiz-adv-x="1208" 
d="M695 222q135 68 135 256q0 119 -66 192t-177 73q-112 -1 -174 -77t-62 -193t62 -195q61 -78 177 -78q60 0 105 22zM557 963q159 0 273 -97v536l277 79v-1005q0 -222 -148 -359t-369 -137q-222 0 -370 139q-149 139 -149 356t144 352q144 136 342 136z" />
    <glyph glyph-name="uni10EC" unicode="&#x10ec;" horiz-adv-x="1213" 
d="M858 497q0 103 -63 174q-63 70 -176 70t-178 -60t-65 -162q0 -103 68 -257q20 -44 71 -160q52 -116 78 -209q183 239 245 475q20 76 20 129zM341 867q119 94 311 94t338 -122q147 -122 147 -315q0 -323 -402 -833q-67 -85 -136 -163h-135q-52 236 -153 440l-59 118
q-83 163 -125 294q-43 131 -43 307v462q0 165 76 247t235 82q160 0 241 -114q82 114 238 114q155 0 234 -88t79 -218q0 -129 -66 -240l-225 78q46 80 46 134q0 53 -28 84t-74 31q-94 0 -94 -127v-79h-210v81q0 88 -54 117q-18 10 -42 10q-49 0 -74 -32t-25 -119v-243z" />
    <glyph glyph-name="uni10ED" unicode="&#x10ed;" horiz-adv-x="1339" 
d="M704 544q-57 78 -122 78q-64 0 -88 -42q-8 -15 -9 -36q0 -39 30 -58q30 -20 71 -20q67 0 118 75v3zM333 7q0 -43 15 -93t45 -87q31 -37 75 -59t104 -21q112 0 175 73q64 73 64 172q0 52 -23 139q-23 86 -32 121l-20 64q-72 -72 -196 -72t-202 89q-79 89 -79 208
q0 120 81 207t203 87t190 -66q8 39 34 117q27 78 27 114q0 64 -71 109t-240 115q-23 -124 -85 -281l-262 74q78 181 95 387l228 74q316 -116 399 -162q84 -48 126 -84q90 -77 90 -167q0 -61 -22 -141t-26 -96q-15 -57 -18 -76q95 83 251 83v-213q-139 0 -235 -48
q-30 -16 -51 -37v-8q58 -60 198 -67q42 -2 88 -2v-213q-167 0 -248 60q10 -30 16 -49q7 -19 19 -55q44 -125 43 -218q-1 -92 -41 -178t-110 -148q-148 -131 -368 -131t-368 138t-148 354q0 88 27 165l262 -76q-10 -58 -10 -102z" />
    <glyph glyph-name="uni10EE" unicode="&#x10ee;" horiz-adv-x="1208" 
d="M795 666q-62 76 -174 77q-112 0 -177 -73q-66 -73 -66 -192q0 -118 63 -198t177 -80q115 0 177 78t62 195t-62 193zM697 951q182 -21 311 -150q128 -128 128 -336t-149 -346q-149 -139 -372 -139q-224 0 -369 140t-145 356v926l277 79v-603l271 400h313l-286 -326z" />
    <glyph glyph-name="uni10EF" unicode="&#x10ef;" horiz-adv-x="1699" 
d="M318 -250q71 0 71 45q-1 37 -61 101q-18 18 -35 39l-85 91l499 305l-261 342q-49 66 -97 66q-49 0 -49 -46t63 -122l-205 -121q-52 63 -82 136t-31 134q0 117 89 183t217 66q179 0 292 -146l294 -390q66 41 131 81t106 66q71 44 100 71q29 26 29 53q0 44 -49 44t-136 -60
l-132 170q149 111 288 111t215 -72q77 -72 77 -186q0 -160 -164 -263l-338 -208l281 -367q38 -49 86 -49q19 0 36 11t17 43t-62 114l206 120q109 -145 109 -266t-90 -187t-203 -66q-112 1 -183 39t-128 113l-302 394l-279 -170q96 -117 96 -228q0 -150 -169 -197
q-57 -16 -133 -16q-173 0 -305 96l136 201q105 -75 141 -75z" />
    <glyph glyph-name="uni10F0" unicode="&#x10f0;" horiz-adv-x="1141" 
d="M293 394q99 -200 335 -200q66 0 116 34q49 34 49 80q0 47 -26 81t-103 79t-323 118l120 182q112 -45 172 -45t60 32q0 67 -235 149q-65 22 -128 43l117 179q129 -53 163 -53q60 0 60 41q0 58 -200 130q-51 18 -94 33l-70 24l112 177q252 -84 327 -125q76 -43 114 -75
q82 -70 82 -150q0 -108 -114 -160h1q139 -76 139 -190t-121 -160q226 -122 226 -332q0 -134 -118 -222q-118 -89 -343 -89q-287 -1 -465 187q-62 66 -106 158z" />
    <glyph glyph-name="uni10F1" unicode="&#x10f1;" horiz-adv-x="1488" 
d="M350 1060v-55q0 -21 2 -38q112 62 162 173q15 33 15 63q1 30 -19 46t-50 16q-55 0 -82 -60q-28 -60 -28 -145zM1181 1039q0 42 -100 97q-96 53 -141 108q-72 88 -72 222h239q0 -81 69 -127q18 -12 50 -31q112 -66 157 -112q77 -76 77 -167q0 -177 -199 -209h5
q61 -61 61 -153t-53 -145t-143 -66q-7 -2 -17 -2h-23h-1h-5q65 -85 65 -205t-109 -197t-319 -77t-367 144q-59 54 -89 114t-50 116t-40 124q-98 343 -98 575q0 220 104 325t279 105q135 0 218 -76t83 -199t-100 -247t-282 -210h5q96 -552 353 -552q100 0 124 72q6 20 7 40
q0 52 -62 110t-203 113l121 182q172 -84 219 -84q48 0 72 22t24 46q0 45 -47 82t-198 97l121 177q15 -6 33 -14q124 -55 167 -55q65 0 65 57z" />
    <glyph glyph-name="uni10F2" unicode="&#x10f2;" horiz-adv-x="1269" 
d="M398 514q0 -209 237 -299q179 68 223 210q14 43 13 86q0 91 -65 162q-65 70 -173 70t-171 -70q-64 -70 -64 -159zM119 515q0 194 148 321t368 127t368 -128t148 -334t-190 -328q99 10 226 55l59 -223q-234 -57 -540 0q-42 8 -74 19q-148 -45 -318 -45t-291 26l59 223
q119 -44 227 -55q-190 120 -190 342z" />
    <glyph glyph-name="uni10F3" unicode="&#x10f3;" horiz-adv-x="1160" 
d="M332 8q0 -46 16 -94q16 -50 45 -87q31 -37 75 -59t103 -21q111 0 176 75q64 75 64 171t-67 151t-167 55h-83v219q139 0 212 92t77 214h-645l127 220h804q0 -213 -30 -316q-29 -104 -75 -172t-122 -120q173 -64 229 -214q18 -48 18 -132q-1 -84 -41 -174
q-40 -91 -110 -155q-147 -133 -369 -133t-369 138t-147 354q0 88 26 166l263 -77q-10 -55 -10 -101z" />
    <glyph glyph-name="uni10F4" unicode="&#x10f4;" horiz-adv-x="1160" 
d="M332 16q0 -54 16 -102q16 -50 45 -87q31 -37 75 -59t103 -21q111 0 176 75q64 75 64 171t-67 151t-167 55h-83v219q151 0 232 90t86 214q-136 -84 -282 -84q-145 0 -246 97q-100 97 -100 229t121 231t299 99l127 -193q-128 0 -199 -43q-70 -43 -70 -93q0 -107 128 -107
t231 86h248q0 -214 -30 -317q-29 -104 -75 -172t-122 -119q174 -64 229 -214q18 -48 18 -132q-1 -84 -41 -174q-40 -91 -110 -155q-147 -133 -369 -133t-369 138t-147 354q0 100 29 183l264 -77q-14 -56 -14 -110z" />
    <glyph glyph-name="uni10F5" unicode="&#x10f5;" horiz-adv-x="1289" 
d="M699 1061q-1 197 -121 197q-109 0 -167 -72q-59 -73 -59 -178q0 -106 42 -148t139 -42h166v243zM534 223q-182 0 -182 -191q0 -122 60 -203q60 -82 143 -82t113 44t31 151v281h-165zM77 49q0 397 428 397h194v150h-194q-335 0 -405 216q-22 70 -23 172q0 213 137 354
q137 140 345 140t312 -88q103 -88 103 -294v-278h238v-222h-238v-150h238v-223h-238v-311q0 -384 -400 -384q-230 0 -364 145q-133 145 -133 376z" />
    <glyph glyph-name="uni10F6" unicode="&#x10f6;" horiz-adv-x="1483" 
d="M1132 474q0 118 -64 190t-193 78v-542q129 6 193 81t64 193zM350 474q0 -116 63 -192t186 -82v542q-185 -12 -234 -166q-15 -48 -15 -102zM216 823q145 134 383 140q-3 213 -154 295q-53 28 -127 44l93 168q450 -52 464 -508q248 -4 392 -137t144 -354q0 -220 -144 -352
q-144 -133 -391 -139q13 -164 158 -244q51 -28 123 -43l-95 -166q-220 24 -334 148q-113 123 -128 306q-240 4 -385 139q-144 135 -144 352t145 351z" />
    <glyph glyph-name="uni10F7" unicode="&#x10f7;" horiz-adv-x="1127" 
d="M1074 11q0 -213 -146 -348t-368 -135q-221 0 -367 121t-146 328q1 231 249 345q68 32 130 56q150 60 202 98q84 60 84 142t-76 114q-30 12 -74 13q-84 0 -128 -44t-44 -112q0 -23 10 -83l-238 72q-15 41 -15 94q-1 52 31 108t88 96q119 86 298 87q180 -1 294 -95
q113 -94 113 -257t-123 -267q-68 -58 -139 -92q-71 -33 -119 -53q-128 -55 -182 -95q-82 -63 -83 -143q0 -81 64 -147q64 -67 176 -67q113 0 176 78t63 194q0 37 -13 95l253 73q30 -70 30 -176z" />
    <glyph glyph-name="uni10F8" unicode="&#x10f8;" horiz-adv-x="1090" 
d="M952 177q65 -103 65 -267t-121 -273t-337 -109q-336 0 -427 262q-31 89 -31 211v943h276v-242q1 -180 93 -226q34 -16 94 -16q123 0 123 193v291h276v-304q0 -283 -188 -381q-71 -37 -167 -37q-139 0 -244 101v-323q0 -198 114 -240q36 -14 84 -13q94 -1 145 49t51 140
t-38 174z" />
    <glyph glyph-name="uni10F9" unicode="&#x10f9;" horiz-adv-x="1209" 
d="M417 301q67 -81 175 -113q167 61 217 203q17 47 17 101q0 110 -63 181q-63 70 -177 70t-175 -74t-61 -181q0 -106 67 -187zM1229 -119q0 -161 -117 -255t-300 -94q-385 0 -385 381v94q-160 62 -258 190t-98 291q0 211 149 343t369 132t368 -130q147 -130 147 -338
q0 -168 -112 -300t-291 -199v-87q-1 -113 71 -151q24 -13 60 -13q69 0 102 40q34 40 34 98t-25 107l229 80q57 -105 57 -189z" />
    <glyph glyph-name="uni10FA" unicode="&#x10fa;" horiz-adv-x="1232" 
d="M417 -73q-336 158 -336 546q0 220 146 355t370 135q225 0 372 -137t147 -357q0 -65 -18 -132l-271 41q10 60 10 107q-1 47 -17 97t-46 86t-75 56q-44 20 -99 19q-110 0 -175 -76t-65 -187q0 -205 154 -352t377 -198q224 -52 317 -102q92 -49 148 -103t84 -130l-233 -67
q-79 106 -224 141q-146 35 -424 35h-444v223h302z" />
    <glyph glyph-name="uni10FB" unicode="&#x10fb;" horiz-adv-x="1029" 
d="M929 582q51 -49 51 -116t-51 -114t-123 -47q-71 0 -123 48q-51 48 -51 115q0 66 52 114q52 49 123 49t122 -49zM463 255q50 -49 50 -116t-52 -115q-52 -47 -104 -47q-91 1 -141 49t-50 115t51 115t124 48q72 0 122 -49zM461 914q50 -49 50 -117q0 -67 -52 -113t-104 -47
q-89 0 -141 48q-51 48 -51 115t52 115t124 48t122 -49z" />
    <glyph glyph-name="uni10FC" unicode="&#x10fc;" horiz-adv-x="776" 
d="M521 794q42 42 42 103t-30 92q-55 57 -129 57q-112 0 -150 -89q-12 -27 -12 -57t11 -56t32 -48q46 -45 120 -44q74 0 116 42zM238 1116q89 74 210 74t214 -84q92 -84 92 -211t-97 -214t-245 -87q-149 0 -253 79q-103 79 -103 223v556l183 49q82 -43 178 -43t158 42
l181 -51q-54 -67 -140 -103t-188 -36t-190 34v-228z" />
    <glyph glyph-name="endash" unicode="&#x2013;" horiz-adv-x="1003" 
d="M964 394h-925v229h925v-229z" />
    <glyph glyph-name="emdash" unicode="&#x2014;" horiz-adv-x="1815" 
d="M1780 394h-1745v229h1745v-229z" />
    <glyph glyph-name="afii00208" unicode="&#x2015;" horiz-adv-x="1811" 
d="M1704 394h-1598v229h1598v-229z" />
    <glyph glyph-name="quoteleft" unicode="&#x2018;" horiz-adv-x="431" 
d="M371 1070q-1 -58 -47 -104t-95 -46q-83 0 -129 48q-43 51 -43 123q0 178 188 437h133q-91 -155 -123 -282l10 -19q48 -19 77 -59t29 -98z" />
    <glyph glyph-name="quoteright" unicode="&#x2019;" horiz-adv-x="431" 
d="M60 1378q0 58 46 104t114 46t110 -50q44 -50 44 -121q0 -172 -188 -437h-133q83 139 124 285l-11 19q-50 16 -78 56t-28 98z" />
    <glyph glyph-name="quotesinglbase" unicode="&#x201a;" horiz-adv-x="444" 
d="M382 144q0 -194 -187 -459h-133q80 135 122 279l-11 19q-87 22 -117 108q-9 26 -9 55q1 68 51 118t117 50t117 -50t50 -120z" />
    <glyph glyph-name="quotedblleft" unicode="&#x201c;" horiz-adv-x="867" 
d="M698 1224q107 -31 107 -146q0 -116 -95 -150q-29 -10 -63 -10q-74 0 -115 46t-41 125q0 190 187 437h131q-74 -125 -122 -283zM213 918q-73 0 -115 46t-41 125q0 190 187 437h132q-79 -135 -123 -283l11 -19q107 -31 107 -146q0 -116 -95 -150q-29 -10 -63 -10z" />
    <glyph glyph-name="quotedblright" unicode="&#x201d;" horiz-adv-x="867" 
d="M169 1220q-106 30 -106 146t95 150q29 10 63 10q73 0 115 -46t41 -125q0 -192 -188 -437h-132q83 144 122 283zM496 1368q0 74 43 116t115 42t114 -46q41 -46 41 -125q0 -191 -187 -437h-131q83 144 122 283l-10 19q-107 30 -107 148z" />
    <glyph glyph-name="quotedblbase" unicode="&#x201e;" horiz-adv-x="1029" 
d="M113 150q0 64 50 114t117 50t117 -50t50 -120q0 -192 -187 -459h-133q80 133 120 279l-10 19q-55 13 -90 58q-34 45 -34 109zM582 146q0 68 50 118t118 50t117 -50q50 -50 50 -120q0 -193 -188 -459h-133q86 147 121 279l-11 19q-86 21 -115 107q-9 26 -9 56z" />
    <glyph glyph-name="dagger" unicode="&#x2020;" horiz-adv-x="938" 
d="M335 964v458q72 22 138 42t137 41v-541h283l-98 -230h-185v-1075q-72 -20 -138 -40t-137 -40v1155h-290l101 230h189z" />
    <glyph glyph-name="daggerdbl" unicode="&#x2021;" horiz-adv-x="938" 
d="M335 1086v336q72 22 138 42t137 41v-419h283l-98 -230h-185v-280h283l-98 -229h-185v-688q-72 -20 -138 -40t-137 -40v768h-290q18 39 40 91l35 80q12 28 26 58h189v280h-290l101 230h189z" />
    <glyph glyph-name="bullet" unicode="&#x2022;" horiz-adv-x="1069" 
d="M133 670q0 165 117 283t282 118q164 1 284 -119t120 -282t-119 -283q-119 -116 -284 -116t-283 116q-117 118 -117 283z" />
    <glyph glyph-name="ellipsis" unicode="&#x2026;" horiz-adv-x="1539" 
d="M113 146q0 68 50 118t117 50t117 -50t50 -118t-49 -118h1q-51 -49 -119 -49t-119 49h1q-49 50 -49 118zM770 314q66 0 117 -51t51 -118t-50 -117h1q-51 -49 -119 -49t-118 49h1q-50 50 -50 118q1 68 51 118t116 50zM1092 146q0 68 50 118t118 50t116 -50q50 -50 50 -119
t-49 -117t-117 -49q-68 0 -120 49h1q-49 50 -49 118z" />
    <glyph glyph-name="perthousand" unicode="&#x2030;" horiz-adv-x="2378" 
d="M1352 686q-102 0 -102 -239q0 -181 18 -231t38 -64t46 -14q53 0 77 64t24 210q-1 146 -25 210t-76 64zM1629 414q0 -200 -75 -317q-75 -116 -199 -116t-205 113q-76 118 -76 315t71 316q72 116 205 116q133 1 206 -113t73 -314zM2034 686q-102 0 -102 -239
q0 -185 18 -232q18 -49 38 -63t45 -14q53 0 76 65q24 65 24 209t-24 210q-24 64 -75 64zM1755 410q1 196 71 314t204 117q134 1 207 -113t73 -314t-74 -317q-74 -116 -201 -116q-126 0 -204 113q-76 120 -76 316zM345 690q78 0 95 147q6 52 6 127q0 148 -24 210
q-24 63 -77 63q-102 0 -102 -273q0 -146 25 -210t77 -64zM342 1394q134 0 207 -114t73 -312q0 -197 -73 -318q-74 -117 -202 -117q-127 0 -203 116t-76 314q0 199 70 315t204 116zM360 -28l757 1426h212l-755 -1426h-214z" />
    <glyph glyph-name="guilsinglleft" unicode="&#x2039;" horiz-adv-x="623" 
d="M49 477q215 276 258 332h267l-260 -332l260 -331h-267z" />
    <glyph glyph-name="guilsinglright" unicode="&#x203a;" horiz-adv-x="622" 
d="M575 477q-68 -85 -259 -331h-267l259 331l-259 332h267z" />
    <glyph glyph-name="Euro" unicode="&#x20ac;" horiz-adv-x="1148" 
d="M718 1392q224 0 391 -133l-161 -232q-100 94 -237 94q-183 0 -290 -200h435q-9 -50 -27 -160h-452q-3 -29 -3 -75t3 -65h425q-16 -103 -27 -162h-358q103 -209 294 -209q136 0 237 95l161 -232q-169 -134 -392 -134t-390 123q-166 128 -233 357h-117l21 162l68 1l3 139
h-94l23 160h100q70 229 233 350t387 121z" />
    <glyph glyph-name="afii61352" unicode="&#x2116;" horiz-adv-x="2082" 
d="M1950 21h-559v198h559v-198zM1667 540q63 0 99 46t37 122q0 76 -35 118q-35 44 -100 44q-64 0 -102 -44t-38 -99q0 -91 38 -139t101 -48zM1982 708q0 -139 -89 -225q-91 -85 -227 -85t-226 85q-89 86 -89 224q0 139 89 223t226 84q136 0 226 -84t90 -222zM1175 -4h-156
l-628 763v-759h-291v1374h158l627 -757v755h290v-1376z" />
    <glyph glyph-name="trademark" unicode="&#x2122;" horiz-adv-x="1621" 
d="M657 1209h-209v-630h-183v630h-212v163h604v-163zM1299 928l-122 -351h-79l-128 357l-27 -3q-13 -87 -27 -176t-28 -176h-181l139 795h116l185 -460l167 460h117l138 -795h-192l-51 345z" />
    <glyph glyph-name="Ohm" unicode="&#x2126;" horiz-adv-x="1573" 
d="M151 806q0 308 176 504t475 196q300 0 476 -196t175 -506q0 -416 -389 -672l411 7v-139h-558v155q165 87 261 252q94 168 94 371q0 259 -124 425t-344 166q-221 1 -344 -163t-123 -402q0 -471 351 -645v-159h-561v141l418 -9q-394 246 -394 674z" />
    <glyph glyph-name="partialdiff" unicode="&#x2202;" horiz-adv-x="1011" 
d="M402 86q144 0 290 167q147 174 188 553l-16 17q-260 -13 -384 -79t-199 -195q-70 -128 -70 -233t54 -167q54 -63 137 -63zM655 1509q156 0 234 -147q83 -148 83 -424t-83 -505q-83 -228 -235 -347q-151 -112 -295 -112q-143 0 -224 93q-80 94 -80 250q0 285 213 441
t616 165q-4 275 -60 375q-57 111 -167 111q-154 0 -244 -227l-108 48q138 279 350 279z" />
    <glyph glyph-name="increment.001" unicode="&#x2206;" horiz-adv-x="1246" 
d="M1023 54l-435 1053l-480 -1053h915zM1220 0h-1193l624 1376z" />
    <glyph glyph-name="product" unicode="&#x220f;" horiz-adv-x="1700" 
d="M162 1509h1376v-1953h-169v1804h-1040v-1804h-167v1953z" />
    <glyph glyph-name="summation" unicode="&#x2211;" horiz-adv-x="1471" 
d="M140 1509h1246v-138h-1038l641 -815l-683 -866h1091v-134h-1274v171l643 820l-626 803v159z" />
    <glyph glyph-name="minus" unicode="&#x2212;" horiz-adv-x="885" 
d="M852 573h-821v215h821v-215z" />
    <glyph glyph-name="fraction" unicode="&#x2215;" horiz-adv-x="97" 
d="M537 1398l-755 -1426h-212l755 1426h212z" />
    <glyph glyph-name="periodcentered" unicode="&#x2219;" horiz-adv-x="436" 
d="M214 857q68 1 118 -49t50 -118t-50 -118t-118 -49q-68 -1 -118 49t-49 118q-1 68 49 118t118 49z" />
    <glyph glyph-name="radical" unicode="&#x221a;" horiz-adv-x="1119" 
d="M107 885q0 1 -23 37l283 144l415 -845h28l266 1679h43l-310 -1944l-497 1024z" />
    <glyph glyph-name="infinity" unicode="&#x221e;" horiz-adv-x="1467" 
d="M391 901q-69 0 -112 -49t-43 -124t42 -126t115 -51q117 0 240 165v18q-131 167 -242 167zM1032 485q92 0 146 68t54 168q0 171 -118 225q-38 18 -90 17t-98 -33q-76 -53 -177 -196l-1 -17q147 -232 284 -232zM1035 1047q131 0 207 -87t76 -229q0 -187 -92 -259t-201 -72
q-110 0 -228 124q-48 50 -107 128q-146 -188 -299 -188q-101 0 -169 76t-68 184t67 184t170 76q154 0 286 -171h25q145 189 256 223q38 12 77 11z" />
    <glyph glyph-name="integral" unicode="&#x222b;" horiz-adv-x="548" 
d="M423 1894q53 0 89 -28t36 -68t-23 -65q-23 -26 -55 -26t-70 31h1q-32 26 -53 26q-58 0 -58 -80q0 -18 24 -287q24 -270 25 -465q0 -194 -8 -404q-7 -210 -9 -289q-9 -465 -215 -465q-47 0 -77 30t-30 73t20 67t56 25q35 -1 66 -33t58 -32q56 0 56 78q0 23 -10 125
q-39 324 -39 762v40l17 579q6 258 98 356q46 50 101 50z" />
    <glyph glyph-name="approxequal" unicode="&#x2248;" horiz-adv-x="1127" 
d="M806 391q-94 0 -255 69t-247 69q-123 0 -253 -118v169q100 112 273 112q97 0 264 -68q166 -68 237 -69q129 0 251 118v-174q-116 -108 -270 -108zM806 763q-95 0 -255 70t-247 70q-121 0 -253 -120v169q98 115 273 115q97 -1 258 -69t243 -68q127 0 251 118v-175
q-114 -110 -270 -110z" />
    <glyph glyph-name="notequal" unicode="&#x2260;" horiz-adv-x="898" 
d="M63 416v187h234l55 182h-289v185h339l149 539h241l-145 -539h186v-185h-240l-54 -182h294v-187h-343q-135 -493 -151 -553h-244l153 553h-185z" />
    <glyph glyph-name="lessequal" unicode="&#x2264;" horiz-adv-x="1035" 
d="M90 235h855v-218h-855v218zM130 782v199l777 344v-224l-539 -222l539 -219v-228z" />
    <glyph glyph-name="greaterequal" unicode="&#x2265;" horiz-adv-x="1035" 
d="M90 235h855v-218h-855v218zM669 879q-499 206 -541 223v223l777 -344v-199l-777 -350v228z" />
    <glyph glyph-name="lozenge" unicode="&#x25ca;" horiz-adv-x="1007" 
d="M493 1384l-369 -667l369 -666l388 666zM47 717l395 720h96q168 -286 424 -720l-424 -717h-96z" />
    <glyph glyph-name="pi1" unicode="&#xf006;" horiz-adv-x="1426" 
d="M491 945v-945h-155v945h-291v122h1336v-122h-250v-945h-155v945h-485z" />
    <glyph glyph-name="NULL" horiz-adv-x="0" 
 />
    <glyph glyph-name="commaaccent" horiz-adv-x="763" 
d="M538 -272q0 -140 -93 -297h-111q34 87 51 157q-59 14 -95 54t-36 96t41 97q42 39 102 39q61 0 101 -42t40 -104z" />
    <glyph glyph-name="glyph323" horiz-adv-x="1073" 
d="M1039 1091h-355v-1091h-297v1091h-354v267h1006v-267zM687 -272q0 -140 -93 -297h-111q34 87 51 157q-58 14 -94 54t-37 96q0 56 41 97q42 39 102 39t100 -42t41 -104z" />
    <glyph glyph-name="glyph324" horiz-adv-x="699" 
d="M158 352v367h-125v223h125v265q69 43 138 84t139 83v-432h260l-116 -223h-144v-301q0 -127 37 -198t117 -129l-167 -135q-264 103 -264 396zM506 -272q0 -140 -93 -297h-111q34 87 51 157q-59 14 -95 54t-36 96t41 97q42 39 102 39q61 0 101 -42t40 -104z" />
    <glyph glyph-name="glyph496" horiz-adv-x="811" 
d="M435 310v179q-29 -45 -58 -89t-58 -90h116zM711 149h-71v-149h-205v149h-335v113l416 592h124v-544h71v-161z" />
    <glyph glyph-name="glyph497" horiz-adv-x="523" 
d="M462 1349l-222 -316h-179l129 316h272z" />
    <glyph glyph-name="space.alt" horiz-adv-x="573" 
 />
    </font>
</defs>
</svg>
